<svg width="33" height="49" viewBox="0 0 33 49" fill="none" xmlns="http://www.w3.org/2000/svg">
<g filter="url(#filter0_f_19838_41313)">
<ellipse cx="16.5" cy="43" rx="6" ry="3" fill="black" fill-opacity="0.12"/>
</g>
<mask id="path-2-outside-1_19838_41313" maskUnits="userSpaceOnUse" x="-0.5" y="-0.5" width="34" height="43" fill="black">
<rect fill="white" x="-0.5" y="-0.5" width="34" height="43"/>
<path d="M16.5 1.5C24.7843 1.5 31.5 8.21573 31.5 16.5C31.5 21.4365 29.1148 25.8153 25.4346 28.5488C22.6082 30.6736 18.5785 34.039 17.6572 39.4795C17.5603 40.0516 17.0802 40.4951 16.5 40.4951C15.9198 40.4951 15.4397 40.0516 15.3428 39.4795C14.4214 34.0386 10.3909 30.6735 7.56445 28.5488C3.88459 25.8153 1.5 21.4362 1.5 16.5C1.5 8.21573 8.21573 1.5 16.5 1.5Z"/>
</mask>
<path d="M16.5 1.5C24.7843 1.5 31.5 8.21573 31.5 16.5C31.5 21.4365 29.1148 25.8153 25.4346 28.5488C22.6082 30.6736 18.5785 34.039 17.6572 39.4795C17.5603 40.0516 17.0802 40.4951 16.5 40.4951C15.9198 40.4951 15.4397 40.0516 15.3428 39.4795C14.4214 34.0386 10.3909 30.6735 7.56445 28.5488C3.88459 25.8153 1.5 21.4362 1.5 16.5C1.5 8.21573 8.21573 1.5 16.5 1.5Z" fill="#AAAAAA"/>
<path d="M25.4346 28.5488L24.5402 27.3446L24.5332 27.3498L25.4346 28.5488ZM17.6572 39.4795L19.1361 39.7301L19.1362 39.7299L17.6572 39.4795ZM15.3428 39.4795L13.8638 39.7299L13.8639 39.7301L15.3428 39.4795ZM7.56445 28.5488L8.4658 27.3498L8.45892 27.3447L7.56445 28.5488ZM16.5 1.5V3C23.9558 3 30 9.04416 30 16.5H31.5H33C33 7.3873 25.6127 0 16.5 0V1.5ZM31.5 16.5H30C30 20.9417 27.856 24.8818 24.5402 27.3447L25.4346 28.5488L26.329 29.753C30.3736 26.7488 33 21.9314 33 16.5H31.5ZM25.4346 28.5488L24.5332 27.3498C21.6902 29.4871 17.2058 33.1615 16.1783 39.229L17.6572 39.4795L19.1362 39.7299C19.9513 34.9166 23.5262 31.8601 26.3359 29.7478L25.4346 28.5488ZM17.6572 39.4795L16.1783 39.2289C16.1872 39.1766 16.214 39.1247 16.2618 39.082C16.3131 39.0364 16.3975 38.9951 16.5 38.9951V40.4951V41.9951C17.8802 41.9951 18.9287 40.9542 19.1361 39.7301L17.6572 39.4795ZM16.5 40.4951V38.9951C16.6025 38.9951 16.6869 39.0364 16.7382 39.082C16.786 39.1247 16.8128 39.1766 16.8217 39.2289L15.3428 39.4795L13.8639 39.7301C14.0713 40.9542 15.1198 41.9951 16.5 41.9951V40.4951ZM15.3428 39.4795L16.8217 39.229C15.7941 33.161 11.3086 29.4869 8.46579 27.3498L7.56445 28.5488L6.66312 29.7478C9.4731 31.8602 13.0487 34.9163 13.8638 39.7299L15.3428 39.4795ZM7.56445 28.5488L8.45892 27.3447C5.14355 24.8819 3 20.9415 3 16.5H1.5H0C0 21.931 2.62563 26.7487 6.66999 29.753L7.56445 28.5488ZM1.5 16.5H3C3 9.04416 9.04416 3 16.5 3V1.5V0C7.3873 0 0 7.3873 0 16.5H1.5Z" fill="url(#paint0_linear_19838_41313)" mask="url(#path-2-outside-1_19838_41313)"/>
<path d="M18.7588 19.6514C18.7588 19.4229 18.7236 19.2178 18.6533 19.0361C18.5889 18.8486 18.4658 18.6787 18.2842 18.5264C18.1025 18.3682 17.8477 18.2129 17.5195 18.0605C17.1914 17.9082 16.7666 17.75 16.2451 17.5859C15.665 17.3984 15.1143 17.1875 14.5928 16.9531C14.0771 16.7188 13.6201 16.4463 13.2217 16.1357C12.8291 15.8193 12.5186 15.4531 12.29 15.0371C12.0674 14.6211 11.9561 14.1377 11.9561 13.5869C11.9561 13.0537 12.0732 12.5703 12.3076 12.1367C12.542 11.6973 12.8701 11.3223 13.292 11.0117C13.7139 10.6953 14.2119 10.4521 14.7861 10.2822C15.3662 10.1123 16.002 10.0273 16.6934 10.0273C17.6367 10.0273 18.46 10.1973 19.1631 10.5371C19.8662 10.877 20.4111 11.3428 20.7979 11.9346C21.1904 12.5264 21.3867 13.2031 21.3867 13.9648H18.7676C18.7676 13.5898 18.6885 13.2617 18.5303 12.9805C18.3779 12.6934 18.1436 12.4678 17.8271 12.3037C17.5166 12.1396 17.124 12.0576 16.6494 12.0576C16.1924 12.0576 15.8115 12.1279 15.5068 12.2686C15.2021 12.4033 14.9736 12.5879 14.8213 12.8223C14.6689 13.0508 14.5928 13.3086 14.5928 13.5957C14.5928 13.8125 14.6455 14.0088 14.751 14.1846C14.8623 14.3604 15.0264 14.5244 15.2432 14.6768C15.46 14.8291 15.7266 14.9727 16.043 15.1074C16.3594 15.2422 16.7256 15.374 17.1416 15.5029C17.8389 15.7139 18.4512 15.9512 18.9785 16.2148C19.5117 16.4785 19.957 16.7744 20.3145 17.1025C20.6719 17.4307 20.9414 17.8027 21.123 18.2188C21.3047 18.6348 21.3955 19.1064 21.3955 19.6338C21.3955 20.1904 21.2871 20.6885 21.0703 21.1279C20.8535 21.5674 20.54 21.9395 20.1299 22.2441C19.7197 22.5488 19.2305 22.7803 18.6621 22.9385C18.0938 23.0967 17.458 23.1758 16.7549 23.1758C16.1221 23.1758 15.498 23.0938 14.8828 22.9297C14.2676 22.7598 13.708 22.5049 13.2041 22.165C12.7061 21.8252 12.3076 21.3916 12.0088 20.8643C11.71 20.3369 11.5605 19.7129 11.5605 18.9922H14.2061C14.2061 19.3906 14.2676 19.7275 14.3906 20.0029C14.5137 20.2783 14.6865 20.501 14.9092 20.6709C15.1377 20.8408 15.4072 20.9639 15.7178 21.04C16.0342 21.1162 16.3799 21.1543 16.7549 21.1543C17.2119 21.1543 17.5869 21.0898 17.8799 20.9609C18.1787 20.832 18.3984 20.6533 18.5391 20.4248C18.6855 20.1963 18.7588 19.9385 18.7588 19.6514Z" fill="#2D2926"/>
<defs>
<filter id="filter0_f_19838_41313" x="7.5" y="37" width="18" height="12" filterUnits="userSpaceOnUse" color-interpolation-filters="sRGB">
<feFlood flood-opacity="0" result="BackgroundImageFix"/>
<feBlend mode="normal" in="SourceGraphic" in2="BackgroundImageFix" result="shape"/>
<feGaussianBlur stdDeviation="1.5" result="effect1_foregroundBlur_19838_41313"/>
</filter>
<linearGradient id="paint0_linear_19838_41313" x1="16.5" y1="1.5" x2="16.5" y2="40.4951" gradientUnits="userSpaceOnUse">
<stop stop-color="white"/>
<stop offset="1" stop-color="white" stop-opacity="0.35"/>
</linearGradient>
</defs>
</svg>
