<svg width="44" height="57" viewBox="0 0 44 57" fill="none" xmlns="http://www.w3.org/2000/svg">
<path d="M18 10.3094C20.4752 8.88034 23.5248 8.88034 26 10.3094L37.0526 16.6906C39.5278 18.1197 41.0526 20.7607 41.0526 23.6188V36.3812C41.0526 39.2393 39.5278 41.8803 37.0526 43.3094L26 49.6906C23.5248 51.1197 20.4752 51.1197 18 49.6906L6.94744 43.3094C4.47223 41.8803 2.94744 39.2393 2.94744 36.3812V23.6188C2.94744 20.7607 4.47223 18.1197 6.94744 16.6906L18 10.3094Z" fill="#546884"/>
<path d="M15.5 20C13.6 20 12 21.6 12 23.5C12 26.1 15.5 30 15.5 30C15.5 30 19 26.1 19 23.5C19 21.6 17.4 20 15.5 20ZM15.5 24.8C14.8 24.8 14.3 24.2 14.3 23.6C14.3 23 14.9 22.4 15.5 22.4C16.1 22.4 16.7 23 16.7 23.6C16.7 24.2 16.2 24.8 15.5 24.8Z" fill="white"/>
<path d="M28.5 30C26.6 30 25 31.6 25 33.5C25 36.1 28.5 40 28.5 40C28.5 40 32 36.1 32 33.5C32 31.6 30.4 30 28.5 30ZM28.5 34.8C27.8 34.8 27.3 34.2 27.3 33.6C27.3 33 27.9 32.4 28.5 32.4C29.1 32.4 29.7 33 29.7 33.6C29.7 34.2 29.2 34.8 28.5 34.8Z" fill="white"/>
<path d="M25 39H15C13.3 39 12 37.7 12 36C12 34.3 13.3 33 15 33H18C18.3 33 18.6 32.9 18.8 32.6L23.6 26.2C24.2 25.4 25.1 25 26 25H29C29.6 25 30 24.6 30 24C30 23.4 29.6 23 29 23H20V21H29C30.7 21 32 22.3 32 24C32 25.7 30.7 27 29 27H26C25.7 27 25.4 27.1 25.2 27.4L20.4 33.8C19.8 34.6 18.9 35 18 35H15C14.4 35 14 35.4 14 36C14 36.6 14.4 37 15 37H25V39Z" fill="white"/>
</svg>
