<svg width="33" height="49" viewBox="0 0 33 49" fill="none" xmlns="http://www.w3.org/2000/svg">
<g filter="url(#filter0_f_19838_41299)">
<ellipse cx="16.5" cy="43" rx="6" ry="3" fill="black" fill-opacity="0.12"/>
</g>
<mask id="path-2-outside-1_19838_41299" maskUnits="userSpaceOnUse" x="-0.5" y="-0.5" width="34" height="43" fill="black">
<rect fill="white" x="-0.5" y="-0.5" width="34" height="43"/>
<path d="M16.5 1.5C24.7843 1.5 31.5 8.21573 31.5 16.5C31.5 21.4365 29.1148 25.8153 25.4346 28.5488C22.6082 30.6736 18.5785 34.039 17.6572 39.4795C17.5603 40.0516 17.0802 40.4951 16.5 40.4951C15.9198 40.4951 15.4397 40.0516 15.3428 39.4795C14.4214 34.0386 10.3909 30.6735 7.56445 28.5488C3.88459 25.8153 1.5 21.4362 1.5 16.5C1.5 8.21573 8.21573 1.5 16.5 1.5Z"/>
</mask>
<path d="M16.5 1.5C24.7843 1.5 31.5 8.21573 31.5 16.5C31.5 21.4365 29.1148 25.8153 25.4346 28.5488C22.6082 30.6736 18.5785 34.039 17.6572 39.4795C17.5603 40.0516 17.0802 40.4951 16.5 40.4951C15.9198 40.4951 15.4397 40.0516 15.3428 39.4795C14.4214 34.0386 10.3909 30.6735 7.56445 28.5488C3.88459 25.8153 1.5 21.4362 1.5 16.5C1.5 8.21573 8.21573 1.5 16.5 1.5Z" fill="#2D2926"/>
<path d="M25.4346 28.5488L24.5402 27.3446L24.5332 27.3498L25.4346 28.5488ZM17.6572 39.4795L19.1361 39.7301L19.1362 39.7299L17.6572 39.4795ZM15.3428 39.4795L13.8638 39.7299L13.8639 39.7301L15.3428 39.4795ZM7.56445 28.5488L8.4658 27.3498L8.45892 27.3447L7.56445 28.5488ZM16.5 1.5V3C23.9558 3 30 9.04416 30 16.5H31.5H33C33 7.3873 25.6127 0 16.5 0V1.5ZM31.5 16.5H30C30 20.9417 27.856 24.8818 24.5402 27.3447L25.4346 28.5488L26.329 29.753C30.3736 26.7488 33 21.9314 33 16.5H31.5ZM25.4346 28.5488L24.5332 27.3498C21.6902 29.4871 17.2058 33.1615 16.1783 39.229L17.6572 39.4795L19.1362 39.7299C19.9513 34.9166 23.5262 31.8601 26.3359 29.7478L25.4346 28.5488ZM17.6572 39.4795L16.1783 39.2289C16.1872 39.1766 16.214 39.1247 16.2618 39.082C16.3131 39.0364 16.3975 38.9951 16.5 38.9951V40.4951V41.9951C17.8802 41.9951 18.9287 40.9542 19.1361 39.7301L17.6572 39.4795ZM16.5 40.4951V38.9951C16.6025 38.9951 16.6869 39.0364 16.7382 39.082C16.786 39.1247 16.8128 39.1766 16.8217 39.2289L15.3428 39.4795L13.8639 39.7301C14.0713 40.9542 15.1198 41.9951 16.5 41.9951V40.4951ZM15.3428 39.4795L16.8217 39.229C15.7941 33.161 11.3086 29.4869 8.46579 27.3498L7.56445 28.5488L6.66312 29.7478C9.4731 31.8602 13.0487 34.9163 13.8638 39.7299L15.3428 39.4795ZM7.56445 28.5488L8.45892 27.3447C5.14355 24.8819 3 20.9415 3 16.5H1.5H0C0 21.931 2.62563 26.7487 6.66999 29.753L7.56445 28.5488ZM1.5 16.5H3C3 9.04416 9.04416 3 16.5 3V1.5V0C7.3873 0 0 7.3873 0 16.5H1.5Z" fill="url(#paint0_linear_19838_41299)" mask="url(#path-2-outside-1_19838_41299)"/>
<path d="M19.1719 18.7549H21.7998C21.7471 19.6162 21.5098 20.3809 21.0879 21.0488C20.6719 21.7168 20.0889 22.2383 19.3389 22.6133C18.5947 22.9883 17.6982 23.1758 16.6494 23.1758C15.8291 23.1758 15.0938 23.0352 14.4434 22.7539C13.793 22.4668 13.2363 22.0566 12.7734 21.5234C12.3164 20.9902 11.9678 20.3457 11.7275 19.5898C11.4873 18.834 11.3672 17.9873 11.3672 17.0498V16.1621C11.3672 15.2246 11.4902 14.3779 11.7363 13.6221C11.9883 12.8604 12.3457 12.2129 12.8086 11.6797C13.2773 11.1465 13.8369 10.7363 14.4873 10.4492C15.1377 10.1621 15.8643 10.0186 16.667 10.0186C17.7334 10.0186 18.6328 10.2119 19.3652 10.5986C20.1035 10.9854 20.6748 11.5186 21.0791 12.1982C21.4893 12.8779 21.7354 13.6514 21.8174 14.5186H19.1807C19.1514 14.0029 19.0488 13.5664 18.873 13.209C18.6973 12.8457 18.4307 12.5732 18.0732 12.3916C17.7217 12.2041 17.2529 12.1104 16.667 12.1104C16.2275 12.1104 15.8438 12.1924 15.5156 12.3564C15.1875 12.5205 14.9121 12.7695 14.6895 13.1035C14.4668 13.4375 14.2998 13.8594 14.1885 14.3691C14.083 14.873 14.0303 15.4648 14.0303 16.1445V17.0498C14.0303 17.7119 14.0801 18.2949 14.1797 18.7988C14.2793 19.2969 14.4316 19.7188 14.6367 20.0645C14.8477 20.4043 15.1172 20.6621 15.4453 20.8379C15.7793 21.0078 16.1807 21.0928 16.6494 21.0928C17.2002 21.0928 17.6543 21.0049 18.0117 20.8291C18.3691 20.6533 18.6416 20.3926 18.8291 20.0469C19.0225 19.7012 19.1367 19.2705 19.1719 18.7549Z" fill="white"/>
<defs>
<filter id="filter0_f_19838_41299" x="7.5" y="37" width="18" height="12" filterUnits="userSpaceOnUse" color-interpolation-filters="sRGB">
<feFlood flood-opacity="0" result="BackgroundImageFix"/>
<feBlend mode="normal" in="SourceGraphic" in2="BackgroundImageFix" result="shape"/>
<feGaussianBlur stdDeviation="1.5" result="effect1_foregroundBlur_19838_41299"/>
</filter>
<linearGradient id="paint0_linear_19838_41299" x1="16.5" y1="1.5" x2="16.5" y2="40.4951" gradientUnits="userSpaceOnUse">
<stop stop-color="white"/>
<stop offset="1" stop-color="white" stop-opacity="0.35"/>
</linearGradient>
</defs>
</svg>
