<svg width="33" height="47" viewBox="0 0 33 47" fill="none" xmlns="http://www.w3.org/2000/svg">
<ellipse cx="17" cy="41.5" rx="13.5" ry="5" fill="#2D2926"/>
<mask id="path-2-outside-1_19838_41391" maskUnits="userSpaceOnUse" x="-0.5" y="-0.5" width="34" height="43" fill="black">
<rect fill="white" x="-0.5" y="-0.5" width="34" height="43"/>
<path d="M16.5 1.5C24.7843 1.5 31.5 8.21573 31.5 16.5C31.5 21.4365 29.1148 25.8153 25.4346 28.5488C22.6082 30.6736 18.5785 34.039 17.6572 39.4795C17.5603 40.0516 17.0802 40.4951 16.5 40.4951C15.9198 40.4951 15.4397 40.0516 15.3428 39.4795C14.4214 34.0386 10.3909 30.6735 7.56445 28.5488C3.88459 25.8153 1.5 21.4362 1.5 16.5C1.5 8.21573 8.21573 1.5 16.5 1.5Z"/>
</mask>
<path d="M16.5 1.5C24.7843 1.5 31.5 8.21573 31.5 16.5C31.5 21.4365 29.1148 25.8153 25.4346 28.5488C22.6082 30.6736 18.5785 34.039 17.6572 39.4795C17.5603 40.0516 17.0802 40.4951 16.5 40.4951C15.9198 40.4951 15.4397 40.0516 15.3428 39.4795C14.4214 34.0386 10.3909 30.6735 7.56445 28.5488C3.88459 25.8153 1.5 21.4362 1.5 16.5C1.5 8.21573 8.21573 1.5 16.5 1.5Z" fill="#0C47C7"/>
<path d="M25.4346 28.5488L24.5402 27.3446L24.5332 27.3498L25.4346 28.5488ZM17.6572 39.4795L19.1361 39.7301L19.1362 39.7299L17.6572 39.4795ZM15.3428 39.4795L13.8638 39.7299L13.8639 39.7301L15.3428 39.4795ZM7.56445 28.5488L8.4658 27.3498L8.45892 27.3447L7.56445 28.5488ZM16.5 1.5V3C23.9558 3 30 9.04416 30 16.5H31.5H33C33 7.3873 25.6127 0 16.5 0V1.5ZM31.5 16.5H30C30 20.9417 27.856 24.8818 24.5402 27.3447L25.4346 28.5488L26.329 29.753C30.3736 26.7488 33 21.9314 33 16.5H31.5ZM25.4346 28.5488L24.5332 27.3498C21.6902 29.4871 17.2058 33.1615 16.1783 39.229L17.6572 39.4795L19.1362 39.7299C19.9513 34.9166 23.5262 31.8601 26.3359 29.7478L25.4346 28.5488ZM17.6572 39.4795L16.1783 39.2289C16.1872 39.1766 16.214 39.1247 16.2618 39.082C16.3131 39.0364 16.3975 38.9951 16.5 38.9951V40.4951V41.9951C17.8802 41.9951 18.9287 40.9542 19.1361 39.7301L17.6572 39.4795ZM16.5 40.4951V38.9951C16.6025 38.9951 16.6869 39.0364 16.7382 39.082C16.786 39.1247 16.8128 39.1766 16.8217 39.2289L15.3428 39.4795L13.8639 39.7301C14.0713 40.9542 15.1198 41.9951 16.5 41.9951V40.4951ZM15.3428 39.4795L16.8217 39.229C15.7941 33.161 11.3086 29.4869 8.46579 27.3498L7.56445 28.5488L6.66312 29.7478C9.4731 31.8602 13.0487 34.9163 13.8638 39.7299L15.3428 39.4795ZM7.56445 28.5488L8.45892 27.3447C5.14355 24.8819 3 20.9415 3 16.5H1.5H0C0 21.931 2.62563 26.7487 6.66999 29.753L7.56445 28.5488ZM1.5 16.5H3C3 9.04416 9.04416 3 16.5 3V1.5V0C7.3873 0 0 7.3873 0 16.5H1.5Z" fill="url(#paint0_linear_19838_41391)" mask="url(#path-2-outside-1_19838_41391)"/>
<rect x="4.5" y="4.5" width="24" height="24" rx="12" fill="white"/>
<path d="M16.2012 17.959V19.084H10.0488L10.002 18.2344L13.6816 12.4688H14.8125L13.5879 14.5664L11.4727 17.959H16.2012ZM15.1348 12.4688V21H13.7227V12.4688H15.1348ZM18.627 17.0332L17.502 16.7578L17.9648 12.4688H22.5645V13.6641H19.1367L18.9023 15.7559C19.0352 15.6777 19.2188 15.6016 19.4531 15.5273C19.6875 15.4492 19.9551 15.4102 20.2559 15.4102C20.6582 15.4102 21.0176 15.4766 21.334 15.6094C21.6543 15.7383 21.9258 15.9277 22.1484 16.1777C22.3711 16.4238 22.541 16.7246 22.6582 17.0801C22.7754 17.4316 22.834 17.8281 22.834 18.2695C22.834 18.6641 22.7754 19.0332 22.6582 19.377C22.5449 19.7207 22.373 20.0234 22.1426 20.2852C21.9121 20.5469 21.6211 20.752 21.2695 20.9004C20.9219 21.0449 20.5098 21.1172 20.0332 21.1172C19.6777 21.1172 19.3359 21.0664 19.0078 20.9648C18.6836 20.8594 18.3926 20.7051 18.1348 20.502C17.877 20.2949 17.6699 20.041 17.5137 19.7402C17.3574 19.4355 17.2676 19.0859 17.2441 18.6914H18.627C18.6621 18.9688 18.7383 19.2051 18.8555 19.4004C18.9766 19.5918 19.1367 19.7383 19.3359 19.8398C19.5352 19.9414 19.7656 19.9922 20.0273 19.9922C20.2656 19.9922 20.4707 19.9512 20.6426 19.8691C20.8145 19.7832 20.957 19.6621 21.0703 19.5059C21.1875 19.3457 21.2734 19.1582 21.3281 18.9434C21.3867 18.7285 21.416 18.4902 21.416 18.2285C21.416 17.9785 21.3828 17.75 21.3164 17.543C21.2539 17.3359 21.1582 17.1562 21.0293 17.0039C20.9043 16.8516 20.7461 16.7344 20.5547 16.6523C20.3633 16.5664 20.1426 16.5234 19.8926 16.5234C19.5566 16.5234 19.2988 16.5723 19.1191 16.6699C18.9434 16.7676 18.7793 16.8887 18.627 17.0332Z" fill="#2D2926"/>
<defs>
<linearGradient id="paint0_linear_19838_41391" x1="16.5" y1="1.5" x2="16.5" y2="40.4951" gradientUnits="userSpaceOnUse">
<stop stop-color="white"/>
<stop offset="1" stop-color="white" stop-opacity="0.35"/>
</linearGradient>
</defs>
</svg>
