<svg width="828" height="125" viewBox="0 0 828 125" fill="none" xmlns="http://www.w3.org/2000/svg">
<g opacity="0.9">
<path d="M347.179 82.0257C341.096 82.0257 339.244 80.204 339.236 74.2432V35.8105H368.302V20.2454L348.688 20.2301C347.545 20.2301 346.47 20.6646 345.647 21.4573L339.106 27.7307V1.33393L322.084 16.5866V16.8915C322.084 23.4011 322.084 29.9183 322.084 36.4279C322.084 40.2849 322.077 44.1419 322.061 47.9989C322.023 57.1078 321.993 66.5216 322.214 75.7829C322.504 87.8493 332.322 97.4537 344.572 97.6442C347.415 97.69 350.274 97.7052 353.125 97.7052C355.625 97.7052 358.118 97.6976 360.565 97.6823L365.97 97.6671C366.435 97.6671 366.877 97.5756 367.273 97.4994C367.433 97.4689 367.586 97.4384 367.738 97.4156L368.317 97.3241V82.0334H347.187L347.179 82.0257Z" fill="#0052CC"/>
<path d="M42.8866 0.426869C31.0482 0.411624 19.2174 0.419247 7.379 0.426869H3.28549C2.69852 0.426869 2.11155 0.464982 1.50934 0.510717L0 0.594564V97.6747H13.8433C18.1731 97.6747 22.48 97.6747 26.7794 97.6747C32.1764 97.6747 37.5506 97.6748 42.9324 97.6671C56.9052 97.6443 66.6778 87.8798 66.7007 73.9154C66.7312 57.9844 66.7236 40.2163 66.7007 24.2929C66.6854 10.0388 57.111 0.449737 42.8866 0.426869ZM49.4957 75.5466C49.4957 79.8838 47.3689 82.0029 43.0086 82.0181C36.4681 82.041 29.92 82.0334 23.3795 82.0258H18.4704C18.0892 82.0258 17.7005 81.9953 17.2507 81.9648H17.1287V16.2054C17.1287 16.2054 17.1592 16.2054 17.1745 16.2054C17.6242 16.1445 18.0435 16.0835 18.4475 16.0835C26.6269 16.0682 34.8063 16.053 42.9857 16.0835C47.3537 16.0987 49.4805 18.2102 49.4881 22.5321C49.511 39.5913 49.511 58.4951 49.4881 75.5542L49.4957 75.5466Z" fill="#0052CC"/>
<path d="M215.234 20.2454L212.314 20.2225C208.937 20.192 205.446 20.1615 202.008 20.3063C200.559 20.3673 198.913 21 197.716 21.9528C195.993 23.3172 194.431 24.7884 192.616 26.4958C192.205 26.8846 191.778 27.2886 191.336 27.6925V20.3368H174.413V124.94H191.404V97.6747H198.57C204.196 97.6824 209.676 97.69 215.157 97.6747C228.886 97.6366 238.689 88.2 238.994 74.7234C239.223 64.6769 239.231 54.0969 238.994 43.2882C238.712 29.9945 228.719 20.3063 215.234 20.2454ZM221.789 76.4537C221.759 79.6018 219.518 81.919 216.469 81.9648C210.485 82.0562 204.607 82.041 198.395 82.0181C196.131 82.0181 193.859 82.0029 191.557 82.0029V35.8867H209.074C211.224 35.8715 213.374 35.8639 215.523 35.8944C219.403 35.9477 221.744 38.082 221.782 41.596C221.919 52.5648 221.919 63.9604 221.782 76.4461L221.789 76.4537Z" fill="#0052CC"/>
<path d="M807.185 60.4236C819.207 51.8178 824.855 39.2864 824.947 21.0534V20.3673H807.97L807.925 21.0076C807.345 29.682 806.286 37.9829 799.89 44.1724C793.853 50.0189 786.115 51.5434 777.372 52.6791V0H760.502V97.4918H777.44V87.6969C777.463 82.4145 777.471 76.9492 777.402 71.5677C777.379 69.9974 777.654 69.7002 779.255 69.5553C782.959 69.2276 786.405 68.6406 789.492 67.825C791.329 67.3372 791.916 67.7869 792.747 69.3876C797.222 77.9858 801.91 86.6602 806.431 95.0526L806.651 95.4566C807.406 96.8515 808.153 97.568 808.893 97.5909C811.995 97.6671 815.075 97.6824 818.238 97.6824C819.489 97.6824 820.754 97.6824 822.042 97.6824H827.157L807.178 60.4388L807.185 60.4236Z" fill="#0052CC"/>
<path d="M288.406 20.2454C280.562 20.2073 272.718 20.2225 264.874 20.2301H258.044C257.51 20.2378 256.977 20.2911 256.428 20.3445C256.184 20.3673 255.932 20.3902 255.673 20.4131L255.041 20.4588V35.8867H265.484C272.284 35.8867 279.076 35.8715 285.875 35.9096C287.423 35.9172 288.963 36.0849 290.434 36.3975C291.608 36.649 293.643 37.4265 294.062 39.8047C294.375 41.596 294.489 43.4178 294.611 45.3386C294.649 45.9485 294.688 46.5583 294.733 47.1833C292.218 47.1833 289.748 47.1833 287.301 47.168C281.302 47.1528 275.638 47.1376 269.882 47.1985C258.799 47.3053 249.903 54.4399 247.738 64.9513C247.021 68.4425 246.884 72.4214 247.319 77.4675C248.18 87.5292 255.864 95.7767 265.591 97.0878C269.097 97.5604 272.68 97.6595 276.217 97.6595C277.536 97.6595 278.855 97.6442 280.158 97.629C281.561 97.6138 282.994 97.5985 284.374 97.5985C285.578 97.5985 287.095 96.9963 288.231 96.0664C289.977 94.6334 291.585 93.1317 293.445 91.3862C293.849 91.0051 294.261 90.6163 294.687 90.2199V97.5299H311.534L311.61 96.9277C311.633 96.7524 311.656 96.5923 311.679 96.4399C311.732 96.0893 311.778 95.7844 311.778 95.4718C311.778 90.319 311.793 85.1662 311.809 80.0134C311.847 67.7717 311.892 55.1107 311.687 42.6632C311.473 29.522 301.899 20.2987 288.406 20.2378V20.2454ZM294.482 62.8704V82.0257H284.839C280.295 82.0257 275.76 82.0334 271.216 82.0257C266.307 82.0105 264.196 79.8838 264.165 74.9063L264.15 73.4352C264.127 71.8497 264.112 70.2109 264.203 68.6178C264.394 65.3325 266.551 62.9924 269.448 62.939C273.076 62.8628 276.751 62.8399 280.402 62.8399C282.849 62.8399 285.296 62.8475 287.697 62.8552C289.946 62.8628 292.21 62.8704 294.482 62.878V62.8704Z" fill="#0052CC"/>
<path d="M662.288 20.2835C654.566 20.1768 646.715 20.1996 639.115 20.2301C636.012 20.2377 632.91 20.253 629.807 20.253C629.487 20.253 629.159 20.3063 628.846 20.3673L627.917 20.5045V35.8944H636.02C643.528 35.8867 650.953 35.8867 658.378 35.9172C659.956 35.9172 661.496 36.0697 662.959 36.3517C665.36 36.8091 666.801 38.3412 667.106 40.7804C667.297 42.282 667.358 43.8294 667.419 45.4682C667.441 46.0247 667.464 46.5964 667.487 47.1909H664.88C662.563 47.1909 660.223 47.1909 657.898 47.1757C652.744 47.1604 647.416 47.1452 642.164 47.229C631.698 47.4043 622.87 54.4704 620.69 64.4254C619.882 68.1223 619.691 72.3833 620.103 77.4522C620.926 87.5139 628.595 95.7767 638.345 97.0954C641.859 97.568 645.457 97.6747 649.009 97.6747C650.313 97.6747 651.609 97.6595 652.897 97.6442C654.193 97.629 655.496 97.6138 656.792 97.6138C656.907 97.6138 656.998 97.5909 657.143 97.6138C658.363 97.6138 659.88 97.0192 661 96.0969C662.746 94.6639 664.43 93.086 666.207 91.4167C666.611 91.0355 667.03 90.6468 667.457 90.2504V97.4537H684.486V96.7677C684.486 91.2413 684.509 85.7379 684.532 80.2497C684.585 67.5811 684.639 54.4856 684.395 41.6417C684.174 29.6363 674.668 20.4512 662.281 20.2835H662.288ZM667.304 62.8475V82.0257H650.541C648.155 82.041 645.769 82.0486 643.383 82.0181C639.442 81.9648 637.102 79.7161 636.973 75.8439C636.881 73.1989 636.889 70.8816 636.988 68.7702C637.148 65.302 639.404 62.939 642.598 62.8933C646.112 62.8399 649.596 62.8247 653.126 62.8247C655.534 62.8247 657.966 62.8247 660.459 62.8399C662.723 62.8399 664.995 62.8552 667.297 62.8552L667.304 62.8475Z" fill="#0052CC"/>
<path d="M148.548 51.9626C143.654 51.2766 138.593 51.3299 133.714 51.3833C131.694 51.4061 129.674 51.429 127.646 51.3985C122.63 51.3299 120.298 48.8374 120.29 43.5626C120.282 38.486 122.714 35.902 127.524 35.8943C134.857 35.8791 142.191 35.8867 149.524 35.8867H162.178V20.413L160.974 20.314C160.57 20.2758 160.204 20.2453 159.838 20.2453H152.642C143.913 20.2301 134.903 20.2225 126.03 20.2835C124.17 20.2987 122.127 20.596 120.137 21.1448C108.924 24.2472 101.926 35.1702 103.489 47.107C105.021 58.8228 114.07 66.8188 125.992 67.0094C128.538 67.0475 131.084 67.0399 133.63 67.0323C136.923 67.017 140.331 67.0094 143.677 67.1085C145.164 67.1542 146.802 67.6954 147.862 68.4958C150.027 70.1346 150.751 74.5785 149.417 78.0087C148.274 80.9357 146.482 82.0257 142.793 82.0257C134.842 82.0334 126.891 82.0257 118.925 82.0257H105.54V97.629H106.226C110.251 97.629 114.26 97.6519 118.262 97.6747C122.165 97.6976 126.121 97.7205 130.093 97.7205C135.322 97.7205 140.582 97.6823 145.781 97.5451C156.827 97.2555 166.332 87.9255 166.965 76.751C167.727 63.3658 160.501 53.6319 148.556 51.9626H148.548Z" fill="#0052CC"/>
<path d="M431.855 20.253L423.187 20.2378C415.694 20.2225 408.201 20.2149 400.707 20.2454C387.367 20.3064 377.549 30.025 377.358 43.3492C377.213 53.5176 377.213 64.0062 377.358 74.5176C377.549 88.1009 387.238 97.6214 400.921 97.6671C404.671 97.6824 408.422 97.6824 412.172 97.6824C415.923 97.6824 419.727 97.6824 423.5 97.6747H430.49C431.024 97.6671 431.557 97.629 432.114 97.5985L433.57 97.5147V82.0258H421.251C414.695 82.0258 408.147 82.0258 401.599 82.0258C396.492 82.0258 394.495 80.0744 394.479 75.0969C394.449 63.7699 394.449 53.2356 394.479 42.8995C394.495 37.8686 396.477 35.902 401.546 35.8944C408.277 35.8867 415.008 35.8867 421.739 35.8944H433.623V20.4741L432.533 20.3292C432.243 20.2835 432.045 20.2606 431.855 20.2606V20.253Z" fill="#0052CC"/>
<path d="M748.077 20.2454H742.161C734.279 20.2301 726.39 20.2225 718.508 20.2454C704.809 20.2911 695.105 29.804 694.914 43.372C694.77 53.7158 694.77 64.1967 694.914 74.5405C695.105 88.1161 704.809 97.6214 718.5 97.6671C722.319 97.6824 726.13 97.6824 729.95 97.6824C734.142 97.6824 738.335 97.6824 742.527 97.6747H748.069C748.603 97.6747 749.136 97.629 749.693 97.5909L751.126 97.507V82.0258H738.906C732.229 82.0258 725.551 82.0334 718.873 82.0258C714.109 82.0181 712.066 80.0134 712.051 75.3408C712.013 65.2715 712.013 54.6533 712.051 42.8766C712.066 37.861 714.056 35.9096 719.14 35.8944C725.871 35.8867 732.602 35.8867 739.333 35.8944H751.179V20.4131L749.716 20.3216C749.144 20.2835 748.61 20.2454 748.077 20.2454Z" fill="#0052CC"/>
<path d="M570.546 0.106712H508.671V15.588H531.098V97.5299H548.219V15.5651H570.546V0.106712Z" fill="#0052CC"/>
<path d="M612.747 20.2453C606.588 20.2377 600.428 20.2377 594.269 20.2453C579.458 20.2606 569.883 29.8573 569.86 44.706C569.845 58.335 569.853 71.964 569.86 85.5931V94.054C569.86 94.6943 569.906 95.3346 569.944 95.9978L570.028 97.5909H587.012V78.6413C587.012 67.0628 587.012 55.4918 587.012 43.9132C587.012 37.5484 588.635 35.8943 594.917 35.8943H600.299C604.491 35.8943 608.676 35.8943 612.861 35.8943C613.448 35.8943 614.035 35.8562 614.645 35.8105L616.116 35.719V20.4054L614.531 20.3216C613.913 20.2835 613.326 20.253 612.747 20.253V20.2453Z" fill="#0052CC"/>
<path d="M94.1966 26.3967H77.4338V97.5833H94.1966V26.3967Z" fill="#0052CC"/>
<path d="M94.1966 0.480214H77.4338V16.6018H94.1966V0.480214Z" fill="#F27B42"/>
<path d="M509.883 48.6849C509.647 36.9158 501.688 28.0813 490.063 26.694C485.505 26.1528 480.817 26.2519 476.281 26.3586C474.695 26.3967 473.102 26.4272 471.517 26.4424C470.549 26.4424 469.603 27.1818 468.879 27.8221C467.164 29.3542 465.479 30.9245 463.596 32.6853L462.788 33.4323V42.0305H485.147C490.887 42.0305 492.823 43.9971 492.823 49.813C492.823 61.5212 492.823 67.1237 492.823 78.8243V97.5299H509.525L509.685 97.0725C509.723 96.9658 509.761 96.8744 509.791 96.7981C509.868 96.6152 509.952 96.4246 509.952 96.1807C509.952 90.9669 509.982 85.7455 510.005 80.5241C510.058 68.0842 510.119 61.323 509.868 48.6697L509.883 48.6849Z" fill="#0052CC"/>
<path d="M462.796 1.33393H445.423V97.7052H462.796V1.33393Z" fill="#0052CC"/>
</g>
</svg>
