<svg width="1663" height="249" viewBox="0 0 1663 249" fill="none" xmlns="http://www.w3.org/2000/svg">
<path d="M697.774 162.977C685.548 162.977 681.825 159.357 681.81 147.514V71.1518H740.229V40.2255L700.808 40.1952C698.51 40.1952 696.35 41.0585 694.695 42.6336L681.55 55.098V2.65041L647.338 32.9558V33.5616C647.338 46.4956 647.338 59.4447 647.338 72.3786C647.338 80.042 647.323 87.7055 647.292 95.3689C647.216 113.467 647.154 132.172 647.599 150.573C648.181 174.548 667.914 193.631 692.535 194.009C698.249 194.1 703.995 194.13 709.725 194.13C714.75 194.13 719.76 194.115 724.678 194.085L735.54 194.055C736.475 194.055 737.364 193.873 738.16 193.721C738.482 193.661 738.788 193.6 739.095 193.555L740.259 193.373V162.992H697.79L697.774 162.977Z" fill="white"/>
<path d="M86.1955 0.848116C62.4022 0.817825 38.6242 0.83297 14.8308 0.848116H6.60354C5.42383 0.848116 4.24413 0.923841 3.03378 1.01471L0.000244141 1.18131V194.07H27.8229C36.5252 194.07 45.1815 194.07 53.8225 194.07C64.6696 194.07 75.4709 194.07 86.2874 194.055C114.371 194.009 134.012 174.608 134.058 146.862C134.119 115.209 134.104 79.9057 134.058 48.2675C134.027 19.9461 114.784 0.893551 86.1955 0.848116ZM99.4787 150.103C99.4787 158.721 95.2041 162.931 86.4406 162.962C73.2953 163.007 60.1347 162.992 46.9894 162.977H37.1227C36.3567 162.977 35.5753 162.916 34.6714 162.856H34.4262V32.1985C34.4262 32.1985 34.4875 32.1985 34.5182 32.1985C35.4221 32.0774 36.2647 31.9562 37.0768 31.9562C53.516 31.9259 69.9553 31.8956 86.3946 31.9562C95.1735 31.9865 99.448 36.1817 99.4633 44.769C99.5093 78.6638 99.5093 116.224 99.4633 150.119L99.4787 150.103Z" fill="white"/>
<path d="M432.585 40.2255L426.717 40.18C419.93 40.1195 412.913 40.0589 406.003 40.3466C403.092 40.4678 399.783 41.7248 397.378 43.618C393.915 46.329 390.774 49.252 387.128 52.6445C386.301 53.4169 385.443 54.2196 384.554 55.0223V40.4072H350.542V248.244H384.692V194.07H399.094C410.4 194.085 421.416 194.1 432.432 194.07C460.025 193.994 479.727 175.244 480.34 148.468C480.8 128.506 480.815 107.485 480.34 86.0092C479.773 59.5961 459.688 40.3466 432.585 40.2255ZM445.761 151.906C445.7 158.161 441.195 162.765 435.067 162.856C423.04 163.037 411.228 163.007 398.741 162.962C394.191 162.962 389.625 162.931 384.998 162.931V71.3033H420.206C424.526 71.273 428.847 71.2578 433.167 71.3184C440.966 71.4244 445.669 75.6651 445.746 82.647C446.021 104.441 446.021 127.083 445.746 151.891L445.761 151.906Z" fill="white"/>
<path d="M1622.31 120.055C1646.47 102.957 1657.83 78.058 1658.01 41.8309V40.4678H1623.89L1623.8 41.74C1622.63 58.9751 1620.5 75.4682 1607.65 87.766C1595.52 99.3824 1579.97 102.411 1562.39 104.668V0H1528.49V193.706H1562.53V174.245C1562.58 163.749 1562.59 152.89 1562.45 142.198C1562.41 139.078 1562.96 138.487 1566.18 138.199C1573.62 137.548 1580.55 136.382 1586.75 134.761C1590.44 133.792 1591.62 134.686 1593.29 137.866C1602.29 154.95 1611.71 172.185 1620.8 188.86L1621.24 189.662C1622.76 192.434 1624.26 193.858 1625.74 193.903C1631.98 194.055 1638.17 194.085 1644.53 194.085C1647.04 194.085 1649.58 194.085 1652.17 194.085H1662.45L1622.3 120.086L1622.31 120.055Z" fill="white"/>
<path d="M579.65 40.2255C563.885 40.1497 548.12 40.18 532.355 40.1952H518.627C517.555 40.2103 516.482 40.3163 515.379 40.4224C514.889 40.4678 514.383 40.5132 513.863 40.5587L512.591 40.6495V71.3033H533.581C547.247 71.3033 560.898 71.273 574.564 71.3487C577.674 71.3639 580.769 71.697 583.726 72.318C586.085 72.8178 590.176 74.3626 591.018 79.0879C591.647 82.647 591.876 86.2667 592.122 90.0832C592.198 91.2948 592.275 92.5065 592.367 93.7484C587.311 93.7484 582.347 93.7484 577.429 93.7181C565.371 93.6878 553.988 93.6575 542.421 93.7786C520.144 93.9907 502.265 108.167 497.914 129.052C496.473 135.988 496.198 143.894 497.071 153.92C498.802 173.912 514.246 190.299 533.795 192.904C540.843 193.843 548.043 194.039 555.152 194.039C557.803 194.039 560.453 194.009 563.073 193.979C565.892 193.949 568.773 193.918 571.546 193.918C573.966 193.918 577.015 192.722 579.298 190.874C582.806 188.027 586.039 185.043 589.777 181.575C590.589 180.818 591.417 180.045 592.275 179.258V193.782H626.134L626.287 192.585C626.333 192.237 626.379 191.919 626.425 191.616C626.532 190.919 626.624 190.314 626.624 189.693C626.624 179.455 626.655 169.217 626.685 158.978C626.762 134.655 626.854 109.499 626.44 84.7673C626.011 58.6571 606.768 40.3315 579.65 40.2103V40.2255ZM591.861 124.917V162.977H572.48C563.349 162.977 554.233 162.992 545.102 162.977C535.235 162.946 530.991 158.721 530.93 148.831L530.899 145.908C530.853 142.758 530.823 139.502 531.007 136.336C531.39 129.809 535.725 125.159 541.547 125.053C548.84 124.902 556.225 124.856 563.563 124.856C568.481 124.856 573.399 124.872 578.226 124.887C582.745 124.902 587.296 124.917 591.861 124.932V124.917Z" fill="white"/>
<path d="M1331.09 40.3012C1315.57 40.0892 1299.79 40.1346 1284.52 40.1952C1278.28 40.2103 1272.05 40.2406 1265.81 40.2406C1265.17 40.2406 1264.51 40.3466 1263.88 40.4678L1262.01 40.7404V71.3184H1278.3C1293.39 71.3033 1308.31 71.3033 1323.23 71.3639C1326.4 71.3639 1329.5 71.6668 1332.44 72.2271C1337.27 73.1358 1340.16 76.18 1340.78 81.0265C1341.16 84.0101 1341.28 87.0845 1341.4 90.3407C1341.45 91.4463 1341.5 92.5822 1341.54 93.7635H1336.3C1331.64 93.7635 1326.94 93.7635 1322.27 93.7332C1311.91 93.7029 1301.2 93.6726 1290.65 93.8392C1269.61 94.1876 1251.87 108.227 1247.49 128.007C1245.86 135.352 1245.48 143.818 1246.31 153.89C1247.96 173.881 1263.37 190.299 1282.97 192.919C1290.03 193.858 1297.26 194.07 1304.4 194.07C1307.02 194.07 1309.63 194.039 1312.22 194.009C1314.82 193.979 1317.44 193.949 1320.05 193.949C1320.28 193.949 1320.46 193.903 1320.75 193.949C1323.2 193.949 1326.25 192.767 1328.5 190.935C1332.01 188.087 1335.4 184.952 1338.97 181.636C1339.78 180.878 1340.62 180.106 1341.48 179.318V193.631H1375.71V192.267C1375.71 181.287 1375.75 170.352 1375.8 159.448C1375.91 134.277 1376.01 108.257 1375.52 82.7379C1375.08 58.8843 1355.97 40.6344 1331.08 40.3012H1331.09ZM1341.17 124.872V162.977H1307.48C1302.69 163.007 1297.89 163.022 1293.1 162.962C1285.18 162.856 1280.47 158.388 1280.21 150.694C1280.03 145.439 1280.04 140.835 1280.24 136.639C1280.56 129.748 1285.1 125.053 1291.52 124.962C1298.58 124.856 1305.58 124.826 1312.68 124.826C1317.52 124.826 1322.41 124.826 1327.42 124.856C1331.97 124.856 1336.53 124.887 1341.16 124.887L1341.17 124.872Z" fill="white"/>
<path d="M298.558 103.244C288.722 101.881 278.549 101.987 268.743 102.093C264.683 102.139 260.623 102.184 256.548 102.124C246.467 101.987 241.778 97.0349 241.763 86.5544C241.748 76.4678 246.635 71.3336 256.303 71.3184C271.041 71.2881 285.78 71.3033 300.519 71.3033H325.951V40.5587L323.531 40.3618C322.719 40.286 321.983 40.2255 321.248 40.2255H306.785C289.243 40.1952 271.133 40.18 253.3 40.3012C249.561 40.3315 245.455 40.9221 241.457 42.0126C218.92 48.1767 204.855 69.8796 207.996 93.5969C211.075 116.875 229.261 132.762 253.223 133.141C258.34 133.217 263.458 133.201 268.575 133.186C275.193 133.156 282.042 133.141 288.768 133.338C291.755 133.429 295.049 134.504 297.179 136.094C301.53 139.35 302.985 148.18 300.304 154.995C298.006 160.811 294.406 162.977 286.99 162.977C271.011 162.992 255.031 162.977 239.021 162.977H212.117V193.979H213.496C221.586 193.979 229.644 194.024 237.688 194.07C245.532 194.115 253.484 194.161 261.466 194.161C271.976 194.161 282.547 194.085 292.996 193.812C315.196 193.237 334.301 174.699 335.573 152.496C337.105 125.901 322.581 106.561 298.573 103.244H298.558Z" fill="white"/>
<path d="M867.958 40.2406L850.538 40.2103C835.478 40.18 820.417 40.1649 805.357 40.2255C778.545 40.3466 758.812 59.6567 758.429 86.1304C758.138 106.334 758.138 127.174 758.429 148.059C758.812 175.047 778.285 193.964 805.786 194.055C813.324 194.085 820.862 194.085 828.399 194.085C835.937 194.085 843.582 194.085 851.166 194.07H865.215C866.288 194.055 867.36 193.979 868.479 193.918L871.405 193.752V162.977H846.647C833.471 162.977 820.31 162.977 807.149 162.977C796.884 162.977 792.87 159.1 792.84 149.21C792.778 126.704 792.778 105.774 792.84 85.2368C792.87 75.241 796.854 71.3336 807.042 71.3184C820.57 71.3033 834.099 71.3033 847.627 71.3184H871.512V40.6798L869.321 40.3921C868.739 40.3012 868.341 40.2558 867.958 40.2558V40.2406Z" fill="white"/>
<path d="M1503.51 40.2255H1491.62C1475.78 40.1952 1459.93 40.18 1444.08 40.2255C1416.55 40.3163 1397.05 59.2175 1396.67 86.1758C1396.37 106.728 1396.37 127.552 1396.67 148.104C1397.05 175.078 1416.55 193.964 1444.07 194.055C1451.74 194.085 1459.4 194.085 1467.08 194.085C1475.51 194.085 1483.93 194.085 1492.36 194.07H1503.5C1504.57 194.07 1505.64 193.979 1506.76 193.903L1509.64 193.737V162.977H1485.08C1471.66 162.977 1458.24 162.992 1444.82 162.977C1435.24 162.962 1431.14 158.978 1431.11 149.694C1431.03 129.688 1431.03 108.591 1431.11 85.1914C1431.14 75.2259 1435.14 71.3487 1445.36 71.3184C1458.88 71.3033 1472.41 71.3033 1485.94 71.3184H1509.75V40.5587L1506.81 40.3769C1505.66 40.3012 1504.59 40.2255 1503.51 40.2255Z" fill="white"/>
<path d="M1146.71 0.212059H1022.35V30.9718H1067.42V193.782H1101.83V30.9264H1146.71V0.212059Z" fill="white"/>
<path d="M1231.52 40.2255C1219.14 40.2103 1206.76 40.2103 1194.38 40.2255C1164.62 40.2558 1145.37 59.3235 1145.33 88.8262C1145.3 115.906 1145.31 142.985 1145.33 170.065V186.876C1145.33 188.148 1145.42 189.42 1145.5 190.738L1145.66 193.903H1179.8V156.252C1179.8 133.247 1179.8 110.257 1179.8 87.2511C1179.8 74.6049 1183.06 71.3184 1195.69 71.3184H1206.5C1214.93 71.3184 1223.34 71.3184 1231.75 71.3184C1232.93 71.3184 1234.11 71.2427 1235.34 71.1518L1238.29 70.9701V40.5435L1235.11 40.3769C1233.87 40.3012 1232.69 40.2406 1231.52 40.2406V40.2255Z" fill="white"/>
<path d="M189.321 52.4476H155.63V193.888H189.321V52.4476Z" fill="white"/>
<path d="M189.321 0.954147H155.63V32.9861H189.321V0.954147Z" fill="white"/>
<path d="M1024.78 96.7319C1024.31 73.3479 1008.31 55.7947 984.949 53.0382C975.787 51.9629 966.365 52.1598 957.249 52.3719C954.062 52.4476 950.86 52.5082 947.673 52.5384C945.728 52.5384 943.828 54.0075 942.372 55.2797C938.925 58.3239 935.539 61.4438 931.755 64.9423L930.131 66.4265V83.5102H975.067C986.604 83.5102 990.495 87.4177 990.495 98.9734C990.495 122.236 990.495 133.368 990.495 156.616V193.782H1024.06L1024.38 192.873C1024.46 192.661 1024.54 192.479 1024.6 192.328C1024.75 191.965 1024.92 191.586 1024.92 191.101C1024.92 180.742 1024.98 170.368 1025.03 159.993C1025.14 135.276 1025.26 121.843 1024.75 96.7016L1024.78 96.7319Z" fill="white"/>
<path d="M930.145 2.65041H895.229V194.13H930.145V2.65041Z" fill="white"/>
</svg>
