<svg width="312" height="20" viewBox="0 0 312 20" fill="none" xmlns="http://www.w3.org/2000/svg">
<path d="M152 15.6989V0H153.852V15.6989H152Z" fill="#F27B42"></path>
<path d="M165.487 4.94624H167.339V15.6989H165.487V13.8495C164.565 15.2688 163.224 15.9785 161.465 15.9785C159.975 15.9785 158.705 15.4337 157.655 14.3441C156.605 13.2401 156.08 11.8996 156.08 10.3226C156.08 8.74552 156.605 7.41219 157.655 6.32258C158.705 5.21864 159.975 4.66667 161.465 4.66667C163.224 4.66667 164.565 5.37634 165.487 6.7957V4.94624ZM161.699 14.172C162.777 14.172 163.678 13.8065 164.402 13.0753C165.125 12.3297 165.487 11.4122 165.487 10.3226C165.487 9.23298 165.125 8.32258 164.402 7.5914C163.678 6.84588 162.777 6.47312 161.699 6.47312C160.635 6.47312 159.741 6.84588 159.017 7.5914C158.294 8.32258 157.932 9.23298 157.932 10.3226C157.932 11.4122 158.294 12.3297 159.017 13.0753C159.741 13.8065 160.635 14.172 161.699 14.172Z" fill="#F27B42"></path>
<path d="M171.719 7.84946C171.719 8.26523 171.925 8.60215 172.337 8.86021C172.748 9.10394 173.245 9.30466 173.826 9.46237C174.408 9.60573 174.99 9.77778 175.572 9.97849C176.153 10.1649 176.65 10.4946 177.061 10.9677C177.473 11.4265 177.679 12.0215 177.679 12.7527C177.679 13.7276 177.303 14.509 176.551 15.0968C175.813 15.6846 174.862 15.9785 173.699 15.9785C172.663 15.9785 171.776 15.7491 171.038 15.2903C170.301 14.8315 169.776 14.2222 169.464 13.4624L171.06 12.5376C171.23 13.0538 171.549 13.4624 172.017 13.7634C172.486 14.0645 173.046 14.2151 173.699 14.2151C174.309 14.2151 174.813 14.1004 175.21 13.871C175.607 13.6272 175.806 13.2545 175.806 12.7527C175.806 12.3369 175.6 12.0072 175.189 11.7634C174.777 11.5054 174.28 11.3047 173.699 11.1613C173.117 11.0036 172.535 10.8244 171.954 10.6237C171.372 10.4229 170.875 10.0932 170.464 9.63441C170.052 9.17563 169.847 8.58781 169.847 7.87097C169.847 6.93907 170.201 6.17204 170.911 5.56989C171.634 4.96774 172.535 4.66667 173.614 4.66667C174.479 4.66667 175.245 4.86738 175.912 5.26882C176.593 5.65591 177.104 6.20072 177.444 6.90323L175.891 7.78495C175.508 6.86738 174.749 6.4086 173.614 6.4086C173.089 6.4086 172.642 6.53763 172.273 6.7957C171.904 7.03943 171.719 7.39068 171.719 7.84946Z" fill="#F27B42"></path>
<path d="M185.244 6.75269H182.413V12.5806C182.413 13.1111 182.513 13.491 182.711 13.7204C182.924 13.9355 183.243 14.0502 183.669 14.0645C184.095 14.0645 184.62 14.0502 185.244 14.0215V15.6989C183.626 15.914 182.442 15.7849 181.69 15.3118C180.938 14.8244 180.562 13.914 180.562 12.5806V6.75269H178.455V4.94624H180.562V2.49462L182.413 1.93548V4.94624H185.244V6.75269Z" fill="#F27B42"></path>
<path d="M199.182 4.64516C200.403 4.64516 201.382 5.05376 202.119 5.87097C202.857 6.67383 203.226 7.7491 203.226 9.09677V15.6989H200.034V9.37634C200.034 8.83154 199.899 8.40143 199.629 8.08602C199.374 7.77061 198.998 7.6129 198.501 7.6129C197.976 7.6129 197.565 7.79211 197.267 8.15054C196.983 8.50896 196.841 9.00358 196.841 9.63441V15.6989H193.649V9.37634C193.649 8.83154 193.514 8.40143 193.245 8.08602C192.989 7.77061 192.613 7.6129 192.117 7.6129C191.592 7.6129 191.18 7.79211 190.882 8.15054C190.599 8.50896 190.457 9.00358 190.457 9.63441V15.6989H187.264V4.94624H190.457V5.93548C191.038 5.07527 191.989 4.64516 193.308 4.64516C194.543 4.64516 195.472 5.11828 196.096 6.06452C196.749 5.11828 197.778 4.64516 199.182 4.64516Z" fill="#F27B42"></path>
<path d="M208.345 3.44086C207.976 3.81362 207.529 4 207.005 4C206.48 4 206.026 3.81362 205.642 3.44086C205.274 3.05376 205.089 2.59498 205.089 2.06452C205.089 1.53405 205.274 1.08244 205.642 0.709677C206.026 0.32258 206.48 0.129032 207.005 0.129032C207.529 0.129032 207.976 0.32258 208.345 0.709677C208.728 1.08244 208.92 1.53405 208.92 2.06452C208.92 2.59498 208.728 3.05376 208.345 3.44086ZM205.408 15.6989V4.94624H208.601V15.6989H205.408Z" fill="#F27B42"></path>
<path d="M210.937 15.6989V0H214.129V15.6989H210.937Z" fill="#F27B42"></path>
<path d="M219.317 11.6129C219.686 12.6165 220.537 13.1183 221.871 13.1183C222.736 13.1183 223.417 12.8459 223.914 12.3011L226.468 13.7849C225.418 15.2616 223.871 16 221.828 16C220.041 16 218.608 15.4624 217.529 14.3871C216.465 13.3118 215.933 11.957 215.933 10.3226C215.933 8.70251 216.458 7.35484 217.508 6.27957C218.572 5.18996 219.934 4.64516 221.594 4.64516C223.141 4.64516 224.425 5.18996 225.446 6.27957C226.482 7.35484 227 8.70251 227 10.3226C227 10.7814 226.957 11.2115 226.872 11.6129H219.317ZM219.253 9.2043H223.829C223.517 8.07168 222.765 7.50538 221.573 7.50538C220.339 7.50538 219.565 8.07168 219.253 9.2043Z" fill="#F27B42"></path>
<path d="M305.485 12.5315C305.766 13.546 306.526 14.0532 307.768 14.0532C308.566 14.0532 309.171 13.7834 309.581 13.2438L311.264 14.2151C310.466 15.3699 309.289 15.9473 307.735 15.9473C306.397 15.9473 305.323 15.5426 304.514 14.7331C303.704 13.9237 303.3 12.9038 303.3 11.6735C303.3 10.4539 303.699 9.43943 304.497 8.63C305.296 7.80977 306.321 7.39965 307.573 7.39965C308.761 7.39965 309.737 7.80977 310.504 8.63C311.281 9.45022 311.669 10.4647 311.669 11.6735C311.669 11.9433 311.642 12.2293 311.588 12.5315H305.485ZM305.453 10.9126H309.581C309.462 10.3622 309.214 9.95208 308.836 9.68226C308.469 9.41245 308.048 9.27754 307.573 9.27754C307.012 9.27754 306.548 9.42324 306.181 9.71464C305.814 9.99525 305.571 10.3946 305.453 10.9126Z" fill="white"></path>
<path d="M299.084 15.9473C297.864 15.9473 296.844 15.5372 296.024 14.717C295.215 13.8967 294.81 12.8822 294.81 11.6735C294.81 10.4647 295.215 9.45022 296.024 8.63C296.844 7.80977 297.864 7.39965 299.084 7.39965C299.872 7.39965 300.589 7.58852 301.237 7.96626C301.884 8.34399 302.375 8.85124 302.71 9.488L300.913 10.5403C300.751 10.2057 300.503 9.94128 300.168 9.74702C299.845 9.55275 299.478 9.45562 299.068 9.45562C298.442 9.45562 297.924 9.66607 297.513 10.087C297.103 10.4971 296.898 11.0259 296.898 11.6735C296.898 12.3102 297.103 12.8391 297.513 13.26C297.924 13.6701 298.442 13.8751 299.068 13.8751C299.488 13.8751 299.861 13.7834 300.185 13.5999C300.519 13.4057 300.767 13.1413 300.929 12.8067L302.742 13.8428C302.386 14.4795 301.884 14.9922 301.237 15.3807C300.589 15.7584 299.872 15.9473 299.084 15.9473Z" fill="white"></path>
<path d="M293.321 7.62628V15.7206H291.232V9.63368H288.853V15.7206H286.764V9.63368H284.368V15.7206H282.28V9.63368H281.114V7.62628H282.28V7.54533C282.28 6.40133 282.598 5.53253 283.235 4.93895C283.872 4.34536 284.822 4.08634 286.084 4.16189V6.16929C284.94 6.08295 284.368 6.54163 284.368 7.54533V7.62628H286.764V7.38345C286.764 5.12782 288.032 4 290.569 4C291.152 4 291.788 4.07555 292.479 4.22664V6.13691C291.734 6.05057 291.098 6.0074 290.569 6.0074C289.997 6.0074 289.565 6.10993 289.274 6.31499C288.993 6.50925 288.853 6.86541 288.853 7.38345V7.62628H293.321Z" fill="white"></path>
<path d="M279.267 14.717C278.436 15.5372 277.421 15.9473 276.223 15.9473C275.026 15.9473 274.011 15.5372 273.18 14.717C272.36 13.8859 271.95 12.8714 271.95 11.6735C271.95 10.4755 272.36 9.46641 273.18 8.64618C274.011 7.81516 275.026 7.39965 276.223 7.39965C277.421 7.39965 278.436 7.81516 279.267 8.64618C280.098 9.46641 280.513 10.4755 280.513 11.6735C280.513 12.8714 280.098 13.8859 279.267 14.717ZM274.653 13.2762C275.074 13.6971 275.598 13.9075 276.223 13.9075C276.849 13.9075 277.373 13.6971 277.794 13.2762C278.215 12.8553 278.425 12.321 278.425 11.6735C278.425 11.0259 278.215 10.4917 277.794 10.0708C277.373 9.64989 276.849 9.43943 276.223 9.43943C275.598 9.43943 275.074 9.64989 274.653 10.0708C274.243 10.4917 274.038 11.0259 274.038 11.6735C274.038 12.321 274.243 12.8553 274.653 13.2762Z" fill="white"></path>
<path d="M271.174 15.7207H269.426L265.735 11.8839V15.7207H264.326V4.38855H265.735V11.204L269.231 7.6263H271.045L267.175 11.544L271.174 15.7207Z" fill="white"></path>
<path d="M259.293 15.9311C258.074 15.9311 257.059 15.5264 256.25 14.717C255.44 13.8967 255.036 12.8822 255.036 11.6735C255.036 10.4647 255.44 9.45562 256.25 8.64618C257.059 7.82595 258.074 7.41583 259.293 7.41583C260.092 7.41583 260.81 7.6101 261.446 7.99863C262.083 8.37637 262.558 8.88901 262.871 9.53656L261.689 10.2165C261.484 9.78479 261.166 9.43943 260.734 9.18041C260.313 8.92139 259.833 8.79188 259.293 8.79188C258.484 8.79188 257.804 9.06708 257.253 9.6175C256.714 10.1679 256.444 10.8532 256.444 11.6735C256.444 12.4829 256.714 13.1628 257.253 13.7133C257.804 14.2637 258.484 14.5389 259.293 14.5389C259.833 14.5389 260.318 14.4148 260.75 14.1665C261.182 13.9075 261.511 13.5622 261.738 13.1305L262.936 13.8266C262.59 14.4633 262.094 14.976 261.446 15.3645C260.799 15.7422 260.081 15.9311 259.293 15.9311Z" fill="white"></path>
<path d="M251.947 7.62629H253.355V15.7207H251.947V14.3284C251.245 15.3969 250.225 15.9311 248.887 15.9311C247.754 15.9311 246.788 15.521 245.989 14.7008C245.19 13.8697 244.791 12.8606 244.791 11.6735C244.791 10.4863 245.19 9.4826 245.989 8.66237C246.788 7.83135 247.754 7.41583 248.887 7.41583C250.225 7.41583 251.245 7.95006 251.947 9.01852V7.62629ZM249.065 14.5713C249.885 14.5713 250.571 14.296 251.121 13.7456C251.671 13.1844 251.947 12.4937 251.947 11.6735C251.947 10.8532 251.671 10.1679 251.121 9.6175C250.571 9.05629 249.885 8.77569 249.065 8.77569C248.256 8.77569 247.576 9.05629 247.025 9.6175C246.475 10.1679 246.2 10.8532 246.2 11.6735C246.2 12.4937 246.475 13.1844 247.025 13.7456C247.576 14.296 248.256 14.5713 249.065 14.5713Z" fill="white"></path>
<path d="M239.468 7.41585C240.601 7.41585 241.567 7.83136 242.366 8.66238C243.165 9.48261 243.564 10.4863 243.564 11.6735C243.564 12.8607 243.165 13.8698 242.366 14.7008C241.567 15.521 240.601 15.9311 239.468 15.9311C238.13 15.9311 237.11 15.3969 236.408 14.3284V15.7207H235V4.38855H236.408V9.01853C237.11 7.95007 238.13 7.41585 239.468 7.41585ZM239.29 14.5713C240.099 14.5713 240.779 14.2961 241.33 13.7456C241.88 13.1844 242.155 12.4937 242.155 11.6735C242.155 10.8533 241.88 10.1679 241.33 9.61751C240.779 9.0563 240.099 8.7757 239.29 8.7757C238.47 8.7757 237.784 9.0563 237.234 9.61751C236.684 10.1679 236.408 10.8533 236.408 11.6735C236.408 12.4937 236.684 13.1844 237.234 13.7456C237.784 14.2961 238.47 14.5713 239.29 14.5713Z" fill="white"></path>
<path d="M141.711 14.3763V3.17383H143.303V14.3763H141.711Z" fill="#0052CC"></path>
<path d="M56.2169 13.1302C55.2318 13.1302 54.9319 12.8386 54.9307 11.8844V5.73226H59.6372V3.24065L56.4612 3.23821C56.2761 3.23821 56.1021 3.30776 55.9687 3.43466L54.9097 4.43887V0.213379L52.1534 2.65496V2.70377C52.1534 3.74581 52.1534 4.78906 52.1534 5.8311C52.1534 6.44851 52.1522 7.06592 52.1497 7.68333C52.1435 9.14145 52.1386 10.6484 52.1744 12.1309C52.2213 14.0624 53.8111 15.5999 55.7947 15.6304C56.2551 15.6377 56.718 15.6401 57.1796 15.6401C57.5845 15.6401 57.9881 15.6389 58.3844 15.6365L59.2595 15.634C59.3348 15.634 59.4064 15.6194 59.4706 15.6072C59.4965 15.6023 59.5212 15.5974 59.5459 15.5938L59.6397 15.5791V13.1314H56.2181L56.2169 13.1302Z" fill="#0052CC"></path>
<path d="M6.9444 0.0683035C5.02747 0.0658631 3.11177 0.0670833 1.19484 0.0683035H0.532001C0.436957 0.0683035 0.341912 0.0744044 0.244399 0.0817255L0 0.0951475V15.6354H2.24156C2.94267 15.6354 3.64007 15.6354 4.33624 15.6354C5.21015 15.6354 6.08036 15.6354 6.95181 15.6342C9.21435 15.6305 10.7968 14.0674 10.8005 11.8321C10.8054 9.2819 10.8042 6.43765 10.8005 3.88869C10.798 1.60695 9.24768 0.071964 6.9444 0.0683035ZM8.01457 12.0932C8.01457 12.7875 7.67019 13.1267 6.96415 13.1291C5.90509 13.1328 4.84479 13.1316 3.78572 13.1304H2.99081C2.92909 13.1304 2.86614 13.1255 2.79331 13.1206H2.77356V2.59408C2.77356 2.59408 2.7785 2.59408 2.78097 2.59408C2.8538 2.58432 2.92168 2.57456 2.9871 2.57456C4.31155 2.57212 5.636 2.56968 6.96045 2.57456C7.66772 2.577 8.0121 2.91499 8.01334 3.60683C8.01704 6.3376 8.01704 9.36365 8.01334 12.0944L8.01457 12.0932Z" fill="#0052CC"></path>
<path d="M34.8516 3.24064L34.3788 3.23698C33.832 3.2321 33.2667 3.22722 32.71 3.2504C32.4755 3.26016 32.2089 3.36144 32.0151 3.51396C31.7361 3.73237 31.4831 3.96787 31.1893 4.24119C31.1227 4.30342 31.0535 4.36809 30.9819 4.43276V3.25528H28.2417V19.9998H30.993V15.6352H32.1533C33.0643 15.6365 33.9518 15.6377 34.8393 15.6352C37.0623 15.6291 38.6497 14.1186 38.699 11.9613C38.7361 10.3531 38.7373 8.65947 38.699 6.92925C38.6534 4.80125 37.0351 3.2504 34.8516 3.24064ZM35.9131 12.2383C35.9082 12.7422 35.5453 13.1131 35.0516 13.1205C34.0826 13.1351 33.1309 13.1327 32.1249 13.129C31.7583 13.129 31.3905 13.1266 31.0177 13.1266V5.74445H33.8542C34.2023 5.74201 34.5504 5.74079 34.8985 5.74567C35.5268 5.75422 35.9057 6.09587 35.9119 6.65837C35.9341 8.41421 35.9341 10.2384 35.9119 12.237L35.9131 12.2383Z" fill="#0052CC"></path>
<path d="M130.703 9.67238C132.65 8.2948 133.564 6.28882 133.579 3.37014V3.26033H130.83L130.823 3.36282C130.729 4.75139 130.557 6.08017 129.522 7.07095C128.544 8.00683 127.291 8.25087 125.876 8.43268V0H123.144V15.6061H125.887V14.0382C125.89 13.1926 125.892 12.3177 125.881 11.4563C125.877 11.2049 125.921 11.1573 126.181 11.1342C126.78 11.0817 127.338 10.9877 127.838 10.8572C128.136 10.7791 128.231 10.8511 128.365 11.1073C129.09 12.4837 129.849 13.8722 130.581 15.2157L130.617 15.2803C130.739 15.5036 130.86 15.6183 130.98 15.622C131.482 15.6342 131.981 15.6366 132.493 15.6366C132.695 15.6366 132.9 15.6366 133.109 15.6366H133.937L130.702 9.67482L130.703 9.67238Z" fill="#0052CC"></path>
<path d="M46.7001 3.24078C45.43 3.23468 44.1598 3.23712 42.8897 3.23834H41.7837C41.6973 3.23956 41.6109 3.2481 41.522 3.25664C41.4825 3.2603 41.4418 3.26397 41.3998 3.26763L41.2974 3.27495V5.7446H42.9884C44.0895 5.7446 45.1893 5.74215 46.2903 5.74826C46.5409 5.74948 46.7902 5.77632 47.0284 5.82635C47.2185 5.86661 47.5481 5.99107 47.616 6.37177C47.6666 6.65851 47.6851 6.95013 47.7048 7.25762C47.711 7.35523 47.7172 7.45285 47.7246 7.5529C47.3173 7.5529 46.9173 7.5529 46.5211 7.55046C45.5497 7.54802 44.6326 7.54558 43.7006 7.55534C41.9059 7.57243 40.4654 8.71452 40.1149 10.3971C39.9989 10.956 39.9766 11.5929 40.047 12.4007C40.1865 14.0113 41.4307 15.3316 43.0057 15.5414C43.5735 15.6171 44.1536 15.6329 44.7264 15.6329C44.9399 15.6329 45.1535 15.6305 45.3645 15.6281C45.5917 15.6256 45.8237 15.6232 46.0471 15.6232C46.2421 15.6232 46.4878 15.5268 46.6717 15.3779C46.9544 15.1485 47.2148 14.9082 47.516 14.6287C47.5814 14.5677 47.6481 14.5055 47.7172 14.442V15.6122H50.4451L50.4574 15.5158C50.4611 15.4877 50.4648 15.4621 50.4685 15.4377C50.4772 15.3816 50.4846 15.3328 50.4846 15.2828C50.4846 14.4579 50.487 13.6331 50.4895 12.8082C50.4957 10.8486 50.5031 8.82189 50.4698 6.82934C50.4352 4.72574 48.8849 3.24932 46.7001 3.23956V3.24078ZM47.6839 10.064V13.1304H46.1224C45.3868 13.1304 44.6523 13.1316 43.9166 13.1304C43.1217 13.1279 42.7798 12.7875 42.7749 11.9907L42.7724 11.7552C42.7687 11.5014 42.7662 11.2391 42.7811 10.9841C42.8119 10.4582 43.1612 10.0836 43.6303 10.075C44.2178 10.0628 44.8128 10.0592 45.404 10.0592C45.8003 10.0592 46.1965 10.0604 46.5853 10.0616C46.9494 10.0628 47.316 10.064 47.6839 10.0653V10.064Z" fill="#0052CC"></path>
<path d="M107.241 3.24699C105.99 3.2299 104.719 3.23357 103.488 3.23845C102.986 3.23967 102.484 3.24211 101.981 3.24211C101.929 3.24211 101.876 3.25065 101.826 3.26041L101.675 3.28237V5.74592H102.987C104.203 5.7447 105.405 5.7447 106.607 5.74958C106.863 5.74958 107.112 5.77398 107.349 5.81913C107.738 5.89234 107.971 6.1376 108.021 6.52806C108.052 6.76843 108.062 7.01613 108.071 7.27847C108.075 7.36754 108.079 7.45905 108.082 7.55423H107.66C107.285 7.55423 106.906 7.55423 106.53 7.55179C105.695 7.54935 104.832 7.54691 103.982 7.56033C102.287 7.58839 100.858 8.7195 100.505 10.3131C100.374 10.9048 100.343 11.5869 100.41 12.3984C100.543 14.009 101.785 15.3317 103.364 15.5428C103.933 15.6184 104.515 15.6355 105.09 15.6355C105.302 15.6355 105.511 15.6331 105.72 15.6306C105.93 15.6282 106.141 15.6257 106.351 15.6257C106.369 15.6257 106.384 15.6221 106.407 15.6257C106.605 15.6257 106.851 15.5306 107.032 15.3829C107.315 15.1535 107.588 14.9009 107.875 14.6337C107.941 14.5727 108.008 14.5105 108.078 14.447V15.6001H110.835V15.4903C110.835 14.6057 110.839 13.7247 110.842 12.8462C110.851 10.8182 110.86 8.72194 110.82 6.66594C110.784 4.74415 109.245 3.27383 107.239 3.24699H107.241ZM108.053 10.0605V13.1305H105.339C104.952 13.1329 104.566 13.1341 104.18 13.1292C103.541 13.1207 103.162 12.7607 103.141 12.1409C103.127 11.7175 103.128 11.3466 103.144 11.0086C103.17 10.4534 103.535 10.0751 104.052 10.0678C104.621 10.0593 105.185 10.0568 105.757 10.0568C106.147 10.0568 106.541 10.0568 106.944 10.0593C107.311 10.0593 107.679 10.0617 108.052 10.0617L108.053 10.0605Z" fill="#0052CC"></path>
<path d="M24.0535 8.31815C23.2611 8.20834 22.4415 8.21688 21.6515 8.22542C21.3244 8.22908 20.9973 8.23274 20.669 8.22786C19.8568 8.21688 19.4791 7.81788 19.4778 6.97351C19.4766 6.16087 19.8703 5.74723 20.6492 5.74601C21.8366 5.74357 23.0241 5.74479 24.2115 5.74479H26.2605V3.26782L26.0655 3.25196C26.0001 3.24586 25.9408 3.24098 25.8816 3.24098H24.7164C23.303 3.23854 21.8441 3.23732 20.4073 3.24708C20.1061 3.24952 19.7753 3.29711 19.4531 3.38496C17.6374 3.88157 16.5043 5.63009 16.7573 7.5409C17.0054 9.41632 18.4706 10.6963 20.4011 10.7268C20.8134 10.7329 21.2256 10.7317 21.6379 10.7305C22.1712 10.728 22.7229 10.7268 23.2648 10.7427C23.5055 10.75 23.7709 10.8366 23.9424 10.9647C24.293 11.2271 24.4102 11.9384 24.1942 12.4875C24.0091 12.9561 23.719 13.1306 23.1216 13.1306C21.8342 13.1318 20.5468 13.1306 19.2569 13.1306H17.0894V15.6283H17.2005C17.8522 15.6283 18.5015 15.6319 19.1495 15.6356C19.7815 15.6392 20.4221 15.6429 21.0652 15.6429C21.9119 15.6429 22.7636 15.6368 23.6055 15.6148C25.394 15.5685 26.9332 14.075 27.0357 12.2862C27.1591 10.1435 25.989 8.58537 24.0548 8.31815H24.0535Z" fill="#0052CC"></path>
<path d="M69.9278 3.24188L68.5244 3.23944C67.311 3.237 66.0977 3.23578 64.8843 3.24066C62.7242 3.25042 61.1344 4.80615 61.1035 6.93903C61.0801 8.56675 61.0801 10.2457 61.1035 11.9284C61.1344 14.1027 62.7032 15.6267 64.9189 15.634C65.5262 15.6365 66.1335 15.6365 66.7408 15.6365C67.3481 15.6365 67.964 15.6365 68.575 15.6353H69.7069C69.7933 15.634 69.8797 15.6279 69.9698 15.6231L70.2056 15.6096V13.1302H68.2109C67.1493 13.1302 66.089 13.1302 65.0287 13.1302C64.2017 13.1302 63.8783 12.8179 63.8759 12.0211C63.8709 10.2079 63.8709 8.52161 63.8759 6.86704C63.8783 6.06172 64.1993 5.74691 65.0201 5.74569C66.11 5.74447 67.1999 5.74447 68.2899 5.74569H70.2142V3.27727L70.0377 3.25408C69.9908 3.24676 69.9587 3.2431 69.9278 3.2431V3.24188Z" fill="#0052CC"></path>
<path d="M121.132 3.24059H120.174C118.898 3.23815 117.62 3.23693 116.344 3.24059C114.126 3.24791 112.554 4.7707 112.524 6.94262C112.5 8.59841 112.5 10.2762 112.524 11.9319C112.554 14.1051 114.126 15.6267 116.343 15.634C116.961 15.6364 117.578 15.6364 118.197 15.6364C118.876 15.6364 119.554 15.6364 120.233 15.6352H121.131C121.217 15.6352 121.303 15.6279 121.394 15.6218L121.626 15.6084V13.1302H119.647C118.566 13.1302 117.484 13.1314 116.403 13.1302C115.632 13.1289 115.301 12.808 115.298 12.0601C115.292 10.4482 115.292 8.74849 115.298 6.86331C115.301 6.06043 115.623 5.74807 116.446 5.74563C117.536 5.7444 118.626 5.7444 119.716 5.74563H121.634V3.26744L121.397 3.25279C121.305 3.24669 121.218 3.24059 121.132 3.24059Z" fill="#0052CC"></path>
<path d="M92.3855 0.0170898H82.3664V2.49528H85.9978V15.6122H88.7701V2.49162H92.3855V0.0170898Z" fill="#0052CC"></path>
<path d="M99.2187 3.24066C98.2214 3.23944 97.2241 3.23944 96.2267 3.24066C93.8284 3.2431 92.278 4.77931 92.2743 7.15623C92.2719 9.33791 92.2731 11.5196 92.2743 13.7013V15.0557C92.2743 15.1582 92.2817 15.2607 92.2879 15.3668L92.3015 15.6218H95.0516V12.5885C95.0516 10.735 95.0516 8.88278 95.0516 7.02933C95.0516 6.01047 95.3145 5.74569 96.3316 5.74569H97.2031C97.882 5.74569 98.5596 5.74569 99.2373 5.74569C99.3323 5.74569 99.4273 5.73959 99.5261 5.73227L99.7643 5.71763V3.26629L99.5076 3.25286C99.4076 3.24676 99.3126 3.24188 99.2187 3.24188V3.24066Z" fill="#0052CC"></path>
<path d="M15.2528 4.22559H12.5385V15.6209H15.2528V4.22559Z" fill="#0052CC"></path>
<path d="M15.2528 0.0766602H12.5385V2.65735H15.2528V0.0766602Z" fill="#F27B42"></path>
<path d="M82.5626 7.7934C82.5244 5.90944 81.2357 4.49525 79.3534 4.27317C78.6152 4.18654 77.8561 4.2024 77.1217 4.21949C76.8649 4.22559 76.607 4.23047 76.3502 4.23291C76.1934 4.23291 76.0404 4.35127 75.9231 4.45376C75.6454 4.69902 75.3726 4.95038 75.0677 5.23224L74.9369 5.35182V6.72818H78.5572C79.4867 6.72818 79.8002 7.04299 79.8002 7.97399C79.8002 9.84819 79.8002 10.745 79.8002 12.618V15.6123H82.5046L82.5306 15.5391C82.5367 15.522 82.5429 15.5074 82.5478 15.4952C82.5602 15.4659 82.5738 15.4354 82.5738 15.3964C82.5738 14.5617 82.5787 13.7259 82.5824 12.8901C82.591 10.8988 82.6009 9.81646 82.5602 7.79096L82.5626 7.7934Z" fill="#0052CC"></path>
<path d="M74.938 0.213379H72.1249V15.6401H74.938V0.213379Z" fill="#0052CC"></path>
</svg>