<svg width="115" height="20" viewBox="0 0 115 20" fill="none" xmlns="http://www.w3.org/2000/svg">
<path d="M40 15.6989V0H41.8516V15.6989H40Z" fill="#F27B42"></path>
<path d="M53.4872 4.94624H55.3388V15.6989H53.4872V13.8495C52.565 15.2688 51.2242 15.9785 49.4648 15.9785C47.9751 15.9785 46.7052 15.4337 45.6553 14.3441C44.6054 13.2401 44.0804 11.8996 44.0804 10.3226C44.0804 8.74552 44.6054 7.41219 45.6553 6.32258C46.7052 5.21864 47.9751 4.66667 49.4648 4.66667C51.2242 4.66667 52.565 5.37634 53.4872 6.7957V4.94624ZM49.699 14.172C50.7773 14.172 51.6782 13.8065 52.4018 13.0753C53.1254 12.3297 53.4872 11.4122 53.4872 10.3226C53.4872 9.23298 53.1254 8.32258 52.4018 7.5914C51.6782 6.84588 50.7773 6.47312 49.699 6.47312C48.6348 6.47312 47.741 6.84588 47.0174 7.5914C46.2938 8.32258 45.932 9.23298 45.932 10.3226C45.932 11.4122 46.2938 12.3297 47.0174 13.0753C47.741 13.8065 48.6348 14.172 49.699 14.172Z" fill="#F27B42"></path>
<path d="M59.7195 7.84946C59.7195 8.26523 59.9252 8.60215 60.3367 8.86021C60.7481 9.10394 61.2447 9.30466 61.8264 9.46237C62.4081 9.60573 62.9899 9.77778 63.5716 9.97849C64.1533 10.1649 64.6499 10.4946 65.0614 10.9677C65.4728 11.4265 65.6785 12.0215 65.6785 12.7527C65.6785 13.7276 65.3026 14.509 64.5506 15.0968C63.8128 15.6846 62.8622 15.9785 61.6987 15.9785C60.663 15.9785 59.7762 15.7491 59.0384 15.2903C58.3006 14.8315 57.7757 14.2222 57.4635 13.4624L59.0597 12.5376C59.23 13.0538 59.5492 13.4624 60.0174 13.7634C60.4856 14.0645 61.0461 14.2151 61.6987 14.2151C62.3088 14.2151 62.8125 14.1004 63.2098 13.871C63.6071 13.6272 63.8057 13.2545 63.8057 12.7527C63.8057 12.3369 63.6 12.0072 63.1885 11.7634C62.777 11.5054 62.2805 11.3047 61.6987 11.1613C61.117 11.0036 60.5353 10.8244 59.9536 10.6237C59.3719 10.4229 58.8753 10.0932 58.4638 9.63441C58.0524 9.17563 57.8466 8.58781 57.8466 7.87097C57.8466 6.93907 58.2013 6.17204 58.9107 5.56989C59.6343 4.96774 60.5353 4.66667 61.6136 4.66667C62.4791 4.66667 63.2453 4.86738 63.9121 5.26882C64.5931 5.65591 65.1039 6.20072 65.4444 6.90323L63.8908 7.78495C63.5077 6.86738 62.7487 6.4086 61.6136 6.4086C61.0886 6.4086 60.6417 6.53763 60.2728 6.7957C59.9039 7.03943 59.7195 7.39068 59.7195 7.84946Z" fill="#F27B42"></path>
<path d="M73.2439 6.75269H70.4134V12.5806C70.4134 13.1111 70.5127 13.491 70.7113 13.7204C70.9242 13.9355 71.2434 14.0502 71.669 14.0645C72.0947 14.0645 72.6197 14.0502 73.2439 14.0215V15.6989C71.6265 15.914 70.4418 15.7849 69.6898 15.3118C68.9378 14.8244 68.5618 13.914 68.5618 12.5806V6.75269H66.4549V4.94624H68.5618V2.49462L70.4134 1.93548V4.94624H73.2439V6.75269Z" fill="#F27B42"></path>
<path d="M87.1824 4.64516C88.4026 4.64516 89.3816 5.05376 90.1194 5.87097C90.8572 6.67383 91.2261 7.7491 91.2261 9.09677V15.6989H88.0337V9.37634C88.0337 8.83154 87.8989 8.40143 87.6293 8.08602C87.374 7.77061 86.998 7.6129 86.5014 7.6129C85.9764 7.6129 85.5649 7.79211 85.267 8.15054C84.9832 8.50896 84.8413 9.00358 84.8413 9.63441V15.6989H81.649V9.37634C81.649 8.83154 81.5142 8.40143 81.2446 8.08602C80.9892 7.77061 80.6132 7.6129 80.1167 7.6129C79.5917 7.6129 79.1802 7.79211 78.8823 8.15054C78.5985 8.50896 78.4566 9.00358 78.4566 9.63441V15.6989H75.2643V4.94624H78.4566V5.93548C79.0383 5.07527 79.989 4.64516 81.3085 4.64516C82.5428 4.64516 83.4722 5.11828 84.0965 6.06452C84.7491 5.11828 85.7778 4.64516 87.1824 4.64516Z" fill="#F27B42"></path>
<path d="M96.3453 3.44086C95.9764 3.81362 95.5295 4 95.0045 4C94.4795 4 94.0255 3.81362 93.6424 3.44086C93.2736 3.05376 93.0891 2.59498 93.0891 2.06452C93.0891 1.53405 93.2736 1.08244 93.6424 0.709677C94.0255 0.32258 94.4795 0.129032 95.0045 0.129032C95.5295 0.129032 95.9764 0.32258 96.3453 0.709677C96.7284 1.08244 96.9199 1.53405 96.9199 2.06452C96.9199 2.59498 96.7284 3.05376 96.3453 3.44086ZM93.4083 15.6989V4.94624H96.6007V15.6989H93.4083Z" fill="#F27B42"></path>
<path d="M98.9368 15.6989V0H102.129V15.6989H98.9368Z" fill="#F27B42"></path>
<path d="M107.317 11.6129C107.686 12.6165 108.537 13.1183 109.871 13.1183C110.736 13.1183 111.417 12.8459 111.914 12.3011L114.468 13.7849C113.418 15.2616 111.871 16 109.828 16C108.041 16 106.608 15.4624 105.529 14.3871C104.465 13.3118 103.933 11.957 103.933 10.3226C103.933 8.70251 104.458 7.35484 105.508 6.27957C106.572 5.18996 107.934 4.64516 109.594 4.64516C111.141 4.64516 112.425 5.18996 113.446 6.27957C114.482 7.35484 115 8.70251 115 10.3226C115 10.7814 114.957 11.2115 114.872 11.6129H107.317ZM107.253 9.2043H111.829C111.517 8.07168 110.765 7.50538 109.573 7.50538C108.339 7.50538 107.565 8.07168 107.253 9.2043Z" fill="#F27B42"></path>
<path d="M30 14.3763V3.17383H31.5919V14.3763H30Z" fill="#0052CC"></path>
<g clip-path="url(#clip0_20051_18903)">
<path d="M6.84347 0.0514435C4.95562 0.0477561 3.06777 0.0514435 1.17808 0.0514435H0.523596C0.429572 0.0514435 0.337392 0.0588183 0.239681 0.0643494L-0.00183105 0.0790989V15.5698H2.20681C2.89816 15.5698 3.58582 15.5698 4.27164 15.5698C5.1326 15.5698 5.98988 15.5698 6.849 15.5698C9.07792 15.5661 10.6376 14.0082 10.6413 11.7792C10.645 9.23673 10.645 6.40297 10.6413 3.86052C10.6376 1.5854 9.1111 0.0551309 6.84162 0.0514435H6.84347ZM7.89801 12.0391C7.89801 12.7324 7.55879 13.0698 6.8619 13.0716C5.81842 13.0753 4.7731 13.0735 3.72962 13.0716H2.94609C2.88525 13.0716 2.82257 13.0661 2.75251 13.0624H2.73408V2.56993C2.73408 2.56993 2.73961 2.56993 2.74145 2.56993C2.81335 2.56071 2.87972 2.55149 2.94425 2.55149C4.24952 2.54965 5.55479 2.54781 6.85822 2.55149C7.5551 2.55334 7.89432 2.89073 7.89617 3.58027C7.89985 6.30341 7.89985 9.31785 7.89617 12.041L7.89801 12.0391Z" fill="#0052CC"></path>
<path d="M21.8338 0H11.9613V2.47055H15.5397V15.546H18.272V2.46686H21.8338V0Z" fill="#0052CC"></path>
</g>
<defs>
<clipPath id="clip0_20051_18903">
<rect width="21.8338" height="15.57" fill="white"></rect>
</clipPath>
</defs>
</svg>