<svg width="115" height="20" viewBox="0 0 115 20" fill="none" xmlns="http://www.w3.org/2000/svg">
<g clip-path="url(#clip0_20051_18653)">
<path d="M6.84347 0.266287C4.95562 0.2626 3.06777 0.266287 1.17808 0.266287H0.523596C0.429572 0.266287 0.337392 0.273662 0.239681 0.279193L-0.00183105 0.293943V15.7847H2.20681C2.89816 15.7847 3.58582 15.7847 4.27164 15.7847C5.1326 15.7847 5.98988 15.7847 6.849 15.7847C9.07792 15.781 10.6376 14.2231 10.6413 11.994C10.645 9.45157 10.645 6.61782 10.6413 4.07536C10.6376 1.80024 9.1111 0.269975 6.84162 0.266287H6.84347ZM7.89801 12.254C7.89801 12.9472 7.55879 13.2846 6.8619 13.2865C5.81842 13.2901 4.7731 13.2883 3.72962 13.2865H2.94609C2.88525 13.2865 2.82257 13.2809 2.75251 13.2772H2.73408V2.78477C2.73408 2.78477 2.73961 2.78477 2.74145 2.78477C2.81335 2.77556 2.87972 2.76634 2.94425 2.76634C4.24952 2.76449 5.55479 2.76265 6.85822 2.76634C7.5551 2.76818 7.89432 3.10558 7.89617 3.79512C7.89985 6.51826 7.89985 9.53269 7.89617 12.2558L7.89801 12.254Z" fill="white"></path>
<path d="M21.8338 0.214844H11.9613V2.68539H15.5397V15.7609H18.272V2.68171H21.8338V0.214844Z" fill="white"></path>
</g>
<path d="M29.8338 15.6989V0H31.6854V15.6989H29.8338Z" fill="#F27B42"></path>
<path d="M43.321 4.94624H45.1726V15.6989H43.321V13.8495C42.3988 15.2688 41.058 15.9785 39.2986 15.9785C37.8089 15.9785 36.539 15.4337 35.4891 14.3441C34.4392 13.2401 33.9142 11.8996 33.9142 10.3226C33.9142 8.74552 34.4392 7.41219 35.4891 6.32258C36.539 5.21864 37.8089 4.66667 39.2986 4.66667C41.058 4.66667 42.3988 5.37634 43.321 6.7957V4.94624ZM39.5328 14.172C40.6111 14.172 41.512 13.8065 42.2356 13.0753C42.9592 12.3297 43.321 11.4122 43.321 10.3226C43.321 9.23298 42.9592 8.32258 42.2356 7.5914C41.512 6.84588 40.6111 6.47312 39.5328 6.47312C38.4686 6.47312 37.5748 6.84588 36.8512 7.5914C36.1276 8.32258 35.7658 9.23298 35.7658 10.3226C35.7658 11.4122 36.1276 12.3297 36.8512 13.0753C37.5748 13.8065 38.4686 14.172 39.5328 14.172Z" fill="#F27B42"></path>
<path d="M49.5533 7.84946C49.5533 8.26523 49.759 8.60215 50.1705 8.86021C50.5819 9.10394 51.0785 9.30466 51.6602 9.46237C52.2419 9.60573 52.8237 9.77778 53.4054 9.97849C53.9871 10.1649 54.4837 10.4946 54.8952 10.9677C55.3066 11.4265 55.5123 12.0215 55.5123 12.7527C55.5123 13.7276 55.1364 14.509 54.3844 15.0968C53.6466 15.6846 52.696 15.9785 51.5325 15.9785C50.4968 15.9785 49.61 15.7491 48.8722 15.2903C48.1344 14.8315 47.6095 14.2222 47.2973 13.4624L48.8935 12.5376C49.0638 13.0538 49.383 13.4624 49.8512 13.7634C50.3194 14.0645 50.8799 14.2151 51.5325 14.2151C52.1426 14.2151 52.6463 14.1004 53.0436 13.871C53.4409 13.6272 53.6395 13.2545 53.6395 12.7527C53.6395 12.3369 53.4338 12.0072 53.0223 11.7634C52.6108 11.5054 52.1143 11.3047 51.5325 11.1613C50.9508 11.0036 50.3691 10.8244 49.7874 10.6237C49.2057 10.4229 48.7091 10.0932 48.2976 9.63441C47.8862 9.17563 47.6804 8.58781 47.6804 7.87097C47.6804 6.93907 48.0351 6.17204 48.7445 5.56989C49.4681 4.96774 50.3691 4.66667 51.4474 4.66667C52.3129 4.66667 53.0791 4.86738 53.7459 5.26882C54.4269 5.65591 54.9377 6.20072 55.2782 6.90323L53.7246 7.78495C53.3415 6.86738 52.5825 6.4086 51.4474 6.4086C50.9224 6.4086 50.4755 6.53763 50.1066 6.7957C49.7377 7.03943 49.5533 7.39068 49.5533 7.84946Z" fill="#F27B42"></path>
<path d="M63.0777 6.75269H60.2472V12.5806C60.2472 13.1111 60.3465 13.491 60.5451 13.7204C60.758 13.9355 61.0772 14.0502 61.5028 14.0645C61.9285 14.0645 62.4535 14.0502 63.0777 14.0215V15.6989C61.4603 15.914 60.2756 15.7849 59.5236 15.3118C58.7716 14.8244 58.3956 13.914 58.3956 12.5806V6.75269H56.2887V4.94624H58.3956V2.49462L60.2472 1.93548V4.94624H63.0777V6.75269Z" fill="#F27B42"></path>
<path d="M77.0162 4.64516C78.2364 4.64516 79.2154 5.05376 79.9532 5.87097C80.691 6.67383 81.0599 7.7491 81.0599 9.09677V15.6989H77.8675V9.37634C77.8675 8.83154 77.7327 8.40143 77.4631 8.08602C77.2078 7.77061 76.8318 7.6129 76.3352 7.6129C75.8102 7.6129 75.3987 7.79211 75.1008 8.15054C74.817 8.50896 74.6751 9.00358 74.6751 9.63441V15.6989H71.4828V9.37634C71.4828 8.83154 71.348 8.40143 71.0784 8.08602C70.823 7.77061 70.447 7.6129 69.9505 7.6129C69.4255 7.6129 69.014 7.79211 68.7161 8.15054C68.4323 8.50896 68.2904 9.00358 68.2904 9.63441V15.6989H65.0981V4.94624H68.2904V5.93548C68.8721 5.07527 69.8228 4.64516 71.1423 4.64516C72.3766 4.64516 73.306 5.11828 73.9303 6.06452C74.5829 5.11828 75.6116 4.64516 77.0162 4.64516Z" fill="#F27B42"></path>
<path d="M86.1791 3.44086C85.8102 3.81362 85.3633 4 84.8383 4C84.3134 4 83.8593 3.81362 83.4762 3.44086C83.1074 3.05376 82.9229 2.59498 82.9229 2.06452C82.9229 1.53405 83.1074 1.08244 83.4762 0.709677C83.8593 0.32258 84.3134 0.129032 84.8383 0.129032C85.3633 0.129032 85.8102 0.32258 86.1791 0.709677C86.5622 1.08244 86.7537 1.53405 86.7537 2.06452C86.7537 2.59498 86.5622 3.05376 86.1791 3.44086ZM83.2421 15.6989V4.94624H86.4345V15.6989H83.2421Z" fill="#F27B42"></path>
<path d="M88.7706 15.6989V0H91.9629V15.6989H88.7706Z" fill="#F27B42"></path>
<path d="M97.1509 11.6129C97.5198 12.6165 98.371 13.1183 99.7048 13.1183C100.57 13.1183 101.251 12.8459 101.748 12.3011L104.302 13.7849C103.252 15.2616 101.705 16 99.6622 16C97.8745 16 96.4414 15.4624 95.3631 14.3871C94.299 13.3118 93.767 11.957 93.767 10.3226C93.767 8.70251 94.2919 7.35484 95.3419 6.27957C96.406 5.18996 97.768 4.64516 99.4281 4.64516C100.975 4.64516 102.259 5.18996 103.28 6.27957C104.316 7.35484 104.834 8.70251 104.834 10.3226C104.834 10.7814 104.791 11.2115 104.706 11.6129H97.1509ZM97.087 9.2043H101.663C101.351 8.07168 100.599 7.50538 99.4068 7.50538C98.1724 7.50538 97.3992 8.07168 97.087 9.2043Z" fill="#F27B42"></path>
<defs>
<clipPath id="clip0_20051_18653">
<rect width="21.8338" height="15.57" fill="white" transform="translate(0 0.214844)"></rect>
</clipPath>
</defs>
</svg>