<svg width="169" height="20" viewBox="0 0 169 20" fill="none" xmlns="http://www.w3.org/2000/svg">
<g clip-path="url(#clip0_20051_18709)">
<path d="M6.84347 0.266287C4.95562 0.2626 3.06777 0.266287 1.17808 0.266287H0.523596C0.429572 0.266287 0.337392 0.273662 0.239681 0.279193L-0.00183105 0.293943V15.7847H2.20681C2.89816 15.7847 3.58582 15.7847 4.27164 15.7847C5.1326 15.7847 5.98988 15.7847 6.849 15.7847C9.07792 15.781 10.6376 14.2231 10.6413 11.994C10.645 9.45157 10.645 6.61782 10.6413 4.07536C10.6376 1.80024 9.1111 0.269975 6.84162 0.266287H6.84347ZM7.89801 12.254C7.89801 12.9472 7.55879 13.2846 6.8619 13.2865C5.81842 13.2901 4.7731 13.2883 3.72962 13.2865H2.94609C2.88525 13.2865 2.82257 13.2809 2.75251 13.2772H2.73408V2.78477C2.73408 2.78477 2.73961 2.78477 2.74145 2.78477C2.81335 2.77556 2.87972 2.76634 2.94425 2.76634C4.24952 2.76449 5.55479 2.76265 6.85822 2.76634C7.5551 2.76818 7.89432 3.10558 7.89617 3.79512C7.89985 6.51826 7.89985 9.53269 7.89617 12.2558L7.89801 12.254Z" fill="white"></path>
<path d="M21.8338 0.214844H11.9613V2.68539H15.5397V15.7609H18.272V2.68171H21.8338V0.214844Z" fill="white"></path>
</g>
<path d="M37.7617 3.6652H39.3222V16H37.7617V10.9604C37.0443 12.0352 35.8963 12.7048 34.3717 12.7048C31.8786 12.7048 29.8338 10.6784 29.8338 8.07049C29.8338 5.46255 31.8786 3.43612 34.3717 3.43612C35.8963 3.43612 37.0443 4.10573 37.7617 5.18062V3.6652ZM34.569 11.2247C36.3806 11.2247 37.7617 9.86784 37.7617 8.07049C37.7617 6.27313 36.3806 4.9163 34.569 4.9163C32.7754 4.9163 31.3943 6.27313 31.3943 8.07049C31.3943 9.86784 32.7754 11.2247 34.569 11.2247Z" fill="#6B9AFF"></path>
<path d="M47.5159 3.6652H49.0763V12.4758H47.5159V11.207C46.8522 12.2467 45.8657 12.7048 44.6101 12.7048C42.5116 12.7048 41.1305 11.3304 41.1305 9.07489V3.6652H42.6909V8.98678C42.6909 10.4317 43.5339 11.2423 44.9151 11.2423C46.35 11.2423 47.5159 10.4141 47.5159 8.3348V3.6652Z" fill="#6B9AFF"></path>
<path d="M51.8826 2.06167C51.2907 2.06167 50.8243 1.60352 50.8243 1.03965C50.8243 0.47577 51.2907 0 51.8826 0C52.4565 0 52.9229 0.47577 52.9229 1.03965C52.9229 1.60352 52.4565 2.06167 51.8826 2.06167ZM51.0934 12.4758V3.6652H52.6538V12.4758H51.0934Z" fill="#6B9AFF"></path>
<path d="M58.8908 12.7048C56.1824 12.7048 54.1735 10.6784 54.1735 8.07049C54.1735 5.46255 56.1824 3.43612 58.8908 3.43612C60.6666 3.43612 62.1732 4.35242 62.8548 5.74449L61.5454 6.48458C61.097 5.55066 60.0926 4.93392 58.8908 4.93392C57.0972 4.93392 55.734 6.29075 55.734 8.07049C55.734 9.8326 57.0972 11.1894 58.8908 11.1894C60.1105 11.1894 61.097 10.5727 61.5993 9.65639L62.9266 10.4141C62.1732 11.7885 60.6486 12.7048 58.8908 12.7048Z" fill="#6B9AFF"></path>
<path d="M71.6957 12.4758H69.7586L65.669 8.29956V12.4758H64.1086V0.140968H65.669V7.55947L69.5433 3.6652H71.5522L67.2654 7.92952L71.6957 12.4758Z" fill="#6B9AFF"></path>
<path d="M76.8956 12.7225C74.1693 12.7225 72.1424 10.696 72.1424 8.07049C72.1424 5.44493 74.1693 3.4185 76.8956 3.4185C78.6355 3.4185 80.178 4.31718 80.9493 5.67401L78.5996 7.01322C78.2947 6.39648 77.6489 6.02643 76.8597 6.02643C75.6939 6.02643 74.8329 6.85463 74.8329 8.07049C74.8329 9.28634 75.6939 10.1145 76.8597 10.1145C77.6489 10.1145 78.3126 9.74449 78.5996 9.12775L80.9493 10.4493C80.178 11.8238 78.6534 12.7225 76.8956 12.7225Z" fill="#6B9AFF"></path>
<path d="M85.8029 12.7225C83.1663 12.7225 81.0498 10.696 81.0498 8.07049C81.0498 5.44493 83.1663 3.4185 85.8029 3.4185C88.4396 3.4185 90.5561 5.44493 90.5561 8.07049C90.5561 10.696 88.4396 12.7225 85.8029 12.7225ZM85.8029 10.1498C86.9688 10.1498 87.8656 9.32159 87.8656 8.07049C87.8656 6.81938 86.9688 5.99119 85.8029 5.99119C84.6371 5.99119 83.7402 6.81938 83.7402 8.07049C83.7402 9.32159 84.6371 10.1498 85.8029 10.1498Z" fill="#6B9AFF"></path>
<path d="M101.764 3.4185C103.826 3.4185 105.172 4.86344 105.172 7.06608V12.4758H102.481V7.29515C102.481 6.4141 102.051 5.85022 101.19 5.85022C100.293 5.85022 99.7906 6.46696 99.7906 7.50661V12.4758H97.1001V7.29515C97.1001 6.4141 96.6697 5.85022 95.8087 5.85022C94.9119 5.85022 94.4097 6.46696 94.4097 7.50661V12.4758H91.7192V3.6652H94.4097V4.47577C94.8222 3.87665 95.6114 3.4185 96.8132 3.4185C97.8714 3.4185 98.6606 3.84141 99.1628 4.5815C99.6651 3.87665 100.49 3.4185 101.764 3.4185Z" fill="#6B9AFF"></path>
<path d="M116.697 3.4185C118.759 3.4185 120.104 4.86344 120.104 7.06608V12.4758H117.414V7.29515C117.414 6.4141 116.983 5.85022 116.123 5.85022C115.226 5.85022 114.723 6.46696 114.723 7.50661V12.4758H112.033V7.29515C112.033 6.4141 111.603 5.85022 110.742 5.85022C109.845 5.85022 109.343 6.46696 109.343 7.50661V12.4758H106.652V3.6652H109.343V4.47577C109.755 3.87665 110.544 3.4185 111.746 3.4185C112.804 3.4185 113.593 3.84141 114.096 4.5815C114.598 3.87665 115.423 3.4185 116.697 3.4185Z" fill="#6B9AFF"></path>
<path d="M123.988 9.12775C124.329 10.0441 125.154 10.3612 126.141 10.3612C126.876 10.3612 127.504 10.0793 127.863 9.69163L130.015 10.9075C129.136 12.1057 127.809 12.7225 126.105 12.7225C123.038 12.7225 121.136 10.696 121.136 8.07049C121.136 5.44493 123.074 3.4185 125.908 3.4185C128.526 3.4185 130.463 5.40969 130.463 8.07049C130.463 8.44053 130.428 8.79295 130.356 9.12775H123.988ZM123.935 7.15418H127.791C127.504 6.13216 126.697 5.76211 125.89 5.76211C124.867 5.76211 124.186 6.25551 123.935 7.15418Z" fill="#6B9AFF"></path>
<path d="M134.321 5.23348C134.68 4.05286 135.882 3.48899 137.012 3.48899V6.48458C135.9 6.30837 134.321 6.7489 134.321 8.49339V12.4758H131.631V3.6652H134.321V5.23348Z" fill="#6B9AFF"></path>
<path d="M141.953 12.7225C139.226 12.7225 137.2 10.696 137.2 8.07049C137.2 5.44493 139.226 3.4185 141.953 3.4185C143.693 3.4185 145.235 4.31718 146.006 5.67401L143.657 7.01322C143.352 6.39648 142.706 6.02643 141.917 6.02643C140.751 6.02643 139.89 6.85463 139.89 8.07049C139.89 9.28634 140.751 10.1145 141.917 10.1145C142.706 10.1145 143.37 9.74449 143.657 9.12775L146.006 10.4493C145.235 11.8238 143.71 12.7225 141.953 12.7225Z" fill="#6B9AFF"></path>
<path d="M148.959 9.12775C149.3 10.0441 150.125 10.3612 151.111 10.3612C151.846 10.3612 152.474 10.0793 152.833 9.69163L154.985 10.9075C154.106 12.1057 152.779 12.7225 151.075 12.7225C148.008 12.7225 146.107 10.696 146.107 8.07049C146.107 5.44493 148.044 3.4185 150.878 3.4185C153.497 3.4185 155.434 5.40969 155.434 8.07049C155.434 8.44053 155.398 8.79295 155.326 9.12775H148.959ZM148.905 7.15418H152.761C152.474 6.13216 151.667 5.76211 150.86 5.76211C149.838 5.76211 149.156 6.25551 148.905 7.15418Z" fill="#6B9AFF"></path>
<defs>
<clipPath id="clip0_20051_18709">
<rect width="21.8338" height="15.57" fill="white" transform="translate(0 0.214844)"></rect>
</clipPath>
</defs>
</svg>