<svg width="278" height="20" viewBox="0 0 278 20" fill="none" xmlns="http://www.w3.org/2000/svg">
<path d="M159.928 5.6652H161.488V18H159.928V12.9604C159.21 14.0352 158.063 14.7048 156.538 14.7048C154.045 14.7048 152 12.6784 152 10.0705C152 7.46255 154.045 5.43612 156.538 5.43612C158.063 5.43612 159.21 6.10573 159.928 7.18062V5.6652ZM156.735 13.2247C158.547 13.2247 159.928 11.8678 159.928 10.0705C159.928 8.27313 158.547 6.9163 156.735 6.9163C154.942 6.9163 153.56 8.27313 153.56 10.0705C153.56 11.8678 154.942 13.2247 156.735 13.2247Z" fill="#6B9AFF"></path>
<path d="M169.682 5.6652H171.243V14.4758H169.682V13.207C169.018 14.2467 168.032 14.7048 166.776 14.7048C164.678 14.7048 163.297 13.3304 163.297 11.0749V5.6652H164.857V10.9868C164.857 12.4317 165.7 13.2423 167.081 13.2423C168.516 13.2423 169.682 12.4141 169.682 10.3348V5.6652Z" fill="#6B9AFF"></path>
<path d="M174.049 4.06167C173.457 4.06167 172.991 3.60352 172.991 3.03965C172.991 2.47577 173.457 2 174.049 2C174.623 2 175.089 2.47577 175.089 3.03965C175.089 3.60352 174.623 4.06167 174.049 4.06167ZM173.26 14.4758V5.6652H174.82V14.4758H173.26Z" fill="#6B9AFF"></path>
<path d="M181.057 14.7048C178.349 14.7048 176.34 12.6784 176.34 10.0705C176.34 7.46255 178.349 5.43612 181.057 5.43612C182.833 5.43612 184.339 6.35242 185.021 7.74449L183.712 8.48458C183.263 7.55066 182.259 6.93392 181.057 6.93392C179.263 6.93392 177.9 8.29075 177.9 10.0705C177.9 11.8326 179.263 13.1894 181.057 13.1894C182.277 13.1894 183.263 12.5727 183.765 11.6564L185.093 12.4141C184.339 13.7885 182.815 14.7048 181.057 14.7048Z" fill="#6B9AFF"></path>
<path d="M193.862 14.4758H191.925L187.835 10.2996V14.4758H186.275V2.14097H187.835V9.55947L191.71 5.6652H193.718L189.432 9.92952L193.862 14.4758Z" fill="#6B9AFF"></path>
<path d="M199.062 14.7225C196.335 14.7225 194.309 12.696 194.309 10.0705C194.309 7.44493 196.335 5.4185 199.062 5.4185C200.802 5.4185 202.344 6.31718 203.115 7.67401L200.766 9.01322C200.461 8.39648 199.815 8.02643 199.026 8.02643C197.86 8.02643 196.999 8.85463 196.999 10.0705C196.999 11.2863 197.86 12.1145 199.026 12.1145C199.815 12.1145 200.479 11.7445 200.766 11.1278L203.115 12.4493C202.344 13.8238 200.82 14.7225 199.062 14.7225Z" fill="#6B9AFF"></path>
<path d="M207.969 14.7225C205.332 14.7225 203.216 12.696 203.216 10.0705C203.216 7.44493 205.332 5.4185 207.969 5.4185C210.606 5.4185 212.722 7.44493 212.722 10.0705C212.722 12.696 210.606 14.7225 207.969 14.7225ZM207.969 12.1498C209.135 12.1498 210.032 11.3216 210.032 10.0705C210.032 8.81938 209.135 7.99119 207.969 7.99119C206.803 7.99119 205.906 8.81938 205.906 10.0705C205.906 11.3216 206.803 12.1498 207.969 12.1498Z" fill="#6B9AFF"></path>
<path d="M223.93 5.4185C225.993 5.4185 227.338 6.86344 227.338 9.06608V14.4758H224.647V9.29515C224.647 8.4141 224.217 7.85022 223.356 7.85022C222.459 7.85022 221.957 8.46696 221.957 9.50661V14.4758H219.266V9.29515C219.266 8.4141 218.836 7.85022 217.975 7.85022C217.078 7.85022 216.576 8.46696 216.576 9.50661V14.4758H213.885V5.6652H216.576V6.47577C216.988 5.87665 217.778 5.4185 218.979 5.4185C220.038 5.4185 220.827 5.84141 221.329 6.5815C221.831 5.87665 222.656 5.4185 223.93 5.4185Z" fill="#6B9AFF"></path>
<path d="M238.863 5.4185C240.925 5.4185 242.271 6.86344 242.271 9.06608V14.4758H239.58V9.29515C239.58 8.4141 239.15 7.85022 238.289 7.85022C237.392 7.85022 236.89 8.46696 236.89 9.50661V14.4758H234.199V9.29515C234.199 8.4141 233.769 7.85022 232.908 7.85022C232.011 7.85022 231.509 8.46696 231.509 9.50661V14.4758H228.818V5.6652H231.509V6.47577C231.921 5.87665 232.71 5.4185 233.912 5.4185C234.97 5.4185 235.76 5.84141 236.262 6.5815C236.764 5.87665 237.589 5.4185 238.863 5.4185Z" fill="#6B9AFF"></path>
<path d="M246.155 11.1278C246.495 12.0441 247.32 12.3612 248.307 12.3612C249.042 12.3612 249.67 12.0793 250.029 11.6916L252.181 12.9075C251.302 14.1057 249.975 14.7225 248.271 14.7225C245.204 14.7225 243.303 12.696 243.303 10.0705C243.303 7.44493 245.24 5.4185 248.074 5.4185C250.693 5.4185 252.63 7.40969 252.63 10.0705C252.63 10.4405 252.594 10.793 252.522 11.1278H246.155ZM246.101 9.15418H249.957C249.67 8.13216 248.863 7.76211 248.056 7.76211C247.033 7.76211 246.352 8.25551 246.101 9.15418Z" fill="#6B9AFF"></path>
<path d="M256.487 7.23348C256.846 6.05286 258.048 5.48899 259.178 5.48899V8.48458C258.066 8.30837 256.487 8.7489 256.487 10.4934V14.4758H253.797V5.6652H256.487V7.23348Z" fill="#6B9AFF"></path>
<path d="M264.119 14.7225C261.393 14.7225 259.366 12.696 259.366 10.0705C259.366 7.44493 261.393 5.4185 264.119 5.4185C265.859 5.4185 267.401 6.31718 268.173 7.67401L265.823 9.01322C265.518 8.39648 264.872 8.02643 264.083 8.02643C262.917 8.02643 262.056 8.85463 262.056 10.0705C262.056 11.2863 262.917 12.1145 264.083 12.1145C264.872 12.1145 265.536 11.7445 265.823 11.1278L268.173 12.4493C267.401 13.8238 265.877 14.7225 264.119 14.7225Z" fill="#6B9AFF"></path>
<path d="M271.125 11.1278C271.466 12.0441 272.291 12.3612 273.277 12.3612C274.013 12.3612 274.64 12.0793 274.999 11.6916L277.152 12.9075C276.273 14.1057 274.945 14.7225 273.241 14.7225C270.174 14.7225 268.273 12.696 268.273 10.0705C268.273 7.44493 270.21 5.4185 273.044 5.4185C275.663 5.4185 277.6 7.40969 277.6 10.0705C277.6 10.4405 277.564 10.793 277.492 11.1278H271.125ZM271.071 9.15418H274.927C274.64 8.13216 273.833 7.76211 273.026 7.76211C272.004 7.76211 271.322 8.25551 271.071 9.15418Z" fill="#6B9AFF"></path>
<path d="M141.711 14.3763V3.17383H143.303V14.3763H141.711Z" fill="#0052CC"></path>
<path d="M56.2169 13.1302C55.2318 13.1302 54.9319 12.8386 54.9307 11.8844V5.73226H59.6372V3.24065L56.4612 3.23821C56.2761 3.23821 56.1021 3.30776 55.9687 3.43466L54.9097 4.43887V0.213379L52.1534 2.65496V2.70377C52.1534 3.74581 52.1534 4.78906 52.1534 5.8311C52.1534 6.44851 52.1522 7.06592 52.1497 7.68333C52.1435 9.14145 52.1386 10.6484 52.1744 12.1309C52.2213 14.0624 53.8111 15.5999 55.7947 15.6304C56.2551 15.6377 56.718 15.6401 57.1796 15.6401C57.5845 15.6401 57.9881 15.6389 58.3844 15.6365L59.2595 15.634C59.3348 15.634 59.4064 15.6194 59.4706 15.6072C59.4965 15.6023 59.5212 15.5974 59.5459 15.5938L59.6397 15.5791V13.1314H56.2181L56.2169 13.1302Z" fill="#0052CC"></path>
<path d="M6.9444 0.0683035C5.02747 0.0658631 3.11177 0.0670833 1.19484 0.0683035H0.532001C0.436957 0.0683035 0.341912 0.0744044 0.244399 0.0817255L0 0.0951475V15.6354H2.24156C2.94267 15.6354 3.64007 15.6354 4.33624 15.6354C5.21015 15.6354 6.08036 15.6354 6.95181 15.6342C9.21435 15.6305 10.7968 14.0674 10.8005 11.8321C10.8054 9.2819 10.8042 6.43765 10.8005 3.88869C10.798 1.60695 9.24768 0.071964 6.9444 0.0683035ZM8.01457 12.0932C8.01457 12.7875 7.67019 13.1267 6.96415 13.1291C5.90509 13.1328 4.84479 13.1316 3.78572 13.1304H2.99081C2.92909 13.1304 2.86614 13.1255 2.79331 13.1206H2.77356V2.59408C2.77356 2.59408 2.7785 2.59408 2.78097 2.59408C2.8538 2.58432 2.92168 2.57456 2.9871 2.57456C4.31155 2.57212 5.636 2.56968 6.96045 2.57456C7.66772 2.577 8.0121 2.91499 8.01334 3.60683C8.01704 6.3376 8.01704 9.36365 8.01334 12.0944L8.01457 12.0932Z" fill="#0052CC"></path>
<path d="M34.8516 3.24064L34.3788 3.23698C33.832 3.2321 33.2667 3.22722 32.71 3.2504C32.4755 3.26016 32.2089 3.36144 32.0151 3.51396C31.7361 3.73237 31.4831 3.96787 31.1893 4.24119C31.1227 4.30342 31.0535 4.36809 30.9819 4.43276V3.25528H28.2417V19.9998H30.993V15.6352H32.1533C33.0643 15.6365 33.9518 15.6377 34.8393 15.6352C37.0623 15.6291 38.6497 14.1186 38.699 11.9613C38.7361 10.3531 38.7373 8.65947 38.699 6.92925C38.6534 4.80125 37.0351 3.2504 34.8516 3.24064ZM35.9131 12.2383C35.9082 12.7422 35.5453 13.1131 35.0516 13.1205C34.0826 13.1351 33.1309 13.1327 32.1249 13.129C31.7583 13.129 31.3905 13.1266 31.0177 13.1266V5.74445H33.8542C34.2023 5.74201 34.5504 5.74079 34.8985 5.74567C35.5268 5.75422 35.9057 6.09587 35.9119 6.65837C35.9341 8.41421 35.9341 10.2384 35.9119 12.237L35.9131 12.2383Z" fill="#0052CC"></path>
<path d="M130.703 9.67238C132.65 8.2948 133.564 6.28882 133.579 3.37014V3.26033H130.83L130.823 3.36282C130.729 4.75139 130.557 6.08017 129.522 7.07095C128.544 8.00683 127.291 8.25087 125.876 8.43268V0H123.144V15.6061H125.887V14.0382C125.89 13.1926 125.892 12.3177 125.881 11.4563C125.877 11.2049 125.921 11.1573 126.181 11.1342C126.78 11.0817 127.338 10.9877 127.838 10.8572C128.136 10.7791 128.231 10.8511 128.365 11.1073C129.09 12.4837 129.849 13.8722 130.581 15.2157L130.617 15.2803C130.739 15.5036 130.86 15.6183 130.98 15.622C131.482 15.6342 131.981 15.6366 132.493 15.6366C132.695 15.6366 132.9 15.6366 133.109 15.6366H133.937L130.702 9.67482L130.703 9.67238Z" fill="#0052CC"></path>
<path d="M46.7001 3.24078C45.43 3.23468 44.1598 3.23712 42.8897 3.23834H41.7837C41.6973 3.23956 41.6109 3.2481 41.522 3.25664C41.4825 3.2603 41.4418 3.26397 41.3998 3.26763L41.2974 3.27495V5.7446H42.9884C44.0895 5.7446 45.1893 5.74215 46.2903 5.74826C46.5409 5.74948 46.7902 5.77632 47.0284 5.82635C47.2185 5.86661 47.5481 5.99107 47.616 6.37177C47.6666 6.65851 47.6851 6.95013 47.7048 7.25762C47.711 7.35523 47.7172 7.45285 47.7246 7.5529C47.3173 7.5529 46.9173 7.5529 46.5211 7.55046C45.5497 7.54802 44.6326 7.54558 43.7006 7.55534C41.9059 7.57243 40.4654 8.71452 40.1149 10.3971C39.9989 10.956 39.9766 11.5929 40.047 12.4007C40.1865 14.0113 41.4307 15.3316 43.0057 15.5414C43.5735 15.6171 44.1536 15.6329 44.7264 15.6329C44.9399 15.6329 45.1535 15.6305 45.3645 15.6281C45.5917 15.6256 45.8237 15.6232 46.0471 15.6232C46.2421 15.6232 46.4878 15.5268 46.6717 15.3779C46.9544 15.1485 47.2148 14.9082 47.516 14.6287C47.5814 14.5677 47.6481 14.5055 47.7172 14.442V15.6122H50.4451L50.4574 15.5158C50.4611 15.4877 50.4648 15.4621 50.4685 15.4377C50.4772 15.3816 50.4846 15.3328 50.4846 15.2828C50.4846 14.4579 50.487 13.6331 50.4895 12.8082C50.4957 10.8486 50.5031 8.82189 50.4698 6.82934C50.4352 4.72574 48.8849 3.24932 46.7001 3.23956V3.24078ZM47.6839 10.064V13.1304H46.1224C45.3868 13.1304 44.6523 13.1316 43.9166 13.1304C43.1217 13.1279 42.7798 12.7875 42.7749 11.9907L42.7724 11.7552C42.7687 11.5014 42.7662 11.2391 42.7811 10.9841C42.8119 10.4582 43.1612 10.0836 43.6303 10.075C44.2178 10.0628 44.8128 10.0592 45.404 10.0592C45.8003 10.0592 46.1965 10.0604 46.5853 10.0616C46.9494 10.0628 47.316 10.064 47.6839 10.0653V10.064Z" fill="#0052CC"></path>
<path d="M107.241 3.24699C105.99 3.2299 104.719 3.23357 103.488 3.23845C102.986 3.23967 102.484 3.24211 101.981 3.24211C101.929 3.24211 101.876 3.25065 101.826 3.26041L101.675 3.28237V5.74592H102.987C104.203 5.7447 105.405 5.7447 106.607 5.74958C106.863 5.74958 107.112 5.77398 107.349 5.81913C107.738 5.89234 107.971 6.1376 108.021 6.52806C108.052 6.76843 108.062 7.01613 108.071 7.27847C108.075 7.36754 108.079 7.45905 108.082 7.55423H107.66C107.285 7.55423 106.906 7.55423 106.53 7.55179C105.695 7.54935 104.832 7.54691 103.982 7.56033C102.287 7.58839 100.858 8.7195 100.505 10.3131C100.374 10.9048 100.343 11.5869 100.41 12.3984C100.543 14.009 101.785 15.3317 103.364 15.5428C103.933 15.6184 104.515 15.6355 105.09 15.6355C105.302 15.6355 105.511 15.6331 105.72 15.6306C105.93 15.6282 106.141 15.6257 106.351 15.6257C106.369 15.6257 106.384 15.6221 106.407 15.6257C106.605 15.6257 106.851 15.5306 107.032 15.3829C107.315 15.1535 107.588 14.9009 107.875 14.6337C107.941 14.5727 108.008 14.5105 108.078 14.447V15.6001H110.835V15.4903C110.835 14.6057 110.839 13.7247 110.842 12.8462C110.851 10.8182 110.86 8.72194 110.82 6.66594C110.784 4.74415 109.245 3.27383 107.239 3.24699H107.241ZM108.053 10.0605V13.1305H105.339C104.952 13.1329 104.566 13.1341 104.18 13.1292C103.541 13.1207 103.162 12.7607 103.141 12.1409C103.127 11.7175 103.128 11.3466 103.144 11.0086C103.17 10.4534 103.535 10.0751 104.052 10.0678C104.621 10.0593 105.185 10.0568 105.757 10.0568C106.147 10.0568 106.541 10.0568 106.944 10.0593C107.311 10.0593 107.679 10.0617 108.052 10.0617L108.053 10.0605Z" fill="#0052CC"></path>
<path d="M24.0535 8.31815C23.2611 8.20834 22.4415 8.21688 21.6515 8.22542C21.3244 8.22908 20.9973 8.23274 20.669 8.22786C19.8568 8.21688 19.4791 7.81788 19.4778 6.97351C19.4766 6.16087 19.8703 5.74723 20.6492 5.74601C21.8366 5.74357 23.0241 5.74479 24.2115 5.74479H26.2605V3.26782L26.0655 3.25196C26.0001 3.24586 25.9408 3.24098 25.8816 3.24098H24.7164C23.303 3.23854 21.8441 3.23732 20.4073 3.24708C20.1061 3.24952 19.7753 3.29711 19.4531 3.38496C17.6374 3.88157 16.5043 5.63009 16.7573 7.5409C17.0054 9.41632 18.4706 10.6963 20.4011 10.7268C20.8134 10.7329 21.2256 10.7317 21.6379 10.7305C22.1712 10.728 22.7229 10.7268 23.2648 10.7427C23.5055 10.75 23.7709 10.8366 23.9424 10.9647C24.293 11.2271 24.4102 11.9384 24.1942 12.4875C24.0091 12.9561 23.719 13.1306 23.1216 13.1306C21.8342 13.1318 20.5468 13.1306 19.2569 13.1306H17.0894V15.6283H17.2005C17.8522 15.6283 18.5015 15.6319 19.1495 15.6356C19.7815 15.6392 20.4221 15.6429 21.0652 15.6429C21.9119 15.6429 22.7636 15.6368 23.6055 15.6148C25.394 15.5685 26.9332 14.075 27.0357 12.2862C27.1591 10.1435 25.989 8.58537 24.0548 8.31815H24.0535Z" fill="#0052CC"></path>
<path d="M69.9278 3.24188L68.5244 3.23944C67.311 3.237 66.0977 3.23578 64.8843 3.24066C62.7242 3.25042 61.1344 4.80615 61.1035 6.93903C61.0801 8.56675 61.0801 10.2457 61.1035 11.9284C61.1344 14.1027 62.7032 15.6267 64.9189 15.634C65.5262 15.6365 66.1335 15.6365 66.7408 15.6365C67.3481 15.6365 67.964 15.6365 68.575 15.6353H69.7069C69.7933 15.634 69.8797 15.6279 69.9698 15.6231L70.2056 15.6096V13.1302H68.2109C67.1493 13.1302 66.089 13.1302 65.0287 13.1302C64.2017 13.1302 63.8783 12.8179 63.8759 12.0211C63.8709 10.2079 63.8709 8.52161 63.8759 6.86704C63.8783 6.06172 64.1993 5.74691 65.0201 5.74569C66.11 5.74447 67.1999 5.74447 68.2899 5.74569H70.2142V3.27727L70.0377 3.25408C69.9908 3.24676 69.9587 3.2431 69.9278 3.2431V3.24188Z" fill="#0052CC"></path>
<path d="M121.132 3.24059H120.174C118.898 3.23815 117.62 3.23693 116.344 3.24059C114.126 3.24791 112.554 4.7707 112.524 6.94262C112.5 8.59841 112.5 10.2762 112.524 11.9319C112.554 14.1051 114.126 15.6267 116.343 15.634C116.961 15.6364 117.578 15.6364 118.197 15.6364C118.876 15.6364 119.554 15.6364 120.233 15.6352H121.131C121.217 15.6352 121.303 15.6279 121.394 15.6218L121.626 15.6084V13.1302H119.647C118.566 13.1302 117.484 13.1314 116.403 13.1302C115.632 13.1289 115.301 12.808 115.298 12.0601C115.292 10.4482 115.292 8.74849 115.298 6.86331C115.301 6.06043 115.623 5.74807 116.446 5.74563C117.536 5.7444 118.626 5.7444 119.716 5.74563H121.634V3.26744L121.397 3.25279C121.305 3.24669 121.218 3.24059 121.132 3.24059Z" fill="#0052CC"></path>
<path d="M92.3855 0.0170898H82.3664V2.49528H85.9978V15.6122H88.7701V2.49162H92.3855V0.0170898Z" fill="#0052CC"></path>
<path d="M99.2187 3.24066C98.2214 3.23944 97.2241 3.23944 96.2267 3.24066C93.8284 3.2431 92.278 4.77931 92.2743 7.15623C92.2719 9.33791 92.2731 11.5196 92.2743 13.7013V15.0557C92.2743 15.1582 92.2817 15.2607 92.2879 15.3668L92.3015 15.6218H95.0516V12.5885C95.0516 10.735 95.0516 8.88278 95.0516 7.02933C95.0516 6.01047 95.3145 5.74569 96.3316 5.74569H97.2031C97.882 5.74569 98.5596 5.74569 99.2373 5.74569C99.3323 5.74569 99.4273 5.73959 99.5261 5.73227L99.7643 5.71763V3.26629L99.5076 3.25286C99.4076 3.24676 99.3126 3.24188 99.2187 3.24188V3.24066Z" fill="#0052CC"></path>
<path d="M15.2528 4.22559H12.5385V15.6209H15.2528V4.22559Z" fill="#0052CC"></path>
<path d="M15.2528 0.0766602H12.5385V2.65735H15.2528V0.0766602Z" fill="#F27B42"></path>
<path d="M82.5626 7.7934C82.5244 5.90944 81.2357 4.49525 79.3534 4.27317C78.6152 4.18654 77.8561 4.2024 77.1217 4.21949C76.8649 4.22559 76.607 4.23047 76.3502 4.23291C76.1934 4.23291 76.0404 4.35127 75.9231 4.45376C75.6454 4.69902 75.3726 4.95038 75.0677 5.23224L74.9369 5.35182V6.72818H78.5572C79.4867 6.72818 79.8002 7.04299 79.8002 7.97399C79.8002 9.84819 79.8002 10.745 79.8002 12.618V15.6123H82.5046L82.5306 15.5391C82.5367 15.522 82.5429 15.5074 82.5478 15.4952C82.5602 15.4659 82.5738 15.4354 82.5738 15.3964C82.5738 14.5617 82.5787 13.7259 82.5824 12.8901C82.591 10.8988 82.6009 9.81646 82.5602 7.79096L82.5626 7.7934Z" fill="#0052CC"></path>
<path d="M74.938 0.213379H72.1249V15.6401H74.938V0.213379Z" fill="#0052CC"></path>
</svg>