<svg width="169" height="20" viewBox="0 0 169 20" fill="none" xmlns="http://www.w3.org/2000/svg">
<path d="M30 14.3763V3.17383H31.5919V14.3763H30Z" fill="#0052CC"></path>
<path d="M50.9279 3.6652H52.4884V16H50.9279V10.9604C50.2105 12.0352 49.0625 12.7048 47.5379 12.7048C45.0448 12.7048 43 10.6784 43 8.07049C43 5.46255 45.0448 3.43612 47.5379 3.43612C49.0625 3.43612 50.2105 4.10573 50.9279 5.18062V3.6652ZM47.7352 11.2247C49.5468 11.2247 50.9279 9.86784 50.9279 8.07049C50.9279 6.27313 49.5468 4.9163 47.7352 4.9163C45.9416 4.9163 44.5605 6.27313 44.5605 8.07049C44.5605 9.86784 45.9416 11.2247 47.7352 11.2247Z" fill="#6B9AFF"></path>
<path d="M60.6821 3.6652H62.2425V12.4758H60.6821V11.207C60.0184 12.2467 59.0319 12.7048 57.7763 12.7048C55.6778 12.7048 54.2967 11.3304 54.2967 9.07489V3.6652H55.8571V8.98678C55.8571 10.4317 56.7001 11.2423 58.0813 11.2423C59.5162 11.2423 60.6821 10.4141 60.6821 8.3348V3.6652Z" fill="#6B9AFF"></path>
<path d="M65.0488 2.06167C64.4569 2.06167 63.9905 1.60352 63.9905 1.03965C63.9905 0.47577 64.4569 0 65.0488 0C65.6227 0 66.0891 0.47577 66.0891 1.03965C66.0891 1.60352 65.6227 2.06167 65.0488 2.06167ZM64.2596 12.4758V3.6652H65.82V12.4758H64.2596Z" fill="#6B9AFF"></path>
<path d="M72.057 12.7048C69.3486 12.7048 67.3397 10.6784 67.3397 8.07049C67.3397 5.46255 69.3486 3.43612 72.057 3.43612C73.8328 3.43612 75.3394 4.35242 76.021 5.74449L74.7116 6.48458C74.2632 5.55066 73.2588 4.93392 72.057 4.93392C70.2634 4.93392 68.9002 6.29075 68.9002 8.07049C68.9002 9.8326 70.2634 11.1894 72.057 11.1894C73.2767 11.1894 74.2632 10.5727 74.7655 9.65639L76.0928 10.4141C75.3394 11.7885 73.8148 12.7048 72.057 12.7048Z" fill="#6B9AFF"></path>
<path d="M84.8619 12.4758H82.9248L78.8352 8.29956V12.4758H77.2748V0.140968H78.8352V7.55947L82.7095 3.6652H84.7184L80.4316 7.92952L84.8619 12.4758Z" fill="#6B9AFF"></path>
<path d="M90.0618 12.7225C87.3355 12.7225 85.3086 10.696 85.3086 8.07049C85.3086 5.44493 87.3355 3.4185 90.0618 3.4185C91.8017 3.4185 93.3442 4.31718 94.1155 5.67401L91.7658 7.01322C91.4609 6.39648 90.8151 6.02643 90.0259 6.02643C88.8601 6.02643 87.9991 6.85463 87.9991 8.07049C87.9991 9.28634 88.8601 10.1145 90.0259 10.1145C90.8151 10.1145 91.4788 9.74449 91.7658 9.12775L94.1155 10.4493C93.3442 11.8238 91.8196 12.7225 90.0618 12.7225Z" fill="#6B9AFF"></path>
<path d="M98.9691 12.7225C96.3325 12.7225 94.216 10.696 94.216 8.07049C94.216 5.44493 96.3325 3.4185 98.9691 3.4185C101.606 3.4185 103.722 5.44493 103.722 8.07049C103.722 10.696 101.606 12.7225 98.9691 12.7225ZM98.9691 10.1498C100.135 10.1498 101.032 9.32159 101.032 8.07049C101.032 6.81938 100.135 5.99119 98.9691 5.99119C97.8033 5.99119 96.9064 6.81938 96.9064 8.07049C96.9064 9.32159 97.8033 10.1498 98.9691 10.1498Z" fill="#6B9AFF"></path>
<path d="M114.93 3.4185C116.993 3.4185 118.338 4.86344 118.338 7.06608V12.4758H115.647V7.29515C115.647 6.4141 115.217 5.85022 114.356 5.85022C113.459 5.85022 112.957 6.46696 112.957 7.50661V12.4758H110.266V7.29515C110.266 6.4141 109.836 5.85022 108.975 5.85022C108.078 5.85022 107.576 6.46696 107.576 7.50661V12.4758H104.885V3.6652H107.576V4.47577C107.988 3.87665 108.778 3.4185 109.979 3.4185C111.038 3.4185 111.827 3.84141 112.329 4.5815C112.831 3.87665 113.656 3.4185 114.93 3.4185Z" fill="#6B9AFF"></path>
<path d="M129.863 3.4185C131.925 3.4185 133.271 4.86344 133.271 7.06608V12.4758H130.58V7.29515C130.58 6.4141 130.15 5.85022 129.289 5.85022C128.392 5.85022 127.89 6.46696 127.89 7.50661V12.4758H125.199V7.29515C125.199 6.4141 124.769 5.85022 123.908 5.85022C123.011 5.85022 122.509 6.46696 122.509 7.50661V12.4758H119.818V3.6652H122.509V4.47577C122.921 3.87665 123.71 3.4185 124.912 3.4185C125.97 3.4185 126.76 3.84141 127.262 4.5815C127.764 3.87665 128.589 3.4185 129.863 3.4185Z" fill="#6B9AFF"></path>
<path d="M137.155 9.12775C137.495 10.0441 138.32 10.3612 139.307 10.3612C140.042 10.3612 140.67 10.0793 141.029 9.69163L143.181 10.9075C142.302 12.1057 140.975 12.7225 139.271 12.7225C136.204 12.7225 134.303 10.696 134.303 8.07049C134.303 5.44493 136.24 3.4185 139.074 3.4185C141.693 3.4185 143.63 5.40969 143.63 8.07049C143.63 8.44053 143.594 8.79295 143.522 9.12775H137.155ZM137.101 7.15418H140.957C140.67 6.13216 139.863 5.76211 139.056 5.76211C138.033 5.76211 137.352 6.25551 137.101 7.15418Z" fill="#6B9AFF"></path>
<path d="M147.487 5.23348C147.846 4.05286 149.048 3.48899 150.178 3.48899V6.48458C149.066 6.30837 147.487 6.7489 147.487 8.49339V12.4758H144.797V3.6652H147.487V5.23348Z" fill="#6B9AFF"></path>
<path d="M155.119 12.7225C152.393 12.7225 150.366 10.696 150.366 8.07049C150.366 5.44493 152.393 3.4185 155.119 3.4185C156.859 3.4185 158.401 4.31718 159.173 5.67401L156.823 7.01322C156.518 6.39648 155.872 6.02643 155.083 6.02643C153.917 6.02643 153.056 6.85463 153.056 8.07049C153.056 9.28634 153.917 10.1145 155.083 10.1145C155.872 10.1145 156.536 9.74449 156.823 9.12775L159.173 10.4493C158.401 11.8238 156.877 12.7225 155.119 12.7225Z" fill="#6B9AFF"></path>
<path d="M162.125 9.12775C162.466 10.0441 163.291 10.3612 164.277 10.3612C165.013 10.3612 165.64 10.0793 165.999 9.69163L168.152 10.9075C167.273 12.1057 165.945 12.7225 164.241 12.7225C161.174 12.7225 159.273 10.696 159.273 8.07049C159.273 5.44493 161.21 3.4185 164.044 3.4185C166.663 3.4185 168.6 5.40969 168.6 8.07049C168.6 8.44053 168.564 8.79295 168.492 9.12775H162.125ZM162.071 7.15418H165.927C165.64 6.13216 164.833 5.76211 164.026 5.76211C163.004 5.76211 162.322 6.25551 162.071 7.15418Z" fill="#6B9AFF"></path>
<g clip-path="url(#clip0_20051_18930)">
<path d="M6.84347 0.0514435C4.95562 0.0477561 3.06777 0.0514435 1.17808 0.0514435H0.523596C0.429572 0.0514435 0.337392 0.0588183 0.239681 0.0643494L-0.00183105 0.0790989V15.5698H2.20681C2.89816 15.5698 3.58582 15.5698 4.27164 15.5698C5.1326 15.5698 5.98988 15.5698 6.849 15.5698C9.07792 15.5661 10.6376 14.0082 10.6413 11.7792C10.645 9.23673 10.645 6.40297 10.6413 3.86052C10.6376 1.5854 9.1111 0.0551309 6.84162 0.0514435H6.84347ZM7.89801 12.0391C7.89801 12.7324 7.55879 13.0698 6.8619 13.0716C5.81842 13.0753 4.7731 13.0735 3.72962 13.0716H2.94609C2.88525 13.0716 2.82257 13.0661 2.75251 13.0624H2.73408V2.56993C2.73408 2.56993 2.73961 2.56993 2.74145 2.56993C2.81335 2.56071 2.87972 2.55149 2.94425 2.55149C4.24952 2.54965 5.55479 2.54781 6.85822 2.55149C7.5551 2.55334 7.89432 2.89073 7.89617 3.58027C7.89985 6.30341 7.89985 9.31785 7.89617 12.041L7.89801 12.0391Z" fill="#0052CC"></path>
<path d="M21.8338 0H11.9613V2.47055H15.5397V15.546H18.272V2.46686H21.8338V0Z" fill="#0052CC"></path>
</g>
<defs>
<clipPath id="clip0_20051_18930">
<rect width="21.8338" height="15.57" fill="white"></rect>
</clipPath>
</defs>
</svg>