<svg width="146" height="20" viewBox="0 0 146 20" fill="none" xmlns="http://www.w3.org/2000/svg">
<g clip-path="url(#clip0_20051_18680)">
<path d="M6.84347 0.0514435C4.95562 0.0477561 3.06777 0.0514435 1.17808 0.0514435H0.523596C0.429572 0.0514435 0.337392 0.0588183 0.239681 0.0643494L-0.00183105 0.0790989V15.5698H2.20681C2.89816 15.5698 3.58582 15.5698 4.27164 15.5698C5.1326 15.5698 5.98988 15.5698 6.849 15.5698C9.07792 15.5661 10.6376 14.0082 10.6413 11.7792C10.645 9.23673 10.645 6.40297 10.6413 3.86052C10.6376 1.5854 9.1111 0.0551309 6.84162 0.0514435H6.84347ZM7.89801 12.0391C7.89801 12.7324 7.55879 13.0698 6.8619 13.0716C5.81842 13.0753 4.7731 13.0735 3.72962 13.0716H2.94609C2.88525 13.0716 2.82257 13.0661 2.75251 13.0624H2.73408V2.56993C2.73408 2.56993 2.73961 2.56993 2.74145 2.56993C2.81335 2.56071 2.87972 2.55149 2.94425 2.55149C4.24952 2.54965 5.55479 2.54781 6.85822 2.55149C7.5551 2.55334 7.89432 2.89073 7.89617 3.58027C7.89985 6.30341 7.89985 9.31785 7.89617 12.041L7.89801 12.0391Z" fill="white"></path>
<path d="M21.8338 0H11.9613V2.47055H15.5397V15.546H18.272V2.46686H21.8338V0Z" fill="white"></path>
</g>
<path d="M35.5218 4.43333C36.9644 4.43333 38.194 4.95771 39.2107 6.00645C40.2274 7.04158 40.7358 8.30824 40.7358 9.80645C40.7358 11.3047 40.2274 12.5781 39.2107 13.6269C38.194 14.662 36.9644 15.1796 35.5218 15.1796C33.8181 15.1796 32.5198 14.5054 31.6268 13.157V19H29.8338V4.69893H31.6268V6.45591C32.5198 5.10753 33.8181 4.43333 35.5218 4.43333ZM35.2951 13.4634C36.3255 13.4634 37.1911 13.1161 37.8918 12.4215C38.5925 11.7133 38.9428 10.8416 38.9428 9.80645C38.9428 8.77133 38.5925 7.90645 37.8918 7.21183C37.1911 6.50358 36.3255 6.14946 35.2951 6.14946C34.2509 6.14946 33.3785 6.50358 32.6778 7.21183C31.9771 7.90645 31.6268 8.77133 31.6268 9.80645C31.6268 10.8416 31.9771 11.7133 32.6778 12.4215C33.3785 13.1161 34.2509 13.4634 35.2951 13.4634Z" fill="#47D09A"></path>
<path d="M42.8752 14.914V0H44.6681V14.914H42.8752Z" fill="#47D09A"></path>
<path d="M55.9354 4.69893H57.7284V14.914H55.9354V13.157C55.0424 14.5054 53.744 15.1796 52.0404 15.1796C50.5978 15.1796 49.3682 14.662 48.3515 13.6269C47.3348 12.5781 46.8264 11.3047 46.8264 9.80645C46.8264 8.30824 47.3348 7.04158 48.3515 6.00645C49.3682 4.95771 50.5978 4.43333 52.0404 4.43333C53.744 4.43333 55.0424 5.10753 55.9354 6.45591V4.69893ZM52.2671 13.4634C53.3113 13.4634 54.1837 13.1161 54.8844 12.4215C55.5851 11.7133 55.9354 10.8416 55.9354 9.80645C55.9354 8.77133 55.5851 7.90645 54.8844 7.21183C54.1837 6.50358 53.3113 6.14946 52.2671 6.14946C51.2367 6.14946 50.3711 6.50358 49.6704 7.21183C48.9697 7.90645 48.6194 8.77133 48.6194 9.80645C48.6194 10.8416 48.9697 11.7133 49.6704 12.4215C50.3711 13.1161 51.2367 13.4634 52.2671 13.4634Z" fill="#47D09A"></path>
<path d="M65.5764 4.43333C66.7854 4.43333 67.7541 4.8147 68.4822 5.57742C69.2104 6.32652 69.5745 7.34803 69.5745 8.64194V14.914H67.7815V8.74409C67.7815 7.91326 67.5548 7.27312 67.1014 6.82366C66.6481 6.36057 66.0229 6.12903 65.2261 6.12903C64.333 6.12903 63.6117 6.40824 63.0622 6.96667C62.5126 7.51147 62.2378 8.35591 62.2378 9.5V14.914H60.4449V4.69893H62.2378V6.16989C62.966 5.01219 64.0788 4.43333 65.5764 4.43333Z" fill="#47D09A"></path>
<path d="M77.209 4.43333C78.4181 4.43333 79.3867 4.8147 80.1148 5.57742C80.843 6.32652 81.2071 7.34803 81.2071 8.64194V14.914H79.4141V8.74409C79.4141 7.91326 79.1874 7.27312 78.7341 6.82366C78.2807 6.36057 77.6555 6.12903 76.8587 6.12903C75.9656 6.12903 75.2443 6.40824 74.6948 6.96667C74.1452 7.51147 73.8704 8.35591 73.8704 9.5V14.914H72.0775V4.69893H73.8704V6.16989C74.5986 5.01219 75.7115 4.43333 77.209 4.43333Z" fill="#47D09A"></path>
<path d="M84.9672 10.6237C85.1458 11.5362 85.5648 12.2444 86.2243 12.7484C86.8975 13.2523 87.7219 13.5043 88.6974 13.5043C90.0575 13.5043 91.0467 13.0072 91.665 12.0129L93.19 12.871C92.1871 14.41 90.6758 15.1796 88.6561 15.1796C87.0212 15.1796 85.6885 14.6756 84.6581 13.6677C83.6414 12.6462 83.133 11.3591 83.133 9.80645C83.133 8.26738 83.6345 6.9871 84.6375 5.96559C85.6404 4.94409 86.9388 4.43333 88.5325 4.43333C90.0438 4.43333 91.2734 4.96452 92.2214 6.02688C93.1832 7.07563 93.664 8.34229 93.664 9.82688C93.664 10.0857 93.6434 10.3513 93.6022 10.6237H84.9672ZM88.5325 6.1086C87.5708 6.1086 86.7739 6.381 86.1419 6.92581C85.5099 7.45699 85.1183 8.17204 84.9672 9.07097H91.8505C91.6994 8.10394 91.3147 7.36846 90.6964 6.86452C90.0781 6.36057 89.3568 6.1086 88.5325 6.1086Z" fill="#47D09A"></path>
<path d="M97.518 6.41505C98.1088 5.14839 99.1805 4.51505 100.733 4.51505V6.37419C99.8537 6.33333 99.098 6.56487 98.466 7.06882C97.834 7.57276 97.518 8.38315 97.518 9.5V14.914H95.7251V4.69893H97.518V6.41505Z" fill="#47D09A"></path>
<path d="M108.423 4.4129C109.783 4.4129 110.944 4.93728 111.905 5.98602C112.867 7.02115 113.348 8.29462 113.348 9.80645C113.348 11.3183 112.867 12.5986 111.905 13.6473C110.944 14.6824 109.783 15.2 108.423 15.2C107.104 15.2 106.08 14.7846 105.352 13.9538V19H102.261V4.69893H105.352V5.65914C106.08 4.82832 107.104 4.4129 108.423 4.4129ZM106.032 11.6247C106.499 12.0742 107.09 12.2989 107.804 12.2989C108.519 12.2989 109.103 12.0742 109.556 11.6247C110.023 11.1753 110.257 10.5692 110.257 9.80645C110.257 9.04373 110.023 8.43763 109.556 7.98817C109.103 7.53871 108.519 7.31398 107.804 7.31398C107.09 7.31398 106.499 7.53871 106.032 7.98817C105.579 8.43763 105.352 9.04373 105.352 9.80645C105.352 10.5692 105.579 11.1753 106.032 11.6247Z" fill="#47D09A"></path>
<path d="M118.192 6.5172C118.384 5.86344 118.769 5.36631 119.346 5.02581C119.937 4.67168 120.583 4.49462 121.283 4.49462V7.96774C120.528 7.84516 119.82 7.97455 119.161 8.35591C118.515 8.72366 118.192 9.37061 118.192 10.2968V14.914H115.101V4.69893H118.192V6.5172Z" fill="#47D09A"></path>
<path d="M131.247 13.6473C130.189 14.6824 128.898 15.2 127.373 15.2C125.847 15.2 124.556 14.6824 123.498 13.6473C122.44 12.5986 121.911 11.3183 121.911 9.80645C121.911 8.29462 122.44 7.02115 123.498 5.98602C124.556 4.93728 125.847 4.4129 127.373 4.4129C128.898 4.4129 130.189 4.93728 131.247 5.98602C132.305 7.02115 132.834 8.29462 132.834 9.80645C132.834 11.3183 132.305 12.5986 131.247 13.6473ZM125.683 11.543C126.136 11.9925 126.699 12.2172 127.373 12.2172C128.046 12.2172 128.609 11.9925 129.062 11.543C129.516 11.0935 129.743 10.5147 129.743 9.80645C129.743 9.09821 129.516 8.51935 129.062 8.06989C128.609 7.62043 128.046 7.3957 127.373 7.3957C126.699 7.3957 126.136 7.62043 125.683 8.06989C125.229 8.51935 125.003 9.09821 125.003 9.80645C125.003 10.5147 125.229 11.0935 125.683 11.543Z" fill="#47D09A"></path>
<defs>
<clipPath id="clip0_20051_18680">
<rect width="21.8338" height="15.57" fill="white"></rect>
</clipPath>
</defs>
</svg>