<svg width="255" height="20" viewBox="0 0 255 20" fill="none" xmlns="http://www.w3.org/2000/svg">
<path d="M141.711 14.3763V3.17383H143.303V14.3763H141.711Z" fill="#0052CC"></path>
<path d="M56.2169 13.1302C55.2318 13.1302 54.9319 12.8386 54.9307 11.8844V5.73226H59.6372V3.24065L56.4612 3.23821C56.2761 3.23821 56.1021 3.30776 55.9687 3.43466L54.9097 4.43887V0.213379L52.1534 2.65496V2.70377C52.1534 3.74581 52.1534 4.78906 52.1534 5.8311C52.1534 6.44851 52.1522 7.06592 52.1497 7.68333C52.1435 9.14145 52.1386 10.6484 52.1744 12.1309C52.2213 14.0624 53.8111 15.5999 55.7947 15.6304C56.2551 15.6377 56.718 15.6401 57.1796 15.6401C57.5845 15.6401 57.9881 15.6389 58.3844 15.6365L59.2595 15.634C59.3348 15.634 59.4064 15.6194 59.4706 15.6072C59.4965 15.6023 59.5212 15.5974 59.5459 15.5938L59.6397 15.5791V13.1314H56.2181L56.2169 13.1302Z" fill="#0052CC"></path>
<path d="M6.9444 0.0683035C5.02747 0.0658631 3.11177 0.0670833 1.19484 0.0683035H0.532001C0.436957 0.0683035 0.341912 0.0744044 0.244399 0.0817255L0 0.0951475V15.6354H2.24156C2.94267 15.6354 3.64007 15.6354 4.33624 15.6354C5.21015 15.6354 6.08036 15.6354 6.95181 15.6342C9.21435 15.6305 10.7968 14.0674 10.8005 11.8321C10.8054 9.2819 10.8042 6.43765 10.8005 3.88869C10.798 1.60695 9.24768 0.071964 6.9444 0.0683035ZM8.01457 12.0932C8.01457 12.7875 7.67019 13.1267 6.96415 13.1291C5.90509 13.1328 4.84479 13.1316 3.78572 13.1304H2.99081C2.92909 13.1304 2.86614 13.1255 2.79331 13.1206H2.77356V2.59408C2.77356 2.59408 2.7785 2.59408 2.78097 2.59408C2.8538 2.58432 2.92168 2.57456 2.9871 2.57456C4.31155 2.57212 5.636 2.56968 6.96045 2.57456C7.66772 2.577 8.0121 2.91499 8.01334 3.60683C8.01704 6.3376 8.01704 9.36365 8.01334 12.0944L8.01457 12.0932Z" fill="#0052CC"></path>
<path d="M34.8516 3.24064L34.3788 3.23698C33.832 3.2321 33.2667 3.22722 32.71 3.2504C32.4755 3.26016 32.2089 3.36144 32.0151 3.51396C31.7361 3.73237 31.4831 3.96787 31.1893 4.24119C31.1227 4.30342 31.0535 4.36809 30.9819 4.43276V3.25528H28.2417V19.9998H30.993V15.6352H32.1533C33.0643 15.6365 33.9518 15.6377 34.8393 15.6352C37.0623 15.6291 38.6497 14.1186 38.699 11.9613C38.7361 10.3531 38.7373 8.65947 38.699 6.92925C38.6534 4.80125 37.0351 3.2504 34.8516 3.24064ZM35.9131 12.2383C35.9082 12.7422 35.5453 13.1131 35.0516 13.1205C34.0826 13.1351 33.1309 13.1327 32.1249 13.129C31.7583 13.129 31.3905 13.1266 31.0177 13.1266V5.74445H33.8542C34.2023 5.74201 34.5504 5.74079 34.8985 5.74567C35.5268 5.75422 35.9057 6.09587 35.9119 6.65837C35.9341 8.41421 35.9341 10.2384 35.9119 12.237L35.9131 12.2383Z" fill="#0052CC"></path>
<path d="M130.703 9.67238C132.65 8.2948 133.564 6.28882 133.579 3.37014V3.26033H130.83L130.823 3.36282C130.729 4.75139 130.557 6.08017 129.522 7.07095C128.544 8.00683 127.291 8.25087 125.876 8.43268V0H123.144V15.6061H125.887V14.0382C125.89 13.1926 125.892 12.3177 125.881 11.4563C125.877 11.2049 125.921 11.1573 126.181 11.1342C126.78 11.0817 127.338 10.9877 127.838 10.8572C128.136 10.7791 128.231 10.8511 128.365 11.1073C129.09 12.4837 129.849 13.8722 130.581 15.2157L130.617 15.2803C130.739 15.5036 130.86 15.6183 130.98 15.622C131.482 15.6342 131.981 15.6366 132.493 15.6366C132.695 15.6366 132.9 15.6366 133.109 15.6366H133.937L130.702 9.67482L130.703 9.67238Z" fill="#0052CC"></path>
<path d="M46.7001 3.24078C45.43 3.23468 44.1598 3.23712 42.8897 3.23834H41.7837C41.6973 3.23956 41.6109 3.2481 41.522 3.25664C41.4825 3.2603 41.4418 3.26397 41.3998 3.26763L41.2974 3.27495V5.7446H42.9884C44.0895 5.7446 45.1893 5.74215 46.2903 5.74826C46.5409 5.74948 46.7902 5.77632 47.0284 5.82635C47.2185 5.86661 47.5481 5.99107 47.616 6.37177C47.6666 6.65851 47.6851 6.95013 47.7048 7.25762C47.711 7.35523 47.7172 7.45285 47.7246 7.5529C47.3173 7.5529 46.9173 7.5529 46.5211 7.55046C45.5497 7.54802 44.6326 7.54558 43.7006 7.55534C41.9059 7.57243 40.4654 8.71452 40.1149 10.3971C39.9989 10.956 39.9766 11.5929 40.047 12.4007C40.1865 14.0113 41.4307 15.3316 43.0057 15.5414C43.5735 15.6171 44.1536 15.6329 44.7264 15.6329C44.9399 15.6329 45.1535 15.6305 45.3645 15.6281C45.5917 15.6256 45.8237 15.6232 46.0471 15.6232C46.2421 15.6232 46.4878 15.5268 46.6717 15.3779C46.9544 15.1485 47.2148 14.9082 47.516 14.6287C47.5814 14.5677 47.6481 14.5055 47.7172 14.442V15.6122H50.4451L50.4574 15.5158C50.4611 15.4877 50.4648 15.4621 50.4685 15.4377C50.4772 15.3816 50.4846 15.3328 50.4846 15.2828C50.4846 14.4579 50.487 13.6331 50.4895 12.8082C50.4957 10.8486 50.5031 8.82189 50.4698 6.82934C50.4352 4.72574 48.8849 3.24932 46.7001 3.23956V3.24078ZM47.6839 10.064V13.1304H46.1224C45.3868 13.1304 44.6523 13.1316 43.9166 13.1304C43.1217 13.1279 42.7798 12.7875 42.7749 11.9907L42.7724 11.7552C42.7687 11.5014 42.7662 11.2391 42.7811 10.9841C42.8119 10.4582 43.1612 10.0836 43.6303 10.075C44.2178 10.0628 44.8128 10.0592 45.404 10.0592C45.8003 10.0592 46.1965 10.0604 46.5853 10.0616C46.9494 10.0628 47.316 10.064 47.6839 10.0653V10.064Z" fill="#0052CC"></path>
<path d="M107.241 3.24699C105.99 3.2299 104.719 3.23357 103.488 3.23845C102.986 3.23967 102.484 3.24211 101.981 3.24211C101.929 3.24211 101.876 3.25065 101.826 3.26041L101.675 3.28237V5.74592H102.987C104.203 5.7447 105.405 5.7447 106.607 5.74958C106.863 5.74958 107.112 5.77398 107.349 5.81913C107.738 5.89234 107.971 6.1376 108.021 6.52806C108.052 6.76843 108.062 7.01613 108.071 7.27847C108.075 7.36754 108.079 7.45905 108.082 7.55423H107.66C107.285 7.55423 106.906 7.55423 106.53 7.55179C105.695 7.54935 104.832 7.54691 103.982 7.56033C102.287 7.58839 100.858 8.7195 100.505 10.3131C100.374 10.9048 100.343 11.5869 100.41 12.3984C100.543 14.009 101.785 15.3317 103.364 15.5428C103.933 15.6184 104.515 15.6355 105.09 15.6355C105.302 15.6355 105.511 15.6331 105.72 15.6306C105.93 15.6282 106.141 15.6257 106.351 15.6257C106.369 15.6257 106.384 15.6221 106.407 15.6257C106.605 15.6257 106.851 15.5306 107.032 15.3829C107.315 15.1535 107.588 14.9009 107.875 14.6337C107.941 14.5727 108.008 14.5105 108.078 14.447V15.6001H110.835V15.4903C110.835 14.6057 110.839 13.7247 110.842 12.8462C110.851 10.8182 110.86 8.72194 110.82 6.66594C110.784 4.74415 109.245 3.27383 107.239 3.24699H107.241ZM108.053 10.0605V13.1305H105.339C104.952 13.1329 104.566 13.1341 104.18 13.1292C103.541 13.1207 103.162 12.7607 103.141 12.1409C103.127 11.7175 103.128 11.3466 103.144 11.0086C103.17 10.4534 103.535 10.0751 104.052 10.0678C104.621 10.0593 105.185 10.0568 105.757 10.0568C106.147 10.0568 106.541 10.0568 106.944 10.0593C107.311 10.0593 107.679 10.0617 108.052 10.0617L108.053 10.0605Z" fill="#0052CC"></path>
<path d="M24.0535 8.31815C23.2611 8.20834 22.4415 8.21688 21.6515 8.22542C21.3244 8.22908 20.9973 8.23274 20.669 8.22786C19.8568 8.21688 19.4791 7.81788 19.4778 6.97351C19.4766 6.16087 19.8703 5.74723 20.6492 5.74601C21.8366 5.74357 23.0241 5.74479 24.2115 5.74479H26.2605V3.26782L26.0655 3.25196C26.0001 3.24586 25.9408 3.24098 25.8816 3.24098H24.7164C23.303 3.23854 21.8441 3.23732 20.4073 3.24708C20.1061 3.24952 19.7753 3.29711 19.4531 3.38496C17.6374 3.88157 16.5043 5.63009 16.7573 7.5409C17.0054 9.41632 18.4706 10.6963 20.4011 10.7268C20.8134 10.7329 21.2256 10.7317 21.6379 10.7305C22.1712 10.728 22.7229 10.7268 23.2648 10.7427C23.5055 10.75 23.7709 10.8366 23.9424 10.9647C24.293 11.2271 24.4102 11.9384 24.1942 12.4875C24.0091 12.9561 23.719 13.1306 23.1216 13.1306C21.8342 13.1318 20.5468 13.1306 19.2569 13.1306H17.0894V15.6283H17.2005C17.8522 15.6283 18.5015 15.6319 19.1495 15.6356C19.7815 15.6392 20.4221 15.6429 21.0652 15.6429C21.9119 15.6429 22.7636 15.6368 23.6055 15.6148C25.394 15.5685 26.9332 14.075 27.0357 12.2862C27.1591 10.1435 25.989 8.58537 24.0548 8.31815H24.0535Z" fill="#0052CC"></path>
<path d="M69.9278 3.24188L68.5244 3.23944C67.311 3.237 66.0977 3.23578 64.8843 3.24066C62.7242 3.25042 61.1344 4.80615 61.1035 6.93903C61.0801 8.56675 61.0801 10.2457 61.1035 11.9284C61.1344 14.1027 62.7032 15.6267 64.9189 15.634C65.5262 15.6365 66.1335 15.6365 66.7408 15.6365C67.3481 15.6365 67.964 15.6365 68.575 15.6353H69.7069C69.7933 15.634 69.8797 15.6279 69.9698 15.6231L70.2056 15.6096V13.1302H68.2109C67.1493 13.1302 66.089 13.1302 65.0287 13.1302C64.2017 13.1302 63.8783 12.8179 63.8759 12.0211C63.8709 10.2079 63.8709 8.52161 63.8759 6.86704C63.8783 6.06172 64.1993 5.74691 65.0201 5.74569C66.11 5.74447 67.1999 5.74447 68.2899 5.74569H70.2142V3.27727L70.0377 3.25408C69.9908 3.24676 69.9587 3.2431 69.9278 3.2431V3.24188Z" fill="#0052CC"></path>
<path d="M121.132 3.24059H120.174C118.898 3.23815 117.62 3.23693 116.344 3.24059C114.126 3.24791 112.554 4.7707 112.524 6.94262C112.5 8.59841 112.5 10.2762 112.524 11.9319C112.554 14.1051 114.126 15.6267 116.343 15.634C116.961 15.6364 117.578 15.6364 118.197 15.6364C118.876 15.6364 119.554 15.6364 120.233 15.6352H121.131C121.217 15.6352 121.303 15.6279 121.394 15.6218L121.626 15.6084V13.1302H119.647C118.566 13.1302 117.484 13.1314 116.403 13.1302C115.632 13.1289 115.301 12.808 115.298 12.0601C115.292 10.4482 115.292 8.74849 115.298 6.86331C115.301 6.06043 115.623 5.74807 116.446 5.74563C117.536 5.7444 118.626 5.7444 119.716 5.74563H121.634V3.26744L121.397 3.25279C121.305 3.24669 121.218 3.24059 121.132 3.24059Z" fill="#0052CC"></path>
<path d="M92.3855 0.0170898H82.3664V2.49528H85.9978V15.6122H88.7701V2.49162H92.3855V0.0170898Z" fill="#0052CC"></path>
<path d="M99.2187 3.24066C98.2214 3.23944 97.2241 3.23944 96.2267 3.24066C93.8284 3.2431 92.278 4.77931 92.2743 7.15623C92.2719 9.33791 92.2731 11.5196 92.2743 13.7013V15.0557C92.2743 15.1582 92.2817 15.2607 92.2879 15.3668L92.3015 15.6218H95.0516V12.5885C95.0516 10.735 95.0516 8.88278 95.0516 7.02933C95.0516 6.01047 95.3145 5.74569 96.3316 5.74569H97.2031C97.882 5.74569 98.5596 5.74569 99.2373 5.74569C99.3323 5.74569 99.4273 5.73959 99.5261 5.73227L99.7643 5.71763V3.26629L99.5076 3.25286C99.4076 3.24676 99.3126 3.24188 99.2187 3.24188V3.24066Z" fill="#0052CC"></path>
<path d="M15.2528 4.22559H12.5385V15.6209H15.2528V4.22559Z" fill="#0052CC"></path>
<path d="M15.2528 0.0766602H12.5385V2.65735H15.2528V0.0766602Z" fill="#F27B42"></path>
<path d="M82.5626 7.7934C82.5244 5.90944 81.2357 4.49525 79.3534 4.27317C78.6152 4.18654 77.8561 4.2024 77.1217 4.21949C76.8649 4.22559 76.607 4.23047 76.3502 4.23291C76.1934 4.23291 76.0404 4.35127 75.9231 4.45376C75.6454 4.69902 75.3726 4.95038 75.0677 5.23224L74.9369 5.35182V6.72818H78.5572C79.4867 6.72818 79.8002 7.04299 79.8002 7.97399C79.8002 9.84819 79.8002 10.745 79.8002 12.618V15.6123H82.5046L82.5306 15.5391C82.5367 15.522 82.5429 15.5074 82.5478 15.4952C82.5602 15.4659 82.5738 15.4354 82.5738 15.3964C82.5738 14.5617 82.5787 13.7259 82.5824 12.8901C82.591 10.8988 82.6009 9.81646 82.5602 7.79096L82.5626 7.7934Z" fill="#0052CC"></path>
<path d="M74.938 0.213379H72.1249V15.6401H74.938V0.213379Z" fill="#0052CC"></path>
<path d="M157.688 4.43333C159.131 4.43333 160.36 4.95771 161.377 6.00645C162.394 7.04158 162.902 8.30824 162.902 9.80645C162.902 11.3047 162.394 12.5781 161.377 13.6269C160.36 14.662 159.131 15.1796 157.688 15.1796C155.984 15.1796 154.686 14.5054 153.793 13.157V19H152V4.69893H153.793V6.45591C154.686 5.10753 155.984 4.43333 157.688 4.43333ZM157.461 13.4634C158.492 13.4634 159.357 13.1161 160.058 12.4215C160.759 11.7133 161.109 10.8416 161.109 9.80645C161.109 8.77133 160.759 7.90645 160.058 7.21183C159.357 6.50358 158.492 6.14946 157.461 6.14946C156.417 6.14946 155.545 6.50358 154.844 7.21183C154.143 7.90645 153.793 8.77133 153.793 9.80645C153.793 10.8416 154.143 11.7133 154.844 12.4215C155.545 13.1161 156.417 13.4634 157.461 13.4634Z" fill="#47D09A"></path>
<path d="M165.041 14.914V0H166.834V14.914H165.041Z" fill="#47D09A"></path>
<path d="M178.102 4.69893H179.895V14.914H178.102V13.157C177.209 14.5054 175.91 15.1796 174.207 15.1796C172.764 15.1796 171.534 14.662 170.518 13.6269C169.501 12.5781 168.993 11.3047 168.993 9.80645C168.993 8.30824 169.501 7.04158 170.518 6.00645C171.534 4.95771 172.764 4.43333 174.207 4.43333C175.91 4.43333 177.209 5.10753 178.102 6.45591V4.69893ZM174.433 13.4634C175.477 13.4634 176.35 13.1161 177.051 12.4215C177.751 11.7133 178.102 10.8416 178.102 9.80645C178.102 8.77133 177.751 7.90645 177.051 7.21183C176.35 6.50358 175.477 6.14946 174.433 6.14946C173.403 6.14946 172.537 6.50358 171.837 7.21183C171.136 7.90645 170.786 8.77133 170.786 9.80645C170.786 10.8416 171.136 11.7133 171.837 12.4215C172.537 13.1161 173.403 13.4634 174.433 13.4634Z" fill="#47D09A"></path>
<path d="M187.743 4.43333C188.952 4.43333 189.92 4.8147 190.648 5.57742C191.377 6.32652 191.741 7.34803 191.741 8.64194V14.914H189.948V8.74409C189.948 7.91326 189.721 7.27312 189.268 6.82366C188.814 6.36057 188.189 6.12903 187.392 6.12903C186.499 6.12903 185.778 6.40824 185.228 6.96667C184.679 7.51147 184.404 8.35591 184.404 9.5V14.914H182.611V4.69893H184.404V6.16989C185.132 5.01219 186.245 4.43333 187.743 4.43333Z" fill="#47D09A"></path>
<path d="M199.375 4.43333C200.584 4.43333 201.553 4.8147 202.281 5.57742C203.009 6.32652 203.373 7.34803 203.373 8.64194V14.914H201.58V8.74409C201.58 7.91326 201.354 7.27312 200.9 6.82366C200.447 6.36057 199.822 6.12903 199.025 6.12903C198.132 6.12903 197.411 6.40824 196.861 6.96667C196.311 7.51147 196.037 8.35591 196.037 9.5V14.914H194.244V4.69893H196.037V6.16989C196.765 5.01219 197.878 4.43333 199.375 4.43333Z" fill="#47D09A"></path>
<path d="M207.133 10.6237C207.312 11.5362 207.731 12.2444 208.391 12.7484C209.064 13.2523 209.888 13.5043 210.864 13.5043C212.224 13.5043 213.213 13.0072 213.831 12.0129L215.356 12.871C214.353 14.41 212.842 15.1796 210.822 15.1796C209.187 15.1796 207.855 14.6756 206.824 13.6677C205.808 12.6462 205.299 11.3591 205.299 9.80645C205.299 8.26738 205.801 6.9871 206.804 5.96559C207.807 4.94409 209.105 4.43333 210.699 4.43333C212.21 4.43333 213.44 4.96452 214.388 6.02688C215.349 7.07563 215.83 8.34229 215.83 9.82688C215.83 10.0857 215.81 10.3513 215.768 10.6237H207.133ZM210.699 6.1086C209.737 6.1086 208.94 6.381 208.308 6.92581C207.676 7.45699 207.285 8.17204 207.133 9.07097H214.017C213.866 8.10394 213.481 7.36846 212.863 6.86452C212.244 6.36057 211.523 6.1086 210.699 6.1086Z" fill="#47D09A"></path>
<path d="M219.684 6.41505C220.275 5.14839 221.347 4.51505 222.899 4.51505V6.37419C222.02 6.33333 221.264 6.56487 220.632 7.06882C220 7.57276 219.684 8.38315 219.684 9.5V14.914H217.891V4.69893H219.684V6.41505Z" fill="#47D09A"></path>
<path d="M230.589 4.4129C231.949 4.4129 233.11 4.93728 234.072 5.98602C235.033 7.02115 235.514 8.29462 235.514 9.80645C235.514 11.3183 235.033 12.5986 234.072 13.6473C233.11 14.6824 231.949 15.2 230.589 15.2C229.27 15.2 228.246 14.7846 227.518 13.9538V19H224.427V4.69893H227.518V5.65914C228.246 4.82832 229.27 4.4129 230.589 4.4129ZM228.198 11.6247C228.665 12.0742 229.256 12.2989 229.97 12.2989C230.685 12.2989 231.269 12.0742 231.722 11.6247C232.189 11.1753 232.423 10.5692 232.423 9.80645C232.423 9.04373 232.189 8.43763 231.722 7.98817C231.269 7.53871 230.685 7.31398 229.97 7.31398C229.256 7.31398 228.665 7.53871 228.198 7.98817C227.745 8.43763 227.518 9.04373 227.518 9.80645C227.518 10.5692 227.745 11.1753 228.198 11.6247Z" fill="#47D09A"></path>
<path d="M240.358 6.5172C240.551 5.86344 240.935 5.36631 241.512 5.02581C242.103 4.67168 242.749 4.49462 243.45 4.49462V7.96774C242.694 7.84516 241.986 7.97455 241.327 8.35591C240.681 8.72366 240.358 9.37061 240.358 10.2968V14.914H237.267V4.69893H240.358V6.5172Z" fill="#47D09A"></path>
<path d="M253.413 13.6473C252.355 14.6824 251.064 15.2 249.539 15.2C248.014 15.2 246.722 14.6824 245.664 13.6473C244.606 12.5986 244.077 11.3183 244.077 9.80645C244.077 8.29462 244.606 7.02115 245.664 5.98602C246.722 4.93728 248.014 4.4129 249.539 4.4129C251.064 4.4129 252.355 4.93728 253.413 5.98602C254.471 7.02115 255 8.29462 255 9.80645C255 11.3183 254.471 12.5986 253.413 13.6473ZM247.849 11.543C248.302 11.9925 248.865 12.2172 249.539 12.2172C250.212 12.2172 250.775 11.9925 251.229 11.543C251.682 11.0935 251.909 10.5147 251.909 9.80645C251.909 9.09821 251.682 8.51935 251.229 8.06989C250.775 7.62043 250.212 7.3957 249.539 7.3957C248.865 7.3957 248.302 7.62043 247.849 8.06989C247.395 8.51935 247.169 9.09821 247.169 9.80645C247.169 10.5147 247.395 11.0935 247.849 11.543Z" fill="#47D09A"></path>
</svg>