<svg width="146" height="20" viewBox="0 0 146 20" fill="none" xmlns="http://www.w3.org/2000/svg">
<path d="M30 14.3763V3.17383H31.5919V14.3763H30Z" fill="#0052CC"></path>
<g clip-path="url(#clip0_20051_18957)">
<path d="M6.84347 0.0514435C4.95562 0.0477561 3.06777 0.0514435 1.17808 0.0514435H0.523596C0.429572 0.0514435 0.337392 0.0588183 0.239681 0.0643494L-0.00183105 0.0790989V15.5698H2.20681C2.89816 15.5698 3.58582 15.5698 4.27164 15.5698C5.1326 15.5698 5.98988 15.5698 6.849 15.5698C9.07792 15.5661 10.6376 14.0082 10.6413 11.7792C10.645 9.23673 10.645 6.40297 10.6413 3.86052C10.6376 1.5854 9.1111 0.0551309 6.84162 0.0514435H6.84347ZM7.89801 12.0391C7.89801 12.7324 7.55879 13.0698 6.8619 13.0716C5.81842 13.0753 4.7731 13.0735 3.72962 13.0716H2.94609C2.88525 13.0716 2.82257 13.0661 2.75251 13.0624H2.73408V2.56993C2.73408 2.56993 2.73961 2.56993 2.74145 2.56993C2.81335 2.56071 2.87972 2.55149 2.94425 2.55149C4.24952 2.54965 5.55479 2.54781 6.85822 2.55149C7.5551 2.55334 7.89432 2.89073 7.89617 3.58027C7.89985 6.30341 7.89985 9.31785 7.89617 12.041L7.89801 12.0391Z" fill="#0052CC"></path>
<path d="M21.8338 0H11.9613V2.47055H15.5397V15.546H18.272V2.46686H21.8338V0Z" fill="#0052CC"></path>
</g>
<path d="M48.688 4.43333C50.1306 4.43333 51.3602 4.95771 52.3769 6.00645C53.3936 7.04158 53.902 8.30824 53.902 9.80645C53.902 11.3047 53.3936 12.5781 52.3769 13.6269C51.3602 14.662 50.1306 15.1796 48.688 15.1796C46.9843 15.1796 45.686 14.5054 44.793 13.157V19H43V4.69893H44.793V6.45591C45.686 5.10753 46.9843 4.43333 48.688 4.43333ZM48.4613 13.4634C49.4917 13.4634 50.3573 13.1161 51.058 12.4215C51.7587 11.7133 52.109 10.8416 52.109 9.80645C52.109 8.77133 51.7587 7.90645 51.058 7.21183C50.3573 6.50358 49.4917 6.14946 48.4613 6.14946C47.4171 6.14946 46.5447 6.50358 45.844 7.21183C45.1433 7.90645 44.793 8.77133 44.793 9.80645C44.793 10.8416 45.1433 11.7133 45.844 12.4215C46.5447 13.1161 47.4171 13.4634 48.4613 13.4634Z" fill="#47D09A"></path>
<path d="M56.0414 14.914V0H57.8343V14.914H56.0414Z" fill="#47D09A"></path>
<path d="M69.1016 4.69893H70.8946V14.914H69.1016V13.157C68.2086 14.5054 66.9102 15.1796 65.2066 15.1796C63.764 15.1796 62.5343 14.662 61.5177 13.6269C60.501 12.5781 59.9926 11.3047 59.9926 9.80645C59.9926 8.30824 60.501 7.04158 61.5177 6.00645C62.5343 4.95771 63.764 4.43333 65.2066 4.43333C66.9102 4.43333 68.2086 5.10753 69.1016 6.45591V4.69893ZM65.4333 13.4634C66.4775 13.4634 67.3499 13.1161 68.0506 12.4215C68.7513 11.7133 69.1016 10.8416 69.1016 9.80645C69.1016 8.77133 68.7513 7.90645 68.0506 7.21183C67.3499 6.50358 66.4775 6.14946 65.4333 6.14946C64.4029 6.14946 63.5373 6.50358 62.8366 7.21183C62.1359 7.90645 61.7856 8.77133 61.7856 9.80645C61.7856 10.8416 62.1359 11.7133 62.8366 12.4215C63.5373 13.1161 64.4029 13.4634 65.4333 13.4634Z" fill="#47D09A"></path>
<path d="M78.7426 4.43333C79.9516 4.43333 80.9203 4.8147 81.6484 5.57742C82.3766 6.32652 82.7407 7.34803 82.7407 8.64194V14.914H80.9477V8.74409C80.9477 7.91326 80.721 7.27312 80.2676 6.82366C79.8143 6.36057 79.1891 6.12903 78.3923 6.12903C77.4992 6.12903 76.7779 6.40824 76.2284 6.96667C75.6788 7.51147 75.404 8.35591 75.404 9.5V14.914H73.6111V4.69893H75.404V6.16989C76.1322 5.01219 77.245 4.43333 78.7426 4.43333Z" fill="#47D09A"></path>
<path d="M90.3752 4.43333C91.5843 4.43333 92.5529 4.8147 93.281 5.57742C94.0092 6.32652 94.3733 7.34803 94.3733 8.64194V14.914H92.5803V8.74409C92.5803 7.91326 92.3536 7.27312 91.9003 6.82366C91.4469 6.36057 90.8217 6.12903 90.0249 6.12903C89.1318 6.12903 88.4105 6.40824 87.861 6.96667C87.3114 7.51147 87.0366 8.35591 87.0366 9.5V14.914H85.2437V4.69893H87.0366V6.16989C87.7648 5.01219 88.8777 4.43333 90.3752 4.43333Z" fill="#47D09A"></path>
<path d="M98.1334 10.6237C98.312 11.5362 98.731 12.2444 99.3905 12.7484C100.064 13.2523 100.888 13.5043 101.864 13.5043C103.224 13.5043 104.213 13.0072 104.831 12.0129L106.356 12.871C105.353 14.41 103.842 15.1796 101.822 15.1796C100.187 15.1796 98.8547 14.6756 97.8243 13.6677C96.8076 12.6462 96.2992 11.3591 96.2992 9.80645C96.2992 8.26738 96.8007 6.9871 97.8037 5.96559C98.8066 4.94409 100.105 4.43333 101.699 4.43333C103.21 4.43333 104.44 4.96452 105.388 6.02688C106.349 7.07563 106.83 8.34229 106.83 9.82688C106.83 10.0857 106.81 10.3513 106.768 10.6237H98.1334ZM101.699 6.1086C100.737 6.1086 99.9401 6.381 99.3081 6.92581C98.6761 7.45699 98.2845 8.17204 98.1334 9.07097H105.017C104.866 8.10394 104.481 7.36846 103.863 6.86452C103.244 6.36057 102.523 6.1086 101.699 6.1086Z" fill="#47D09A"></path>
<path d="M110.684 6.41505C111.275 5.14839 112.347 4.51505 113.899 4.51505V6.37419C113.02 6.33333 112.264 6.56487 111.632 7.06882C111 7.57276 110.684 8.38315 110.684 9.5V14.914H108.891V4.69893H110.684V6.41505Z" fill="#47D09A"></path>
<path d="M121.589 4.4129C122.949 4.4129 124.11 4.93728 125.072 5.98602C126.033 7.02115 126.514 8.29462 126.514 9.80645C126.514 11.3183 126.033 12.5986 125.072 13.6473C124.11 14.6824 122.949 15.2 121.589 15.2C120.27 15.2 119.246 14.7846 118.518 13.9538V19H115.427V4.69893H118.518V5.65914C119.246 4.82832 120.27 4.4129 121.589 4.4129ZM119.198 11.6247C119.665 12.0742 120.256 12.2989 120.97 12.2989C121.685 12.2989 122.269 12.0742 122.722 11.6247C123.189 11.1753 123.423 10.5692 123.423 9.80645C123.423 9.04373 123.189 8.43763 122.722 7.98817C122.269 7.53871 121.685 7.31398 120.97 7.31398C120.256 7.31398 119.665 7.53871 119.198 7.98817C118.745 8.43763 118.518 9.04373 118.518 9.80645C118.518 10.5692 118.745 11.1753 119.198 11.6247Z" fill="#47D09A"></path>
<path d="M131.358 6.5172C131.551 5.86344 131.935 5.36631 132.512 5.02581C133.103 4.67168 133.749 4.49462 134.45 4.49462V7.96774C133.694 7.84516 132.986 7.97455 132.327 8.35591C131.681 8.72366 131.358 9.37061 131.358 10.2968V14.914H128.267V4.69893H131.358V6.5172Z" fill="#47D09A"></path>
<path d="M144.413 13.6473C143.355 14.6824 142.064 15.2 140.539 15.2C139.014 15.2 137.722 14.6824 136.664 13.6473C135.606 12.5986 135.077 11.3183 135.077 9.80645C135.077 8.29462 135.606 7.02115 136.664 5.98602C137.722 4.93728 139.014 4.4129 140.539 4.4129C142.064 4.4129 143.355 4.93728 144.413 5.98602C145.471 7.02115 146 8.29462 146 9.80645C146 11.3183 145.471 12.5986 144.413 13.6473ZM138.849 11.543C139.302 11.9925 139.865 12.2172 140.539 12.2172C141.212 12.2172 141.775 11.9925 142.229 11.543C142.682 11.0935 142.909 10.5147 142.909 9.80645C142.909 9.09821 142.682 8.51935 142.229 8.06989C141.775 7.62043 141.212 7.3957 140.539 7.3957C139.865 7.3957 139.302 7.62043 138.849 8.06989C138.395 8.51935 138.169 9.09821 138.169 9.80645C138.169 10.5147 138.395 11.0935 138.849 11.543Z" fill="#47D09A"></path>
<defs>
<clipPath id="clip0_20051_18957">
<rect width="21.8338" height="15.57" fill="white"></rect>
</clipPath>
</defs>
</svg>