<svg width="269" height="21" viewBox="0 0 269 21" fill="none" xmlns="http://www.w3.org/2000/svg">
<path d="M56.2169 13.4823C55.2318 13.4823 54.9319 13.1907 54.9307 12.2365V6.08431H59.6372V3.5927L56.4612 3.59026C56.2761 3.59026 56.1021 3.65981 55.9687 3.78671L54.9097 4.79092V0.56543L52.1534 3.00701V3.05582C52.1534 4.09786 52.1534 5.14111 52.1534 6.18315C52.1534 6.80056 52.1522 7.41797 52.1497 8.03538C52.1435 9.4935 52.1386 11.0004 52.1744 12.4829C52.2213 14.4145 53.8111 15.9519 55.7947 15.9824C56.2551 15.9897 56.718 15.9922 57.1796 15.9922C57.5845 15.9922 57.9881 15.991 58.3844 15.9885L59.2595 15.9861C59.3348 15.9861 59.4064 15.9714 59.4706 15.9592C59.4965 15.9544 59.5212 15.9495 59.5459 15.9458L59.6397 15.9312V13.4835H56.2181L56.2169 13.4823Z" fill="white"></path>
<path d="M6.9444 0.420354C5.02747 0.417914 3.11177 0.419134 1.19484 0.420354H0.532001C0.436957 0.420354 0.341912 0.426455 0.244399 0.433776L0 0.447198V15.9874H2.24156C2.94267 15.9874 3.64007 15.9874 4.33624 15.9874C5.21015 15.9874 6.08036 15.9874 6.95181 15.9862C9.21435 15.9826 10.7968 14.4195 10.8005 12.1841C10.8054 9.63395 10.8042 6.7897 10.8005 4.24074C10.798 1.959 9.24768 0.424015 6.9444 0.420354ZM8.01457 12.4452C8.01457 13.1395 7.67019 13.4787 6.96415 13.4812C5.90509 13.4848 4.84479 13.4836 3.78572 13.4824H2.99081C2.92909 13.4824 2.86614 13.4775 2.79331 13.4726H2.77356V2.94613C2.77356 2.94613 2.7785 2.94613 2.78097 2.94613C2.8538 2.93637 2.92168 2.92661 2.9871 2.92661C4.31155 2.92417 5.636 2.92173 6.96045 2.92661C7.66772 2.92905 8.0121 3.26704 8.01334 3.95888C8.01704 6.68965 8.01704 9.7157 8.01334 12.4465L8.01457 12.4452Z" fill="white"></path>
<path d="M34.8516 3.59269L34.3788 3.58903C33.832 3.58415 33.2667 3.57927 32.71 3.60245C32.4755 3.61222 32.2089 3.71349 32.0151 3.86601C31.7361 4.08443 31.4831 4.31992 31.1893 4.59324C31.1227 4.65547 31.0535 4.72014 30.9819 4.78481V3.60733H28.2417V20.3519H30.993V15.9873H32.1533C33.0643 15.9885 33.9518 15.9897 34.8393 15.9873C37.0623 15.9812 38.6497 14.4706 38.699 12.3133C38.7361 10.7051 38.7373 9.01152 38.699 7.2813C38.6534 5.1533 37.0351 3.60245 34.8516 3.59269ZM35.9131 12.5903C35.9082 13.0942 35.5453 13.4652 35.0516 13.4725C34.0826 13.4871 33.1309 13.4847 32.1249 13.481C31.7583 13.481 31.3905 13.4786 31.0177 13.4786V6.09651H33.8542C34.2023 6.09407 34.5504 6.09284 34.8985 6.09773C35.5268 6.10627 35.9057 6.44792 35.9119 7.01042C35.9341 8.76626 35.9341 10.5904 35.9119 12.5891L35.9131 12.5903Z" fill="white"></path>
<path d="M130.703 10.0244C132.65 8.64685 133.564 6.64087 133.579 3.72219V3.61238H130.83L130.823 3.71487C130.729 5.10344 130.557 6.43222 129.522 7.42301C128.544 8.35888 127.291 8.60292 125.876 8.78473V0.352051H123.144V15.9582H125.887V14.3902C125.89 13.5447 125.892 12.6698 125.881 11.8083C125.877 11.557 125.921 11.5094 126.181 11.4862C126.78 11.4337 127.338 11.3398 127.838 11.2092C128.136 11.1311 128.231 11.2031 128.365 11.4594C129.09 12.8357 129.849 14.2243 130.581 15.5677L130.617 15.6324C130.739 15.8557 130.86 15.9704 130.98 15.974C131.482 15.9862 131.981 15.9887 132.493 15.9887C132.695 15.9887 132.9 15.9887 133.109 15.9887H133.937L130.702 10.0269L130.703 10.0244Z" fill="white"></path>
<path d="M46.7001 3.59283C45.43 3.58673 44.1598 3.58917 42.8897 3.59039H41.7837C41.6973 3.59161 41.6109 3.60015 41.522 3.6087C41.4825 3.61236 41.4418 3.61602 41.3998 3.61968L41.2974 3.627V6.09665H42.9884C44.0895 6.09665 45.1893 6.09421 46.2903 6.10031C46.5409 6.10153 46.7902 6.12837 47.0284 6.1784C47.2185 6.21866 47.5481 6.34312 47.616 6.72382C47.6666 7.01056 47.6851 7.30219 47.7048 7.60967C47.711 7.70729 47.7172 7.8049 47.7246 7.90496C47.3173 7.90496 46.9173 7.90495 46.5211 7.90251C45.5497 7.90007 44.6326 7.89763 43.7006 7.9074C41.9059 7.92448 40.4654 9.06657 40.1149 10.7492C39.9989 11.308 39.9766 11.945 40.047 12.7527C40.1865 14.3634 41.4307 15.6836 43.0057 15.8935C43.5735 15.9691 44.1536 15.985 44.7264 15.985C44.9399 15.985 45.1535 15.9826 45.3645 15.9801C45.5917 15.9777 45.8237 15.9752 46.0471 15.9752C46.2421 15.9752 46.4878 15.8788 46.6717 15.73C46.9544 15.5006 47.2148 15.2602 47.516 14.9808C47.5814 14.9198 47.6481 14.8575 47.7172 14.7941V15.9643H50.4451L50.4574 15.8679C50.4611 15.8398 50.4648 15.8142 50.4685 15.7898C50.4772 15.7336 50.4846 15.6848 50.4846 15.6348C50.4846 14.81 50.487 13.9851 50.4895 13.1603C50.4957 11.2007 50.5031 9.17394 50.4698 7.18139C50.4352 5.07779 48.8849 3.60137 46.7001 3.59161V3.59283ZM47.6839 10.4161V13.4824H46.1224C45.3868 13.4824 44.6523 13.4836 43.9166 13.4824C43.1217 13.48 42.7798 13.1395 42.7749 12.3428L42.7724 12.1073C42.7687 11.8535 42.7662 11.5911 42.7811 11.3361C42.8119 10.8102 43.1612 10.4356 43.6303 10.4271C44.2178 10.4149 44.8128 10.4112 45.404 10.4112C45.8003 10.4112 46.1965 10.4124 46.5853 10.4136C46.9494 10.4149 47.316 10.4161 47.6839 10.4173V10.4161Z" fill="white"></path>
<path d="M107.241 3.59904C105.99 3.58196 104.719 3.58562 103.488 3.5905C102.986 3.59172 102.484 3.59416 101.981 3.59416C101.929 3.59416 101.876 3.6027 101.826 3.61246L101.675 3.63442V6.09797H102.987C104.203 6.09675 105.405 6.09675 106.607 6.10163C106.863 6.10163 107.112 6.12603 107.349 6.17118C107.738 6.24439 107.971 6.48965 108.021 6.88011C108.052 7.12048 108.062 7.36818 108.071 7.63052C108.075 7.71959 108.079 7.81111 108.082 7.90628H107.66C107.285 7.90628 106.906 7.90628 106.53 7.90384C105.695 7.9014 104.832 7.89896 103.982 7.91238C102.287 7.94044 100.858 9.07155 100.505 10.6651C100.374 11.2569 100.343 11.939 100.41 12.7504C100.543 14.361 101.785 15.6837 103.364 15.8948C103.933 15.9705 104.515 15.9875 105.09 15.9875C105.302 15.9875 105.511 15.9851 105.72 15.9827C105.93 15.9802 106.141 15.9778 106.351 15.9778C106.369 15.9778 106.384 15.9741 106.407 15.9778C106.605 15.9778 106.851 15.8826 107.032 15.735C107.315 15.5056 107.588 15.253 107.875 14.9858C107.941 14.9248 108.008 14.8625 108.078 14.7991V15.9522H110.835V15.8423C110.835 14.9577 110.839 14.0767 110.842 13.1982C110.851 11.1703 110.86 9.07399 110.82 7.01799C110.784 5.0962 109.245 3.62588 107.239 3.59904H107.241ZM108.053 10.4125V13.4825H105.339C104.952 13.485 104.566 13.4862 104.18 13.4813C103.541 13.4727 103.162 13.1128 103.141 12.4929C103.127 12.0695 103.128 11.6986 103.144 11.3606C103.17 10.8054 103.535 10.4272 104.052 10.4199C104.621 10.4113 105.185 10.4089 105.757 10.4089C106.147 10.4089 106.541 10.4089 106.944 10.4113C107.311 10.4113 107.679 10.4138 108.052 10.4138L108.053 10.4125Z" fill="white"></path>
<path d="M24.0535 8.6702C23.2611 8.56039 22.4415 8.56893 21.6515 8.57747C21.3244 8.58113 20.9973 8.58479 20.669 8.57991C19.8568 8.56893 19.4791 8.16993 19.4778 7.32556C19.4766 6.51292 19.8703 6.09928 20.6492 6.09806C21.8366 6.09562 23.0241 6.09684 24.2115 6.09684H26.2605V3.61987L26.0655 3.60401C26.0001 3.59791 25.9408 3.59303 25.8816 3.59303H24.7164C23.303 3.59059 21.8441 3.58937 20.4073 3.59913C20.1061 3.60157 19.7753 3.64916 19.4531 3.73701C17.6374 4.23362 16.5043 5.98214 16.7573 7.89295C17.0054 9.76837 18.4706 11.0483 20.4011 11.0788C20.8134 11.0849 21.2256 11.0837 21.6379 11.0825C22.1712 11.0801 22.7229 11.0788 23.2648 11.0947C23.5055 11.102 23.7709 11.1887 23.9424 11.3168C24.293 11.5791 24.4102 12.2905 24.1942 12.8396C24.0091 13.3081 23.719 13.4826 23.1216 13.4826C21.8342 13.4838 20.5468 13.4826 19.2569 13.4826H17.0894V15.9803H17.2005C17.8522 15.9803 18.5015 15.984 19.1495 15.9876C19.7815 15.9913 20.4221 15.995 21.0652 15.995C21.9119 15.995 22.7636 15.9889 23.6055 15.9669C25.394 15.9205 26.9332 14.427 27.0357 12.6382C27.1591 10.4956 25.989 8.93742 24.0548 8.6702H24.0535Z" fill="white"></path>
<path d="M69.9278 3.59393L68.5244 3.59149C67.311 3.58905 66.0977 3.58783 64.8843 3.59271C62.7242 3.60247 61.1344 5.1582 61.1035 7.29108C61.0801 8.9188 61.0801 10.5978 61.1035 12.2804C61.1344 14.4548 62.7032 15.9788 64.9189 15.9861C65.5262 15.9885 66.1335 15.9885 66.7408 15.9885C67.3481 15.9885 67.964 15.9885 68.575 15.9873H69.7069C69.7933 15.9861 69.8797 15.98 69.9698 15.9751L70.2056 15.9617V13.4823H68.2109C67.1493 13.4823 66.089 13.4823 65.0287 13.4823C64.2017 13.4823 63.8783 13.1699 63.8759 12.3731C63.8709 10.5599 63.8709 8.87366 63.8759 7.21909C63.8783 6.41377 64.1993 6.09896 65.0201 6.09774C66.11 6.09652 67.1999 6.09652 68.2899 6.09774H70.2142V3.62932L70.0377 3.60613C69.9908 3.59881 69.9587 3.59515 69.9278 3.59515V3.59393Z" fill="white"></path>
<path d="M121.132 3.59264H120.174C118.898 3.5902 117.62 3.58898 116.344 3.59264C114.126 3.59996 112.554 5.12275 112.524 7.29467C112.5 8.95046 112.5 10.6282 112.524 12.284C112.554 14.4571 114.126 15.9787 116.343 15.986C116.961 15.9885 117.578 15.9885 118.197 15.9885C118.876 15.9885 119.554 15.9885 120.233 15.9872H121.131C121.217 15.9872 121.303 15.9799 121.394 15.9738L121.626 15.9604V13.4822H119.647C118.566 13.4822 117.484 13.4834 116.403 13.4822C115.632 13.481 115.301 13.1601 115.298 12.4121C115.292 10.8003 115.292 9.10054 115.298 7.21536C115.301 6.41248 115.623 6.10012 116.446 6.09768C117.536 6.09646 118.626 6.09646 119.716 6.09768H121.634V3.61949L121.397 3.60484C121.305 3.59874 121.218 3.59264 121.132 3.59264Z" fill="white"></path>
<path d="M92.3855 0.369141H82.3664V2.84733H85.9978V15.9643H88.7701V2.84367H92.3855V0.369141Z" fill="white"></path>
<path d="M99.2187 3.59271C98.2214 3.59149 97.2241 3.59149 96.2267 3.59271C93.8284 3.59515 92.278 5.13136 92.2743 7.50828C92.2719 9.68996 92.2731 11.8716 92.2743 14.0533V15.4077C92.2743 15.5102 92.2817 15.6127 92.2879 15.7189L92.3015 15.9739H95.0516V12.9405C95.0516 11.0871 95.0516 9.23483 95.0516 7.38138C95.0516 6.36252 95.3145 6.09775 96.3316 6.09775H97.2031C97.882 6.09775 98.5596 6.09775 99.2373 6.09775C99.3323 6.09775 99.4273 6.09164 99.5261 6.08432L99.7643 6.06968V3.61834L99.5076 3.60491C99.4076 3.59881 99.3126 3.59393 99.2187 3.59393V3.59271Z" fill="white"></path>
<path d="M15.2528 4.57764H12.5385V15.9729H15.2528V4.57764Z" fill="white"></path>
<path d="M15.2528 0.428711H12.5385V3.0094H15.2528V0.428711Z" fill="#F27B42"></path>
<path d="M82.5626 8.14545C82.5244 6.26149 81.2357 4.8473 79.3534 4.62523C78.6152 4.53859 77.8561 4.55445 77.1217 4.57154C76.8649 4.57764 76.607 4.58252 76.3502 4.58496C76.1934 4.58496 76.0404 4.70332 75.9231 4.80581C75.6454 5.05107 75.3726 5.30243 75.0677 5.58429L74.9369 5.70387V7.08023H78.5572C79.4867 7.08023 79.8002 7.39504 79.8002 8.32604C79.8002 10.2002 79.8002 11.0971 79.8002 12.97V15.9644H82.5046L82.5306 15.8912C82.5367 15.8741 82.5429 15.8594 82.5478 15.8472C82.5602 15.818 82.5738 15.7874 82.5738 15.7484C82.5738 14.9138 82.5787 14.078 82.5824 13.2421C82.591 11.2508 82.6009 10.1685 82.5602 8.14301L82.5626 8.14545Z" fill="white"></path>
<path d="M74.938 0.56543H72.1249V15.9922H74.938V0.56543Z" fill="white"></path>
<path d="M141.937 15.9535V4.75098H143.529V15.9535H141.937Z" fill="white"></path>
<path d="M157.578 4.8608C158.892 4.8608 159.945 5.27893 160.736 6.1152C161.527 6.93653 161.923 8.05653 161.923 9.4752V16.352H159.974V9.5872C159.974 8.67627 159.728 7.9744 159.235 7.4816C158.742 6.97387 158.063 6.72 157.197 6.72C156.226 6.72 155.442 7.02613 154.845 7.6384C154.247 8.23573 153.949 9.1616 153.949 10.416V16.352H152V0.671999H153.949V6.7648C154.74 5.49547 155.95 4.8608 157.578 4.8608Z" fill="#FFE380"></path>
<path d="M166.01 11.648C166.204 12.6485 166.66 13.4251 167.377 13.9776C168.108 14.5301 169.004 14.8064 170.065 14.8064C171.543 14.8064 172.618 14.2613 173.29 13.1712L174.948 14.112C173.858 15.7995 172.215 16.6432 170.02 16.6432C168.243 16.6432 166.794 16.0907 165.674 14.9856C164.569 13.8656 164.017 12.4544 164.017 10.752C164.017 9.06453 164.562 7.6608 165.652 6.5408C166.742 5.4208 168.153 4.8608 169.885 4.8608C171.528 4.8608 172.865 5.4432 173.895 6.608C174.94 7.75787 175.463 9.14667 175.463 10.7744C175.463 11.0581 175.441 11.3493 175.396 11.648H166.01ZM169.885 6.6976C168.84 6.6976 167.974 6.99627 167.287 7.5936C166.6 8.176 166.174 8.96 166.01 9.9456H173.492C173.327 8.88533 172.909 8.07893 172.237 7.5264C171.565 6.97387 170.781 6.6976 169.885 6.6976Z" fill="#FFE380"></path>
<path d="M177.703 16.352V0H179.652V16.352H177.703Z" fill="#FFE380"></path>
<path d="M188.807 4.8608C190.375 4.8608 191.712 5.43573 192.817 6.5856C193.922 7.72053 194.475 9.10933 194.475 10.752C194.475 12.3947 193.922 13.7909 192.817 14.9408C191.712 16.0757 190.375 16.6432 188.807 16.6432C186.956 16.6432 185.544 15.904 184.574 14.4256V20.832H182.625V5.152H184.574V7.0784C185.544 5.6 186.956 4.8608 188.807 4.8608ZM188.561 14.7616C189.681 14.7616 190.622 14.3808 191.383 13.6192C192.145 12.8427 192.526 11.8869 192.526 10.752C192.526 9.61707 192.145 8.6688 191.383 7.9072C190.622 7.13067 189.681 6.7424 188.561 6.7424C187.426 6.7424 186.478 7.13067 185.716 7.9072C184.955 8.6688 184.574 9.61707 184.574 10.752C184.574 11.8869 184.955 12.8427 185.716 13.6192C186.478 14.3808 187.426 14.7616 188.561 14.7616Z" fill="#FFE380"></path>
<path d="M208.23 16.6656C206.527 16.6656 205.109 16.0981 203.974 14.9632C202.854 13.8283 202.294 12.4245 202.294 10.752C202.294 9.07947 202.854 7.67573 203.974 6.5408C205.109 5.40587 206.527 4.8384 208.23 4.8384C209.305 4.8384 210.29 5.09973 211.186 5.6224C212.097 6.14507 212.799 6.83947 213.292 7.7056L210.358 9.408C209.954 8.57173 209.23 8.1536 208.185 8.1536C207.453 8.1536 206.848 8.4 206.37 8.8928C205.893 9.37067 205.654 9.9904 205.654 10.752C205.654 11.5136 205.893 12.1408 206.37 12.6336C206.848 13.1115 207.453 13.3504 208.185 13.3504C209.245 13.3504 209.969 12.9323 210.358 12.096L213.292 13.776C212.799 14.6571 212.105 15.3589 211.209 15.8816C210.313 16.4043 209.32 16.6656 208.23 16.6656Z" fill="#FFE380"></path>
<path d="M217.427 12.096C217.815 13.1413 218.711 13.664 220.115 13.664C221.026 13.664 221.743 13.3803 222.265 12.8128L224.953 14.3584C223.848 15.8965 222.221 16.6656 220.07 16.6656C218.189 16.6656 216.68 16.1056 215.545 14.9856C214.425 13.8656 213.865 12.4544 213.865 10.752C213.865 9.06453 214.418 7.6608 215.523 6.5408C216.643 5.40587 218.077 4.8384 219.824 4.8384C221.452 4.8384 222.803 5.40587 223.878 6.5408C224.968 7.6608 225.513 9.06453 225.513 10.752C225.513 11.2299 225.469 11.6779 225.379 12.096H217.427ZM217.36 9.5872H222.176C221.847 8.40747 221.056 7.8176 219.801 7.8176C218.502 7.8176 217.688 8.40747 217.36 9.5872Z" fill="#FFE380"></path>
<path d="M233.982 4.8384C235.177 4.8384 236.17 5.24907 236.962 6.0704C237.768 6.89173 238.171 8.02667 238.171 9.4752V16.352H234.811V9.968C234.811 9.31093 234.625 8.81067 234.251 8.4672C233.893 8.1088 233.43 7.9296 232.862 7.9296C232.22 7.9296 231.713 8.12373 231.339 8.512C230.966 8.90027 230.779 9.4752 230.779 10.2368V16.352H227.419V5.152H230.779V6.2048C231.451 5.29387 232.519 4.8384 233.982 4.8384Z" fill="#FFE380"></path>
<path d="M247.042 8.3776H244.735V12.3424C244.735 12.7904 244.914 13.0741 245.272 13.1936C245.631 13.3131 246.22 13.3504 247.042 13.3056V16.352C244.906 16.576 243.428 16.3744 242.607 15.7472C241.785 15.1051 241.375 13.9701 241.375 12.3424V8.3776H239.583V5.152H241.375V3.024L244.735 2.016V5.152H247.042V8.3776Z" fill="#FFE380"></path>
<path d="M251.727 12.096C252.115 13.1413 253.011 13.664 254.415 13.664C255.326 13.664 256.043 13.3803 256.565 12.8128L259.253 14.3584C258.148 15.8965 256.521 16.6656 254.37 16.6656C252.489 16.6656 250.98 16.1056 249.845 14.9856C248.725 13.8656 248.165 12.4544 248.165 10.752C248.165 9.06453 248.718 7.6608 249.823 6.5408C250.943 5.40587 252.377 4.8384 254.124 4.8384C255.752 4.8384 257.103 5.40587 258.178 6.5408C259.268 7.6608 259.813 9.06453 259.813 10.752C259.813 11.2299 259.769 11.6779 259.679 12.096H251.727ZM251.66 9.5872H256.476C256.147 8.40747 255.356 7.8176 254.101 7.8176C252.802 7.8176 251.988 8.40747 251.66 9.5872Z" fill="#FFE380"></path>
<path d="M265.079 7.1456C265.288 6.4288 265.706 5.88373 266.334 5.5104C266.976 5.12213 267.678 4.928 268.439 4.928V8.736C267.618 8.6016 266.849 8.74347 266.132 9.1616C265.43 9.5648 265.079 10.2741 265.079 11.2896V16.352H261.719V5.152H265.079V7.1456Z" fill="#FFE380"></path>
</svg>